<?xml version="1.0" standalone="no"?>
<!DOCTYPE svg PUBLIC "-//W3C//DTD SVG 1.1//EN" "http://www.w3.org/Graphics/SVG/1.1/DTD/svg11.dtd">
<svg xmlns="http://www.w3.org/2000/svg">
<defs >
<font id="HostGrotesk" horiz-adv-x="537" ><font-face
    font-family="Host Grotesk Light Light"
    units-per-em="1000"
    panose-1="2 11 5 4 3 4 2 0 2 3"
    ascent="1015"
    descent="-315"
    alphabetic="0" />
<glyph unicode=" " horiz-adv-x="307" />
<glyph unicode="!" horiz-adv-x="276" d="M108 175L100 700H176L167 175H108ZM87 0V103H189V0H87Z" />
<glyph unicode="&quot;" horiz-adv-x="347" d="M85 562L75 755H144L134 562H85ZM214 562L203 755H272L263 562H214Z" />
<glyph unicode="#" horiz-adv-x="800" d="M147 0L297 700H364L214 0H147ZM436 0L586 700H653L503 0H436ZM50 204V266H710V204H50ZM89 434V496H750V434H89Z" />
<glyph unicode="$" horiz-adv-x="650" d="M326 -12Q271 -12 223 2T138 43T79 113T54 211H126Q130 155 156 118T227 63T326 45Q375 45 417 59T485 105T511 192Q511 235 486 267T399 311L244 339Q174 352 128 399T81 513Q81 576 115 620T204 688T322 712Q389 712
441 689T527 621T566 511H493Q488 559 466 591T408 639T321 655Q272 655 233 640T171 594T148 520Q148 474 181 444T265 405L412 378Q496 362 537 314T579 195Q579 141 558 102T501 38T420 1T326 -12ZM292 -87V791H346V-87H292Z" />
<glyph unicode="%" horiz-adv-x="859" d="M187 0L598 700H668L258 0H187ZM226 381Q182 381 147 401T91 458T70 546Q70 597 91 634T147 691T227 711Q271 711 306 691T361 634T382 546Q382 496 362 459T306 401T226 381ZM226 438Q263 438 291 465T320 546Q320 601
292 628T227 655Q190 655 161 628T132 546Q132 492 160 465T226 438ZM636 -12Q592 -12 557 8T501 65T480 153Q480 204 501 241T557 298T637 318Q681 318 716 298T771 241T792 153Q792 103 772 66T716 8T636 -12ZM636 45Q673 45 701 72T730 153Q730 208 703 235T637
262Q600 262 571 235T542 153Q542 99 570 72T636 45Z" />
<glyph unicode="&amp;" horiz-adv-x="707" d="M577 0L102 647V700H505V641H136L170 665L658 0H577ZM293 -5Q222 -5 167 22T81 99T50 216Q50 320 116 376T292 433H313L333 376H293Q217 376 169 335T120 216Q120 166 142 130T204 74T292 54Q340 54 378 71T445 121T495
198T527 295T544 406H611Q606 335 590 273T546 159T481 72T397 15T293 -5Z" />
<glyph unicode="&apos;" horiz-adv-x="200" d="M76 562L64 755H137L125 562H76Z" />
<glyph unicode="(" horiz-adv-x="385" d="M280 -145Q218 -84 173 -12T102 147T77 333Q77 433 102 519T172 678T280 811H351Q287 742 247 680T185 559T155 445T147 333Q147 277 155 221T184 107T246 -13T351 -145H280Z" />
<glyph unicode=")" horiz-adv-x="385" d="M34 -145Q99 -76 139 -14T200 107T230 221T238 333Q238 389 230 445T201 559T139 679T34 811H105Q167 751 212 678T283 519T308 333Q308 233 283 147T213 -11T105 -145H34Z" />
<glyph unicode="*" horiz-adv-x="462" d="M156 376L108 406L182 520L47 519V575L182 574L108 688L156 718L231 597L306 718L356 691L280 574L415 575V519L280 520L354 406L306 376L231 497L156 376Z" />
<glyph unicode="+" horiz-adv-x="590" d="M263 116V584H327V116H263ZM68 320V380H522V320H68Z" />
<glyph unicode="," horiz-adv-x="222" d="M47 -149V-83H66Q77 -83 84 -76T92 -55V-5H57V98H159V-55Q159 -95 136 -122T67 -149H47Z" />
<glyph unicode="-" horiz-adv-x="490" d="M274 320V380H728V320H274Z" />
<glyph unicode="." horiz-adv-x="224" d="M61 0V103H163V0H61Z" />
<glyph unicode="/" horiz-adv-x="470" d="M35 -90L365 760H435L104 -90H35Z" />
<glyph unicode="0" horiz-adv-x="650" d="M325 -12Q237 -12 177 32T85 157T54 350Q54 462 85 543T176 668T325 712Q414 712 474 668T565 543T596 350Q596 238 565 157T474 32T325 -12ZM325 49Q426 49 475 128T524 350Q524 491 475 570T325 650Q224 650 175 571T126
350Q126 208 175 129T325 49Z" />
<glyph unicode="1" horiz-adv-x="650" d="M314 32V552H106V603L272 615Q291 617 302 627T314 657V700H385V32H314ZM82 0V59H595V0H82Z" />
<glyph unicode="2" horiz-adv-x="650" d="M86 0V38Q86 125 112 181T184 274T290 338L356 368Q423 398 457 429T491 516Q491 552 476 583T427 633T335 652Q278 652 242 630T187 573T169 495H101Q101 562 131 610T213 685T335 712Q397 712 448 692T530 629T561 519Q561
444 517 397T405 318L297 268Q237 241 207 209T167 139T156 59H574V0H86Z" />
<glyph unicode="3" horiz-adv-x="650" d="M328 -12Q247 -12 188 12T94 85T57 205H129Q129 163 151 128T217 72T328 50Q414 50 457 94T501 200Q501 253 474 286T402 334T302 350H228V410H303Q383 410 426 443T470 535Q470 585 435 617T328 650Q248 650 206 615T159
523H86Q89 578 117 620T199 687T328 712Q399 712 446 689T518 626T542 539Q542 489 513 444T419 384Q484 371 528 325T573 201Q573 144 546 96T464 18T328 -12Z" />
<glyph unicode="4" horiz-adv-x="650" d="M402 0V157H28V210L388 700H471V218H578V157H471V0H402ZM405 187V654L423 648L89 192L76 218H437L405 187Z" />
<glyph unicode="5" horiz-adv-x="650" d="M323 -12Q252 -12 200 14T117 85T77 186H146Q159 124 206 86T324 48Q384 48 425 73T487 140T508 235Q508 318 460 369T328 421Q266 421 222 394T157 321H91L151 700H524V639H206L157 379L153 396Q175 432 222 456T333
481Q406 481 460 450T545 363T575 236Q575 170 547 114T463 23T323 -12Z" />
<glyph unicode="6" horiz-adv-x="650" d="M340 -12Q262 -12 209 16T123 92T76 199T62 321Q62 436 94 524T188 662T340 712Q404 712 450 687T524 619T558 523H493Q483 584 443 617T340 650Q244 650 185 563T127 290L120 308Q134 344 164 375T240 427T348 447Q408
447 461 419T548 341T581 222Q581 165 553 111T470 23T340 -12ZM335 50Q385 50 424 72T486 132T509 218Q509 269 487 306T425 364T335 385Q281 385 239 362T174 301T150 217Q150 169 173 132T239 72T335 50Z" />
<glyph unicode="7" horiz-adv-x="650" d="M188 0L510 640H86V700H582V643L263 0H188Z" />
<glyph unicode="8" horiz-adv-x="650" d="M325 -12Q253 -12 196 13T106 84T73 188Q73 231 92 269T144 334T223 372Q160 391 127 434T93 526Q93 578 121 620T201 687T325 712Q397 712 449 687T529 620T557 526Q557 477 524 434T427 372Q472 362 506 335T558 269T577
188Q577 129 544 84T454 14T325 -12ZM325 51Q416 51 460 89T505 192Q505 265 456 301T325 337Q243 337 194 301T145 192Q145 128 189 90T325 51ZM325 399Q399 399 442 434T486 524Q486 587 443 618T325 650Q250 650 207 619T164 524Q164 469 208 434T325 399Z"
/>
<glyph unicode="9" horiz-adv-x="650" d="M310 -12Q246 -12 200 13T126 82T92 177H157Q168 116 208 83T310 50Q406 50 465 137T523 410L530 392Q516 357 486 325T410 273T302 253Q242 253 189 281T103 360T69 478Q69 536 97 589T180 677T310 712Q388 712 441 684T527
608T574 501T588 379Q588 264 556 176T462 38T310 -12ZM315 315Q370 315 411 338T476 400T500 483Q500 531 477 569T412 628T315 650Q265 650 226 628T164 569T141 482Q141 432 163 394T225 336T315 315Z" />
<glyph unicode=":" horiz-adv-x="224" d="M61 0V103H163V0H61ZM61 393V496H163V393H61Z" />
<glyph unicode=";" horiz-adv-x="222" d="M57 393V496H159V393H57ZM47 -149V-83H66Q77 -83 84 -76T92 -55V-5H57V98H159V-55Q159 -95 136 -122T67 -149H47Z" />
<glyph unicode="&lt;" horiz-adv-x="590" d="M467 118L113 323V377L467 582V510L143 326V374L467 190V118Z" />
<glyph unicode="=" horiz-adv-x="590" d="M68 410V470H522V410H68ZM68 230V290H522V230H68Z" />
<glyph unicode="&gt;" horiz-adv-x="590" d="M123 118V190L447 374V326L123 510V582L477 377V323L123 118Z" />
<glyph unicode="?" horiz-adv-x="500" d="M184 175V239Q184 271 187 290T203 323T246 348L275 360Q317 378 344 398T385 445T398 508Q398 575 357 613T247 652Q179 652 139 615T99 514H32Q32 575 59 619T135 687T247 712Q311 712 360 687T437 616T465 508Q465
435 426 387T321 310L285 294Q264 284 259 274T254 239V175H184ZM169 0V103H271V0H169Z" />
<glyph unicode="@" horiz-adv-x="894" d="M411 -220Q339 -220 280 -200T179 -140T115 -47T92 73V335Q92 400 114 452T179 541T281 599T412 619H495Q592 619 663 584T774 485T813 335V185Q813 90 786 43T692 -5Q652 -5 624 15T587 68Q571 35 531 15T437 -6Q373
-6 329 22T262 97T239 201Q239 259 261 306T328 382T437 411Q478 411 517 391T577 339L580 404H637V118Q637 88 651 71T691 53Q729 53 738 83T748 185V335Q748 402 717 451T629 529T495 557H412Q335 557 278 530T189 452T158 335V73Q158 2 189 -51T277 -134T411
-164H560V-220H411ZM440 44Q505 44 542 87T580 201Q580 273 543 316T440 360Q376 360 338 317T300 201Q300 130 338 87T440 44Z" />
<glyph unicode="A" horiz-adv-x="674" d="M43 0L302 700H373L631 0H557L320 654H354L117 0H43ZM163 186L184 244H490L511 186H163Z" />
<glyph unicode="B" horiz-adv-x="597" d="M78 0V700H321Q395 700 443 676T514 612T538 523Q538 469 515 433T454 378T375 354L390 364Q435 363 472 340T533 279T556 191Q556 139 530 96T454 26T330 0H78ZM148 59H325Q401 59 442 95T484 194Q484 257 441 294T322
332H148V59ZM148 390H319Q390 390 428 424T466 516Q466 572 429 606T316 641H148V390Z" />
<glyph unicode="C" horiz-adv-x="705" d="M369 -12Q267 -12 193 33T78 160T37 350Q37 458 77 539T192 666T369 712Q488 712 561 657T656 500H578Q562 568 510 609T369 651Q291 651 233 615T142 512T109 350Q109 256 141 189T232 85T369 49Q458 49 510 90T582 207H660Q636
101 562 45T369 -12Z" />
<glyph unicode="D" horiz-adv-x="685" d="M78 0V700H283Q407 700 486 658T604 537T643 348Q643 240 605 162T487 42T283 0H78ZM148 58H283Q389 58 452 93T543 193T571 348Q571 439 543 505T452 606T283 642H148V58Z" />
<glyph unicode="E" horiz-adv-x="539" d="M67 0V700H492V642H137V381H462V323H137V58H492V0H67Z" />
<glyph unicode="F" horiz-adv-x="523" d="M78 0V700H496V642H148V380H448V322H148V0H78Z" />
<glyph unicode="G" horiz-adv-x="733" d="M382 -12Q276 -12 199 33T79 159T37 343Q37 453 78 536T195 665T374 712Q490 712 568 656T668 500H586Q572 568 517 608T374 648Q294 648 235 612T142 507T109 342Q109 253 143 188T238 87T380 51Q491 51 555 118T623
309H398V371H691V346Q691 232 653 152T545 30T382 -12Z" />
<glyph unicode="H" horiz-adv-x="675" d="M527 0V700H597V0H527ZM78 0V700H148V0H78ZM132 327V385H547V327H132Z" />
<glyph unicode="I" horiz-adv-x="234" d="M82 0V700H152V0H82Z" />
<glyph unicode="J" horiz-adv-x="401" d="M31 0V62H150Q218 62 244 99T270 192V700H340V192Q340 101 290 51T150 0H31Z" />
<glyph unicode="K" horiz-adv-x="630" d="M78 0V700H148V352L481 700H570L282 395L576 0H491L232 346L148 260V0H78Z" />
<glyph unicode="L" horiz-adv-x="521" d="M78 0V700H148V57H479V0H78Z" />
<glyph unicode="M" horiz-adv-x="855" d="M78 0V700H158L447 67H411L696 700H777V0H707V620L733 621L454 0H403L121 621L148 620V0H78Z" />
<glyph unicode="N" horiz-adv-x="691" d="M82 0V700H152L539 118V700H609V0H539L152 583V0H82Z" />
<glyph unicode="O" horiz-adv-x="760" d="M380 -12Q277 -12 200 33T80 160T37 350Q37 457 80 538T200 666T380 712Q484 712 561 666T680 539T723 350Q723 242 681 161T561 34T380 -12ZM380 49Q461 49 522 85T617 188T651 350Q651 444 617 511T522 614T380 650Q300
650 239 614T143 511T109 350Q109 256 143 189T238 85T380 49Z" />
<glyph unicode="P" horiz-adv-x="589" d="M78 0V700H299Q380 700 432 674T510 602T535 499Q535 443 510 398T433 326T299 299H148V0H78ZM148 359H299Q388 359 425 397T463 499Q463 567 426 604T299 641H148V359Z" />
<glyph unicode="Q" horiz-adv-x="789" d="M380 -12Q277 -12 200 33T80 160T37 350Q37 457 80 538T200 666T380 712Q484 712 561 666T680 539T723 350Q723 242 681 161T561 34T380 -12ZM380 49Q461 49 522 85T617 188T651 350Q651 444 617 511T522 614T380 650Q300
650 239 614T143 511T109 350Q109 256 143 189T238 85T380 49ZM701 0Q686 0 673 4T649 22L440 254L482 293L683 76Q692 67 698 65T719 62H772V0H701Z" />
<glyph unicode="R" horiz-adv-x="640" d="M78 0V700H346Q427 700 478 673T554 601T578 497Q578 442 554 396T479 323Q531 300 553 255T579 147L587 0H518L511 136Q508 192 493 226T441 277T341 293H148V0H78ZM148 350H341Q427 350 466 391T506 497Q506 563 468
602T340 641H148V350Z" />
<glyph unicode="S" horiz-adv-x="607" d="M308 -12Q253 -12 205 2T120 43T61 113T36 211H108Q112 156 138 120T209 67T308 49Q356 49 397 62T464 107T489 192Q489 235 464 267T377 311L226 339Q156 352 110 399T63 513Q63 576 97 620T186 688T304 712Q371 712
423 689T509 621T548 511H475Q470 557 448 588T390 635T303 651Q255 651 217 636T157 592T134 520Q134 474 167 445T251 405L394 378Q478 362 519 314T561 195Q561 141 540 102T483 38T402 1T308 -12Z" />
<glyph unicode="T" horiz-adv-x="587" d="M259 0V642H49V700H539V642H329V0H259Z" />
<glyph unicode="U" horiz-adv-x="634" d="M317 -12Q246 -12 189 16T97 103T63 255V700H133V254Q133 145 184 98T318 50Q400 50 450 97T501 254V700H571V255Q571 163 537 104T446 16T317 -12Z" />
<glyph unicode="V" horiz-adv-x="710" d="M315 0L50 700H126L355 76L586 700H660L395 0H315Z" />
<glyph unicode="W" horiz-adv-x="1012" d="M249 0L55 700H130L301 43H277L469 700H547L734 42H710L882 700H957L759 0H681L494 635H517L325 0H249Z" />
<glyph unicode="X" horiz-adv-x="637" d="M492 0L67 700H145L570 0H492ZM67 0L292 375L332 323L145 0H67ZM347 331L307 383L493 700H571L347 331Z" />
<glyph unicode="Y" horiz-adv-x="642" d="M287 0V272L51 700H129L338 304H306L514 700H591L357 272V0H287Z" />
<glyph unicode="Z" horiz-adv-x="542" d="M52 0V56L404 638H58V700H486V644L134 62H491V0H52Z" />
<glyph unicode="[" horiz-adv-x="385" d="M104 -145V811H304V753H170V-86H304V-145H104Z" />
<glyph unicode="\" horiz-adv-x="470" d="M366 -90L35 760H105L435 -90H366Z" />
<glyph unicode="]" horiz-adv-x="385" d="M81 -145V-86H215V753H81V811H281V-145H81Z" />
<glyph unicode="^" horiz-adv-x="590" d="M98 453L265 700H325L492 453H418L295 644L172 453H98Z" />
<glyph unicode="_" horiz-adv-x="671" d="M71 -100V-35H600V-100H71Z" />
<glyph unicode="`" horiz-adv-x="400" d="M221 558L101 737H178L275 558H221Z" />
<glyph unicode="a" horiz-adv-x="555" d="M221 -12Q159 -12 118 9T57 64T37 137Q37 219 96 262T253 305Q294 305 330 299T389 284V305Q389 375 354 411T257 448Q205 448 168 427T121 354H48Q54 408 85 442T161 492T257 508Q360 508 409 452T459 305V138Q459 102
463 86T479 67T511 63H519V0H504Q458 0 429 17T391 86Q369 45 329 17T221 -12ZM228 48Q278 48 314 74T369 141T389 227Q365 234 330 240T258 246Q176 246 142 215T108 139Q108 100 139 74T228 48Z" />
<glyph unicode="b" horiz-adv-x="602" d="M319 -12Q256 -12 208 14T133 88V0H63V720H133V410Q157 448 203 478T320 508Q395 508 450 474T535 381T566 247Q566 172 536 114T450 22T319 -12ZM316 49Q369 49 409 74T472 143T495 248Q495 308 472 353T409 422T316
447Q264 447 224 423T160 353T137 248Q137 188 160 144T223 74T316 49Z" />
<glyph unicode="c" horiz-adv-x="548" d="M281 -12Q212 -12 157 20T69 111T36 248Q36 327 68 385T156 475T281 508Q368 508 426 463T501 344H431Q420 394 379 421T281 448Q237 448 197 426T133 359T108 248Q108 182 132 138T197 71T281 48Q337 48 378 75T431 152H501Q486
80 427 34T281 -12Z" />
<glyph unicode="d" horiz-adv-x="602" d="M282 -12Q207 -12 152 22T67 115T36 249Q36 324 66 382T152 474T283 508Q346 508 395 482T469 408V720H539V0H469V86Q445 49 399 19T282 -12ZM286 49Q339 49 379 74T442 143T465 248Q465 308 442 353T379 422T286 447Q234
447 194 423T130 353T107 248Q107 188 130 144T193 74T286 49Z" />
<glyph unicode="e" horiz-adv-x="557" d="M276 -12Q206 -12 152 20T67 111T36 249Q36 328 66 386T152 476T278 508Q350 508 401 476T479 391T506 279Q506 269 506 258T505 233H90V293H438Q435 366 389 407T275 448Q230 448 191 428T128 370T104 274V247Q104 180
129 136T193 70T276 48Q332 48 370 74T424 146H492Q480 101 451 65T378 9T276 -12Z" />
<glyph unicode="f" horiz-adv-x="334" d="M103 0V594Q103 642 116 669T158 708T235 720H285V660H246Q201 660 187 647T173 588V0H103ZM27 436V496H285V436H27Z" />
<glyph unicode="g" horiz-adv-x="620" d="M300 -232Q234 -232 182 -209T95 -145T49 -46H118Q135 -101 184 -136T300 -171Q352 -171 393 -149T459 -81T483 29V104Q467 75 440 49T373 5T283 -12Q214 -12 157 22T67 115T33 249Q33 324 66 382T157 474T284 508Q353
508 405 477T483 401V496H553V29Q553 -51 521 -109T432 -200T300 -232ZM292 49Q345 49 387 74T454 144T479 249Q479 309 455 353T388 422T292 447Q239 447 197 423T130 354T105 249Q105 190 129 145T196 74T292 49Z" />
<glyph unicode="h" horiz-adv-x="569" d="M65 0V720H135V408Q161 455 207 481T308 508Q392 508 444 456T497 293V0H428V285Q428 367 395 407T297 447Q229 447 182 398T135 257V0H65Z" />
<glyph unicode="i" horiz-adv-x="212" d="M72 0V496H142V0H72ZM56 597V700H156V597H56Z" />
<glyph unicode="j" horiz-adv-x="207" d="M-44 -220V-160H4Q43 -160 55 -149T67 -98V496H137V-101Q137 -145 125 -171T86 -208T15 -220H-44ZM53 597V700H153V597H53Z" />
<glyph unicode="k" horiz-adv-x="530" d="M123 179L113 253L377 496H466L123 179ZM65 0V720H135V0H65ZM400 0L188 273L234 322L491 0H400Z" />
<glyph unicode="l" horiz-adv-x="212" d="M71 0V720H141V0H71Z" />
<glyph unicode="m" horiz-adv-x="899" d="M72 0V496H142V424Q166 464 206 486T295 508Q354 508 397 484T463 408Q488 455 534 481T632 508Q718 508 772 456T826 293V0H756V285Q756 367 723 407T630 447Q568 447 526 398T484 257V0H414V285Q414 367 381 407T288
447Q226 447 184 398T142 257V0H72Z" />
<glyph unicode="n" horiz-adv-x="569" d="M69 0V496H139V410Q164 456 209 482T309 508Q395 508 448 456T501 293V0H431V285Q431 367 397 407T297 447Q229 447 184 398T139 257V0H69Z" />
<glyph unicode="o" horiz-adv-x="576" d="M287 -12Q215 -12 158 20T69 110T36 248Q36 328 69 386T159 476T289 508Q362 508 418 476T507 386T540 248Q540 169 507 111T417 20T287 -12ZM287 48Q336 48 377 70T443 137T468 248Q468 315 444 359T378 425T289 448Q241
448 200 426T133 359T108 248Q108 182 133 138T198 71T287 48Z" />
<glyph unicode="p" horiz-adv-x="602" d="M63 -220V496H133V410Q157 448 203 478T320 508Q395 508 450 474T535 381T566 247Q566 172 536 114T450 22T319 -12Q256 -12 208 14T133 88V-220H63ZM316 49Q369 49 409 74T472 143T495 248Q495 308 472 353T409 422T316
447Q264 447 224 423T160 353T137 248Q137 188 160 144T223 74T316 49Z" />
<glyph unicode="q" horiz-adv-x="602" d="M469 -220V86Q445 49 399 19T282 -12Q207 -12 152 22T67 115T36 249Q36 324 66 382T152 474T283 508Q346 508 395 482T469 408V496H539V-220H469ZM286 49Q339 49 379 74T442 143T465 248Q465 308 442 353T379 422T286
447Q234 447 194 423T130 353T107 248Q107 188 130 144T193 74T286 49Z" />
<glyph unicode="r" horiz-adv-x="381" d="M69 0V496H139V417Q155 456 184 477T256 499H336V432H249Q219 432 194 415T154 357T139 247V0H69Z" />
<glyph unicode="s" horiz-adv-x="495" d="M255 -12Q168 -12 108 28T37 154H110Q118 105 156 77T257 49Q313 49 344 74T375 138Q375 167 357 181T289 206Q268 211 248 214T206 222Q175 228 142 243T87 286T64 361Q64 424 112 466T241 508Q317 508 369 473T430 357H359Q355
406 322 426T239 447Q194 447 164 426T133 369Q133 305 221 288Q234 286 246 284T271 279T296 274Q317 271 342 264T390 243T429 206T444 144Q444 99 421 64T355 9T255 -12Z" />
<glyph unicode="t" horiz-adv-x="355" d="M218 0Q180 0 154 10T114 46T100 122V436H14V496H100V611H170V496H318V436H170V135Q170 99 175 83T197 64T248 60H309V0H218Z" />
<glyph unicode="u" horiz-adv-x="538" d="M246 -12Q167 -12 116 40T64 203V496H134V211Q134 129 167 89T258 49Q326 49 366 98T406 239V496H476V0H406V84Q384 38 342 13T246 -12Z" />
<glyph unicode="v" horiz-adv-x="552" d="M237 0L47 496H120L277 68L434 496H506L316 0H237Z" />
<glyph unicode="w" horiz-adv-x="806" d="M201 0L56 496H127L246 67H228L363 496H443L578 67H560L679 496H750L605 0H534L394 451H412L272 0H201Z" />
<glyph unicode="x" horiz-adv-x="566" d="M64 0L233 248L64 496H139L283 282L427 496H502L333 248L502 0H427L283 214L139 0H64Z" />
<glyph unicode="y" horiz-adv-x="590" d="M53 -220V-160H151Q165 -160 174 -155T192 -134T216 -85L279 53L270 11L52 496H128L300 98L483 496H555L283 -98Q264 -140 251 -164T227 -201T202 -216T167 -220H53Z" />
<glyph unicode="z" horiz-adv-x="465" d="M45 0V58L328 438H50V496H406V438L123 58H411V0H45Z" />
<glyph unicode="{" horiz-adv-x="385" d="M279 -144Q214 -144 174 -110T134 -10Q134 30 142 59T158 118T166 188Q166 225 140 258T51 305V362Q114 376 140 409T166 479Q166 519 158 548T142 608T134 677Q134 742 174 776T279 811H329V755H296Q253 755 230 735T206
672Q206 643 214 614T230 551T238 477Q238 425 210 387T112 334V333Q181 320 209 282T238 190Q238 150 230 117T214 54T206 -5Q206 -48 229 -68T296 -88H329V-144H279Z" />
<glyph unicode="|" horiz-adv-x="234" d="M82 -100V720H152V-100H82Z" />
<glyph unicode="}" horiz-adv-x="385" d="M56 -144V-88H89Q132 -88 155 -68T179 -5Q179 24 171 53T155 116T147 190Q147 243 175 281T273 333V334Q204 348 176 386T147 477Q147 518 155 551T171 613T179 672Q179 715 156 735T89 755H56V811H106Q171 811 211 777T251
677Q251 638 243 608T227 549T219 479Q219 442 245 409T334 362V305Q271 291 245 258T219 188Q219 148 227 119T243 60T251 -10Q251 -75 211 -109T106 -144H56Z" />
<glyph unicode="~" horiz-adv-x="590" d="M80 257Q91 322 123 354T204 386Q232 386 256 376T304 353T348 329T391 319Q418 319 435 337T457 385H510Q500 321 469 289T386 256Q359 256 335 266T288 289T244 313T200 323Q173 323 156 305T133 257H80Z" />
<glyph unicode="&#xa0;" horiz-adv-x="307" />
<glyph unicode="&#xa1;" horiz-adv-x="275" d="M98 -144L106 371H165L174 -144H98ZM87 458V561H188V458H87Z" />
<glyph unicode="&#xa2;" horiz-adv-x="650" d="M335 -12Q266 -12 211 20T123 111T90 248Q90 327 122 385T210 475T335 508Q422 508 480 463T555 344H485Q474 394 433 421T335 448Q291 448 251 426T187 359T162 248Q162 182 186 138T251 71T335 48Q391 48 432 75T485
152H555Q540 80 481 34T335 -12ZM295 -104V33H365V-104H295ZM295 463V600H365V463H295Z" />
<glyph unicode="&#xa3;" horiz-adv-x="650" d="M74 0V47Q105 73 132 99T176 157T193 233Q193 269 184 301T162 366T140 435T130 516Q130 572 156 616T233 686T359 712Q433 712 480 685T553 611T581 510H517Q513 572 475 612T360 653Q284 653 243 613T202 506Q202
468 211 436T232 373T253 311T262 245Q262 187 236 140T168 58H582V0H74ZM50 311V364H453V311H50Z" />
<glyph unicode="&#xa4;" horiz-adv-x="650" d="M321 117Q269 117 231 138T171 200T150 297Q150 354 171 394T230 455T321 477Q374 477 412 456T472 394T493 297Q493 240 472 200T413 139T321 117ZM321 168Q381 168 406 206T432 297Q432 350 407 387T321 425Q262
425 237 388T211 297Q211 244 236 206T321 168ZM206 388L126 467L161 502L239 424L206 388ZM442 385L411 423L489 502L524 467L442 385ZM489 94L413 170L446 207L524 129L489 94ZM161 94L126 129L206 209L241 174L161 94Z" />
<glyph unicode="&#xa5;" horiz-adv-x="650" d="M291 0V272L65 700H144L341 304H309L506 700H585L361 272V0H291ZM91 172V225H561V172H91ZM91 320V372H289L300 320H91ZM360 320L371 372H561V320H360Z" />
<glyph unicode="&#xa6;" horiz-adv-x="234" d="M82 385V720H152V385H82ZM82 -100V235H152V-100H82Z" />
<glyph unicode="&#xa7;" horiz-adv-x="595" d="M305 -233Q250 -233 202 -219T117 -178T58 -108T33 -10H105Q109 -65 135 -101T206 -154T305 -172Q353 -172 394 -159T461 -114T486 -29Q486 14 461 46T374 90L223 118Q153 131 107 178T60 292Q60 336 77 371T125
432L172 390Q153 374 142 351T131 299Q131 253 164 224T248 184L391 157Q475 141 516 93T558 -26Q558 -80 537 -119T480 -183T399 -220T305 -233ZM500 54L455 101Q469 118 477 140T486 192Q486 235 461 267T374 311L223 339Q153 352 107 399T60 513Q60 576 94 620T183
688T301 712Q368 712 420 689T506 621T545 511H472Q467 557 445 588T387 635T300 651Q252 651 214 636T154 592T131 520Q131 474 164 445T248 405L391 378Q475 362 516 314T558 195Q558 149 543 115T500 54Z" />
<glyph unicode="&#xa8;" horiz-adv-x="400" d="M227 597V700H323V597H227ZM78 597V700H174V597H78Z" />
<glyph unicode="&#xa9;" horiz-adv-x="774" d="M387 -4Q285 -4 207 41T86 167T42 350Q42 454 85 533T207 658T387 703Q490 703 567 658T688 534T732 350Q732 247 689 167T568 42T387 -4ZM387 117Q328 117 279 144T201 224T171 351Q171 425 200 477T279 556T387
584Q461 584 516 545T591 433H526Q510 482 473 507T387 532Q346 532 311 512T255 451T234 350Q234 290 255 250T311 190T387 169Q437 169 473 194T526 267H591Q572 197 517 157T387 117ZM387 46Q478 46 543 84T645 192T681 350Q681 440 645 508T544 615T387 654Q297
654 231 616T129 509T93 350Q93 261 129 192T231 85T387 46Z" />
<glyph unicode="&#xaa;" horiz-adv-x="452" d="M214 347Q166 347 127 369T64 432T40 526Q40 580 63 621T125 685T212 709Q268 709 303 682T353 622L346 598V703H399V353H346V457L357 444Q347 403 310 375T214 347ZM219 392Q271 392 306 428T342 528Q342 592 307
628T219 664Q170 664 135 627T99 526Q99 462 134 427T219 392Z" />
<glyph unicode="&#xab;" horiz-adv-x="508" d="M191 120L62 295L191 470H267L135 295L267 120H191ZM372 120L243 295L372 470H448L316 295L448 120H372Z" />
<glyph unicode="&#xac;" horiz-adv-x="590" d="M457 180V320H68V380H522V180H457Z" />
<glyph unicode="&#xae;" horiz-adv-x="501" d="M251 311Q193 311 149 337T79 408T53 511Q53 569 78 614T148 685T251 712Q309 712 353 686T422 614T448 511Q448 454 423 409T353 337T251 311ZM251 344Q324 344 368 391T412 511Q412 584 368 631T251 678Q178 678
134 631T89 511Q89 438 133 391T251 344ZM173 405V620H266Q299 620 318 603T338 555Q338 522 315 505Q328 495 332 480T337 448L340 405H295L292 436Q289 468 283 479T253 490H216V405H173ZM216 526H263Q277 526 286 532T295 554Q295 568 286 574T263 581H216V526Z"
/>
<glyph unicode="&#xaf;" horiz-adv-x="400" d="M49 596V670H351V596H49Z" />
<glyph unicode="&#xb0;" horiz-adv-x="362" d="M185 450Q150 450 121 466T75 511T57 580Q57 621 74 650T121 696T186 712Q221 712 250 696T296 651T314 580Q314 541 297 512T250 466T185 450ZM185 506Q211 506 233 525T255 581Q255 619 234 637T186 656Q161 656
139 638T116 581Q116 544 138 525T185 506Z" />
<glyph unicode="&#xb1;" horiz-adv-x="590" d="M68 368V428H522V368H68ZM68 100V160H522V100H68ZM263 213V584H327V213H263Z" />
<glyph unicode="&#xb2;" horiz-adv-x="359" d="M58 352V382Q58 426 82 454T145 505Q167 518 188 531T224 560T239 601Q239 633 222 649T179 665Q122 665 114 602H57Q60 646 91 677T181 709Q235 709 267 679T299 603Q299 561 270 531T191 475Q160 459 139 439T117
381L106 399H305V352H58Z" />
<glyph unicode="&#xb3;" horiz-adv-x="351" d="M177 347Q121 347 87 373T48 451H104Q109 417 129 404T177 391Q209 391 228 406T247 449Q247 478 227 493T174 508H126V547H174Q205 547 225 562T245 606Q245 632 227 648T177 664Q146 664 129 651T105 614H51Q56
655 90 682T181 709Q233 709 269 681T305 608Q305 577 288 557T241 528V526Q269 518 288 497T307 443Q307 405 273 376T177 347Z" />
<glyph unicode="&#xb4;" horiz-adv-x="400" d="M126 558L223 737H300L180 558H126Z" />
<glyph unicode="&#xb5;" horiz-adv-x="587" d="M83 -220V496H153V211Q153 129 188 89T287 49Q355 49 400 98T445 239V496H515V0H447V90Q423 42 377 15T275 -12Q200 -12 153 25V-220H83Z" />
<glyph unicode="&#xb6;" horiz-adv-x="653" d="M321 -100V299H313Q232 299 180 325T103 397T77 499Q77 557 102 602T180 673T313 700H533V-100H470V644H384V-100H321Z" />
<glyph unicode="&#xb7;" horiz-adv-x="224" d="M112 295Q90 295 76 310T61 347Q61 369 75 383T112 398Q133 398 147 384T162 347Q162 325 148 310T112 295Z" />
<glyph unicode="&#xb8;" horiz-adv-x="400" d="M92 -258V-211H178Q216 -211 233 -198T250 -160Q250 -137 233 -125T178 -112H131Q125 -112 125 -106Q125 -103 126 -101L172 7H221L181 -67Q183 -67 185 -67T190 -67Q245 -67 277 -91T309 -160Q309 -190 295 -212T254
-246T192 -258H92Z" />
<glyph unicode="&#xb9;" horiz-adv-x="237" d="M110 352V625H44V664H80Q94 664 102 672T110 694V704H168V352H110Z" />
<glyph unicode="&#xba;" horiz-adv-x="440" d="M214 348Q163 348 123 371T59 435T35 530Q35 585 59 626T123 689T215 712Q267 712 307 690T371 626T395 530Q395 476 371 435T306 371T214 348ZM214 395Q263 395 299 429T336 530Q336 597 300 631T214 666Q165 666
130 632T94 530Q94 464 129 430T214 395Z" />
<glyph unicode="&#xbb;" horiz-adv-x="508" d="M241 120L373 295L241 470H317L446 295L317 120H241ZM60 120L192 295L60 470H136L265 295L136 120H60Z" />
<glyph unicode="&#xbc;" horiz-adv-x="727" d="M116 0L483 700H549L183 0H116ZM122 352V625H56V664H92Q106 664 114 672T122 694V704H180V352H122ZM537 0V71H358V106L521 354H594V110H644V71H594V0H537ZM416 110H538V296L416 110Z" />
<glyph unicode="&#xbd;" horiz-adv-x="769" d="M122 0L482 700H549L189 0H122ZM122 352V625H56V664H92Q106 664 114 672T122 694V704H180V352H122ZM437 0V30Q437 74 461 102T524 153Q546 166 567 179T603 208T618 249Q618 281 601 297T558 313Q501 313 493 250H436Q439
294 470 325T560 357Q614 357 646 327T678 251Q678 209 649 179T570 123Q539 107 518 87T496 29L485 47H684V0H437Z" />
<glyph unicode="&#xbe;" horiz-adv-x="827" d="M195 0L572 700H638L261 0H195ZM187 347Q131 347 97 373T58 451H114Q119 417 139 404T187 391Q219 391 238 406T257 449Q257 478 237 493T184 508H136V547H184Q215 547 235 562T255 606Q255 632 237 648T187 664Q156
664 139 651T115 614H61Q66 655 100 682T191 709Q243 709 279 681T315 608Q315 577 298 557T251 528V526Q279 518 298 497T317 443Q317 405 283 376T187 347ZM635 0V71H456V106L619 354H692V110H742V71H692V0H635ZM514 110H636V296L514 110Z" />
<glyph unicode="&#xbf;" horiz-adv-x="500" d="M250 -166Q186 -166 137 -141T60 -70T32 38Q32 111 72 159T176 236L212 252Q233 262 238 272T243 307V371H313V307Q313 275 310 256T294 223T251 198L222 186Q180 169 153 149T112 102T99 38Q99 -29 141 -67T250
-106Q318 -106 358 -69T398 32H465Q465 -28 438 -72T362 -141T250 -166ZM226 443V546H328V443H226Z" />
<glyph unicode="&#xc0;" horiz-adv-x="674" d="M43 0L302 700H373L631 0H557L320 654H354L117 0H43ZM163 186L184 244H490L511 186H163ZM299 762L179 941H256L353 762H299Z" />
<glyph unicode="&#xc1;" horiz-adv-x="674" d="M43 0L302 700H373L631 0H557L320 654H354L117 0H43ZM163 186L184 244H490L511 186H163ZM323 762L420 941H497L377 762H323Z" />
<glyph unicode="&#xc2;" horiz-adv-x="674" d="M43 0L302 700H373L631 0H557L320 654H354L117 0H43ZM163 186L184 244H490L511 186H163ZM204 758V835L338 917L472 835V758L338 842L204 758Z" />
<glyph unicode="&#xc3;" horiz-adv-x="674" d="M43 0L302 700H373L631 0H557L320 654H354L117 0H43ZM163 186L184 244H490L511 186H163ZM382 758Q356 758 337 769T303 791T276 803Q263 803 254 793T243 760H185Q191 821 214 847T273 873Q299 873 317 862T351 839T379
828Q393 828 403 838T414 871H471Q467 812 442 785T382 758Z" />
<glyph unicode="&#xc4;" horiz-adv-x="674" d="M43 0L302 700H373L631 0H557L320 654H354L117 0H43ZM163 186L184 244H490L511 186H163ZM364 801V904H460V801H364ZM215 801V904H311V801H215Z" />
<glyph unicode="&#xc5;" horiz-adv-x="674" d="M43 0L302 700H373L631 0H557L320 654H354L117 0H43ZM163 186L184 244H490L511 186H163ZM338 764Q297 764 267 791T236 864Q236 911 266 937T338 964Q381 964 410 938T440 864Q440 818 411 791T338 764ZM338 815Q358
815 371 828T385 864Q385 887 372 900T338 913Q319 913 306 900T292 864Q292 842 305 829T338 815Z" />
<glyph unicode="&#xc6;" horiz-adv-x="904" d="M43 0L449 700H857V644H560V380H827V324H560V56H857V0H490V640L120 0H43ZM177 166L206 222H522V166H177Z" />
<glyph unicode="&#xc7;" horiz-adv-x="705" d="M369 -12Q267 -12 193 33T78 160T37 350Q37 458 77 539T192 666T369 712Q488 712 561 657T656 500H578Q562 568 510 609T369 651Q291 651 233 615T142 512T109 350Q109 256 141 189T232 85T369 49Q458 49 510 90T582
207H660Q636 101 562 45T369 -12ZM266 -258V-211H352Q390 -211 407 -198T424 -160Q424 -137 407 -125T352 -112H305Q299 -112 299 -106Q299 -103 300 -101L346 7H395L355 -67Q357 -67 359 -67T364 -67Q419 -67 451 -91T483 -160Q483 -190 469 -212T428 -246T366
-258H266Z" />
<glyph unicode="&#xc8;" horiz-adv-x="539" d="M67 0V700H492V642H137V381H462V323H137V58H492V0H67ZM258 762L138 941H215L312 762H258Z" />
<glyph unicode="&#xc9;" horiz-adv-x="539" d="M67 0V700H492V642H137V381H462V323H137V58H492V0H67ZM282 762L379 941H456L336 762H282Z" />
<glyph unicode="&#xca;" horiz-adv-x="539" d="M67 0V700H492V642H137V381H462V323H137V58H492V0H67ZM163 758V835L297 917L431 835V758L297 842L163 758Z" />
<glyph unicode="&#xcb;" horiz-adv-x="539" d="M67 0V700H492V642H137V381H462V323H137V58H492V0H67ZM323 801V904H419V801H323ZM174 801V904H270V801H174Z" />
<glyph unicode="&#xcc;" horiz-adv-x="234" d="M82 0V700H152V0H82ZM78 762L-42 941H35L132 762H78Z" />
<glyph unicode="&#xcd;" horiz-adv-x="234" d="M82 0V700H152V0H82ZM102 762L199 941H276L156 762H102Z" />
<glyph unicode="&#xce;" horiz-adv-x="234" d="M82 0V700H152V0H82ZM-17 758V835L117 917L251 835V758L117 842L-17 758Z" />
<glyph unicode="&#xcf;" horiz-adv-x="234" d="M82 0V700H152V0H82ZM143 801V904H239V801H143ZM-6 801V904H90V801H-6Z" />
<glyph unicode="&#xd0;" horiz-adv-x="709" d="M104 0V700H309Q433 700 512 658T630 537T669 348Q669 240 631 162T513 42T309 0H104ZM28 316V381H381V316H28ZM174 58H309Q415 58 478 93T569 193T597 348Q597 439 569 505T478 606T309 642H174V58Z" />
<glyph unicode="&#xd1;" horiz-adv-x="691" d="M82 0V700H152L539 118V700H609V0H539L152 583V0H82ZM386 758Q360 758 341 769T307 791T280 803Q267 803 258 793T247 760H189Q195 821 218 847T277 873Q303 873 321 862T355 839T383 828Q397 828 407 838T418 871H475Q471
812 446 785T386 758Z" />
<glyph unicode="&#xd2;" horiz-adv-x="760" d="M380 -12Q277 -12 200 33T80 160T37 350Q37 457 80 538T200 666T380 712Q484 712 561 666T680 539T723 350Q723 242 681 161T561 34T380 -12ZM380 49Q461 49 522 85T617 188T651 350Q651 444 617 511T522 614T380
650Q300 650 239 614T143 511T109 350Q109 256 143 189T238 85T380 49ZM341 762L221 941H298L395 762H341Z" />
<glyph unicode="&#xd3;" horiz-adv-x="760" d="M380 -12Q277 -12 200 33T80 160T37 350Q37 457 80 538T200 666T380 712Q484 712 561 666T680 539T723 350Q723 242 681 161T561 34T380 -12ZM380 49Q461 49 522 85T617 188T651 350Q651 444 617 511T522 614T380
650Q300 650 239 614T143 511T109 350Q109 256 143 189T238 85T380 49ZM365 762L462 941H539L419 762H365Z" />
<glyph unicode="&#xd4;" horiz-adv-x="760" d="M380 -12Q277 -12 200 33T80 160T37 350Q37 457 80 538T200 666T380 712Q484 712 561 666T680 539T723 350Q723 242 681 161T561 34T380 -12ZM380 49Q461 49 522 85T617 188T651 350Q651 444 617 511T522 614T380
650Q300 650 239 614T143 511T109 350Q109 256 143 189T238 85T380 49ZM246 758V835L380 917L514 835V758L380 842L246 758Z" />
<glyph unicode="&#xd5;" horiz-adv-x="760" d="M380 -12Q277 -12 200 33T80 160T37 350Q37 457 80 538T200 666T380 712Q484 712 561 666T680 539T723 350Q723 242 681 161T561 34T380 -12ZM380 49Q461 49 522 85T617 188T651 350Q651 444 617 511T522 614T380
650Q300 650 239 614T143 511T109 350Q109 256 143 189T238 85T380 49ZM424 758Q398 758 379 769T345 791T318 803Q305 803 296 793T285 760H227Q233 821 256 847T315 873Q341 873 359 862T393 839T421 828Q435 828 445 838T456 871H513Q509 812 484 785T424 758Z"
/>
<glyph unicode="&#xd6;" horiz-adv-x="760" d="M380 -12Q277 -12 200 33T80 160T37 350Q37 457 80 538T200 666T380 712Q484 712 561 666T680 539T723 350Q723 242 681 161T561 34T380 -12ZM380 49Q461 49 522 85T617 188T651 350Q651 444 617 511T522 614T380
650Q300 650 239 614T143 511T109 350Q109 256 143 189T238 85T380 49ZM406 801V904H502V801H406ZM257 801V904H353V801H257Z" />
<glyph unicode="&#xd7;" horiz-adv-x="590" d="M152 162L107 207L438 538L483 493L152 162ZM434 168L113 489L156 532L477 211L434 168Z" />
<glyph unicode="&#xd8;" horiz-adv-x="787" d="M380 -12Q277 -12 200 33T80 160T37 350Q37 457 80 538T200 666T380 712Q484 712 561 666T680 539T723 350Q723 242 681 161T561 34T380 -12ZM42 0L666 700H745L122 0H42ZM380 49Q461 49 522 85T617 188T651 350Q651
444 617 511T522 614T380 650Q300 650 239 614T143 511T109 350Q109 256 143 189T238 85T380 49Z" />
<glyph unicode="&#xd9;" horiz-adv-x="634" d="M317 -12Q246 -12 189 16T97 103T63 255V700H133V254Q133 145 184 98T318 50Q400 50 450 97T501 254V700H571V255Q571 163 537 104T446 16T317 -12ZM277 762L157 941H234L331 762H277Z" />
<glyph unicode="&#xda;" horiz-adv-x="634" d="M317 -12Q246 -12 189 16T97 103T63 255V700H133V254Q133 145 184 98T318 50Q400 50 450 97T501 254V700H571V255Q571 163 537 104T446 16T317 -12ZM301 762L398 941H475L355 762H301Z" />
<glyph unicode="&#xdb;" horiz-adv-x="634" d="M317 -12Q246 -12 189 16T97 103T63 255V700H133V254Q133 145 184 98T318 50Q400 50 450 97T501 254V700H571V255Q571 163 537 104T446 16T317 -12ZM182 758V835L316 917L450 835V758L316 842L182 758Z" />
<glyph unicode="&#xdc;" horiz-adv-x="634" d="M317 -12Q246 -12 189 16T97 103T63 255V700H133V254Q133 145 184 98T318 50Q400 50 450 97T501 254V700H571V255Q571 163 537 104T446 16T317 -12ZM342 801V904H438V801H342ZM193 801V904H289V801H193Z" />
<glyph unicode="&#xdd;" horiz-adv-x="642" d="M287 0V272L51 700H129L338 304H306L514 700H591L357 272V0H287ZM306 762L403 941H480L360 762H306Z" />
<glyph unicode="&#xde;" horiz-adv-x="589" d="M78 0V700H148V551H299Q380 551 432 525T510 453T535 350Q535 294 510 249T433 177T299 150H148V0H78ZM148 210H299Q388 210 425 248T463 350Q463 418 426 455T299 492H148V210Z" />
<glyph unicode="&#xdf;" horiz-adv-x="579" d="M70 0V524Q70 579 97 621T171 687T276 712Q338 712 384 689T457 626T483 540Q483 490 456 445T366 385L341 410Q432 400 483 345T535 206Q535 151 510 104T433 29T300 0H204V61H300Q354 61 390 78T446 129T465 210Q465
252 443 283T376 332T262 350H215V411H258Q331 411 371 444T411 529Q411 582 376 616T276 650Q218 650 179 614T140 505V0H70Z" />
<glyph unicode="&#xe0;" horiz-adv-x="555" d="M221 -12Q159 -12 118 9T57 64T37 137Q37 219 96 262T253 305Q294 305 330 299T389 284V305Q389 375 354 411T257 448Q205 448 168 427T121 354H48Q54 408 85 442T161 492T257 508Q360 508 409 452T459 305V138Q459
102 463 86T479 67T511 63H519V0H504Q458 0 429 17T391 86Q369 45 329 17T221 -12ZM228 48Q278 48 314 74T369 141T389 227Q365 234 330 240T258 246Q176 246 142 215T108 139Q108 100 139 74T228 48ZM215 558L95 737H172L269 558H215Z" />
<glyph unicode="&#xe1;" horiz-adv-x="555" d="M221 -12Q159 -12 118 9T57 64T37 137Q37 219 96 262T253 305Q294 305 330 299T389 284V305Q389 375 354 411T257 448Q205 448 168 427T121 354H48Q54 408 85 442T161 492T257 508Q360 508 409 452T459 305V138Q459
102 463 86T479 67T511 63H519V0H504Q458 0 429 17T391 86Q369 45 329 17T221 -12ZM228 48Q278 48 314 74T369 141T389 227Q365 234 330 240T258 246Q176 246 142 215T108 139Q108 100 139 74T228 48ZM239 558L336 737H413L293 558H239Z" />
<glyph unicode="&#xe2;" horiz-adv-x="555" d="M221 -12Q159 -12 118 9T57 64T37 137Q37 219 96 262T253 305Q294 305 330 299T389 284V305Q389 375 354 411T257 448Q205 448 168 427T121 354H48Q54 408 85 442T161 492T257 508Q360 508 409 452T459 305V138Q459
102 463 86T479 67T511 63H519V0H504Q458 0 429 17T391 86Q369 45 329 17T221 -12ZM228 48Q278 48 314 74T369 141T389 227Q365 234 330 240T258 246Q176 246 142 215T108 139Q108 100 139 74T228 48ZM120 554V631L254 713L388 631V554L254 638L120 554Z" />
<glyph unicode="&#xe3;" horiz-adv-x="555" d="M221 -12Q159 -12 118 9T57 64T37 137Q37 219 96 262T253 305Q294 305 330 299T389 284V305Q389 375 354 411T257 448Q205 448 168 427T121 354H48Q54 408 85 442T161 492T257 508Q360 508 409 452T459 305V138Q459
102 463 86T479 67T511 63H519V0H504Q458 0 429 17T391 86Q369 45 329 17T221 -12ZM228 48Q278 48 314 74T369 141T389 227Q365 234 330 240T258 246Q176 246 142 215T108 139Q108 100 139 74T228 48ZM298 554Q272 554 253 565T219 587T192 599Q179 599 170 589T159
556H101Q107 617 130 643T189 669Q215 669 233 658T267 635T295 624Q309 624 319 634T330 667H387Q383 608 358 581T298 554Z" />
<glyph unicode="&#xe4;" horiz-adv-x="555" d="M221 -12Q159 -12 118 9T57 64T37 137Q37 219 96 262T253 305Q294 305 330 299T389 284V305Q389 375 354 411T257 448Q205 448 168 427T121 354H48Q54 408 85 442T161 492T257 508Q360 508 409 452T459 305V138Q459
102 463 86T479 67T511 63H519V0H504Q458 0 429 17T391 86Q369 45 329 17T221 -12ZM228 48Q278 48 314 74T369 141T389 227Q365 234 330 240T258 246Q176 246 142 215T108 139Q108 100 139 74T228 48ZM280 597V700H376V597H280ZM131 597V700H227V597H131Z" />
<glyph unicode="&#xe5;" horiz-adv-x="555" d="M221 -12Q159 -12 118 9T57 64T37 137Q37 219 96 262T253 305Q294 305 330 299T389 284V305Q389 375 354 411T257 448Q205 448 168 427T121 354H48Q54 408 85 442T161 492T257 508Q360 508 409 452T459 305V138Q459
102 463 86T479 67T511 63H519V0H504Q458 0 429 17T391 86Q369 45 329 17T221 -12ZM228 48Q278 48 314 74T369 141T389 227Q365 234 330 240T258 246Q176 246 142 215T108 139Q108 100 139 74T228 48ZM254 560Q213 560 183 587T152 660Q152 707 182 733T254 760Q297
760 326 734T356 660Q356 614 327 587T254 560ZM254 611Q274 611 287 624T301 660Q301 683 288 696T254 709Q235 709 222 696T208 660Q208 638 221 625T254 611Z" />
<glyph unicode="&#xe6;" horiz-adv-x="900" d="M221 -12Q159 -12 118 9T57 66T37 142Q37 220 96 258T248 297H387V305Q387 375 351 411T258 448Q210 448 174 422T128 344H54Q60 398 90 434T166 489T258 508Q323 508 368 482T435 411Q467 458 516 483T626 508Q696
508 745 476T822 392T849 283Q849 273 849 262T848 237H457Q459 173 484 131T547 69T624 48Q684 48 721 78T775 161H842Q830 112 801 73T728 11T624 -12Q558 -12 504 20T420 111Q391 59 342 24T221 -12ZM223 50Q268 50 305 74T365 137T387 224V237H253Q175 237
142 211T109 144Q109 102 139 76T223 50ZM458 297H781Q777 368 732 408T625 448Q584 448 548 431T487 380T458 297Z" />
<glyph unicode="&#xe7;" horiz-adv-x="548" d="M281 -12Q212 -12 157 20T69 111T36 248Q36 327 68 385T156 475T281 508Q368 508 426 463T501 344H431Q420 394 379 421T281 448Q237 448 197 426T133 359T108 248Q108 182 132 138T197 71T281 48Q337 48 378 75T431
152H501Q486 80 427 34T281 -12ZM178 -259V-212H264Q302 -212 319 -199T336 -161Q336 -138 319 -126T264 -113H217Q211 -113 211 -107Q211 -104 212 -102L258 6H307L267 -68Q269 -68 271 -68T276 -68Q331 -68 363 -92T395 -161Q395 -191 381 -213T340 -247T278
-259H178Z" />
<glyph unicode="&#xe8;" horiz-adv-x="557" d="M276 -12Q206 -12 152 20T67 111T36 249Q36 328 66 386T152 476T278 508Q350 508 401 476T479 391T506 279Q506 269 506 258T505 233H90V293H438Q435 366 389 407T275 448Q230 448 191 428T128 370T104 274V247Q104
180 129 136T193 70T276 48Q332 48 370 74T424 146H492Q480 101 451 65T378 9T276 -12ZM243 558L123 737H200L297 558H243Z" />
<glyph unicode="&#xe9;" horiz-adv-x="557" d="M276 -12Q206 -12 152 20T67 111T36 249Q36 328 66 386T152 476T278 508Q350 508 401 476T479 391T506 279Q506 269 506 258T505 233H90V293H438Q435 366 389 407T275 448Q230 448 191 428T128 370T104 274V247Q104
180 129 136T193 70T276 48Q332 48 370 74T424 146H492Q480 101 451 65T378 9T276 -12ZM267 558L364 737H441L321 558H267Z" />
<glyph unicode="&#xea;" horiz-adv-x="557" d="M276 -12Q206 -12 152 20T67 111T36 249Q36 328 66 386T152 476T278 508Q350 508 401 476T479 391T506 279Q506 269 506 258T505 233H90V293H438Q435 366 389 407T275 448Q230 448 191 428T128 370T104 274V247Q104
180 129 136T193 70T276 48Q332 48 370 74T424 146H492Q480 101 451 65T378 9T276 -12ZM148 554V631L282 713L416 631V554L282 638L148 554Z" />
<glyph unicode="&#xeb;" horiz-adv-x="557" d="M276 -12Q206 -12 152 20T67 111T36 249Q36 328 66 386T152 476T278 508Q350 508 401 476T479 391T506 279Q506 269 506 258T505 233H90V293H438Q435 366 389 407T275 448Q230 448 191 428T128 370T104 274V247Q104
180 129 136T193 70T276 48Q332 48 370 74T424 146H492Q480 101 451 65T378 9T276 -12ZM308 597V700H404V597H308ZM159 597V700H255V597H159Z" />
<glyph unicode="&#xec;" horiz-adv-x="210" d="M70 0V496H140V0H70ZM68 562L-12 737H65L123 562H68Z" />
<glyph unicode="&#xed;" horiz-adv-x="210" d="M70 0V496H140V0H70ZM87 562L145 737H222L142 562H87Z" />
<glyph unicode="&#xee;" horiz-adv-x="210" d="M70 0V496H140V0H70ZM6 559V637L105 713L204 637V559L105 638L6 559Z" />
<glyph unicode="&#xef;" horiz-adv-x="210" d="M70 0V496H140V0H70ZM127 597V700H203V597H127ZM6 597V700H82V597H6Z" />
<glyph unicode="&#xf0;" horiz-adv-x="589" d="M291 -12Q216 -12 157 23T65 117T31 247Q31 323 65 382T157 474T287 508Q325 508 364 497T436 461T489 393L483 395Q458 478 408 552T267 700H339Q410 642 458 575T530 432T555 266Q555 185 520 122T426 24T291 -12ZM293
47Q343 47 386 71T457 141T484 249Q484 310 457 355T387 424T293 449Q243 449 200 425T129 355T102 249Q102 187 129 142T199 72T293 47ZM231 555V606L517 708V657L231 555Z" />
<glyph unicode="&#xf1;" horiz-adv-x="569" d="M69 0V496H139V410Q164 456 209 482T309 508Q395 508 448 456T501 293V0H431V285Q431 367 397 407T297 447Q229 447 184 398T139 257V0H69ZM344 554Q318 554 299 565T265 587T238 599Q225 599 216 589T205 556H147Q153
617 176 643T235 669Q261 669 279 658T313 635T341 624Q355 624 365 634T376 667H433Q429 608 404 581T344 554Z" />
<glyph unicode="&#xf2;" horiz-adv-x="576" d="M287 -12Q215 -12 158 20T69 110T36 248Q36 328 69 386T159 476T289 508Q362 508 418 476T507 386T540 248Q540 169 507 111T417 20T287 -12ZM287 48Q336 48 377 70T443 137T468 248Q468 315 444 359T378 425T289
448Q241 448 200 426T133 359T108 248Q108 182 133 138T198 71T287 48ZM249 558L129 737H206L303 558H249Z" />
<glyph unicode="&#xf3;" horiz-adv-x="576" d="M287 -12Q215 -12 158 20T69 110T36 248Q36 328 69 386T159 476T289 508Q362 508 418 476T507 386T540 248Q540 169 507 111T417 20T287 -12ZM287 48Q336 48 377 70T443 137T468 248Q468 315 444 359T378 425T289
448Q241 448 200 426T133 359T108 248Q108 182 133 138T198 71T287 48ZM273 558L370 737H447L327 558H273Z" />
<glyph unicode="&#xf4;" horiz-adv-x="576" d="M287 -12Q215 -12 158 20T69 110T36 248Q36 328 69 386T159 476T289 508Q362 508 418 476T507 386T540 248Q540 169 507 111T417 20T287 -12ZM287 48Q336 48 377 70T443 137T468 248Q468 315 444 359T378 425T289
448Q241 448 200 426T133 359T108 248Q108 182 133 138T198 71T287 48ZM154 554V631L288 713L422 631V554L288 638L154 554Z" />
<glyph unicode="&#xf5;" horiz-adv-x="576" d="M287 -12Q215 -12 158 20T69 110T36 248Q36 328 69 386T159 476T289 508Q362 508 418 476T507 386T540 248Q540 169 507 111T417 20T287 -12ZM287 48Q336 48 377 70T443 137T468 248Q468 315 444 359T378 425T289
448Q241 448 200 426T133 359T108 248Q108 182 133 138T198 71T287 48ZM332 554Q306 554 287 565T253 587T226 599Q213 599 204 589T193 556H135Q141 617 164 643T223 669Q249 669 267 658T301 635T329 624Q343 624 353 634T364 667H421Q417 608 392 581T332 554Z"
/>
<glyph unicode="&#xf6;" horiz-adv-x="576" d="M287 -12Q215 -12 158 20T69 110T36 248Q36 328 69 386T159 476T289 508Q362 508 418 476T507 386T540 248Q540 169 507 111T417 20T287 -12ZM287 48Q336 48 377 70T443 137T468 248Q468 315 444 359T378 425T289
448Q241 448 200 426T133 359T108 248Q108 182 133 138T198 71T287 48ZM314 597V700H410V597H314ZM165 597V700H261V597H165Z" />
<glyph unicode="&#xf7;" horiz-adv-x="590" d="M68 320V380H522V320H68ZM249 116V209H341V116H249ZM249 491V584H341V491H249Z" />
<glyph unicode="&#xf8;" horiz-adv-x="567" d="M283 -12Q214 -12 159 20T71 110T38 248Q38 328 71 386T160 476T285 508Q355 508 410 476T497 386T530 248Q530 169 497 111T409 20T283 -12ZM32 0L464 496H536L105 0H32ZM283 48Q329 48 368 70T433 137T458 248Q458
315 434 359T370 425T285 448Q240 448 200 426T135 359T110 248Q110 182 134 138T198 71T283 48Z" />
<glyph unicode="&#xf9;" horiz-adv-x="538" d="M246 -12Q167 -12 116 40T64 203V496H134V211Q134 129 167 89T258 49Q326 49 366 98T406 239V496H476V0H406V84Q384 38 342 13T246 -12ZM237 558L117 737H194L291 558H237Z" />
<glyph unicode="&#xfa;" horiz-adv-x="538" d="M246 -12Q167 -12 116 40T64 203V496H134V211Q134 129 167 89T258 49Q326 49 366 98T406 239V496H476V0H406V84Q384 38 342 13T246 -12ZM261 558L358 737H435L315 558H261Z" />
<glyph unicode="&#xfb;" horiz-adv-x="538" d="M246 -12Q167 -12 116 40T64 203V496H134V211Q134 129 167 89T258 49Q326 49 366 98T406 239V496H476V0H406V84Q384 38 342 13T246 -12ZM142 554V631L276 713L410 631V554L276 638L142 554Z" />
<glyph unicode="&#xfc;" horiz-adv-x="538" d="M246 -12Q167 -12 116 40T64 203V496H134V211Q134 129 167 89T258 49Q326 49 366 98T406 239V496H476V0H406V84Q384 38 342 13T246 -12ZM302 597V700H398V597H302ZM153 597V700H249V597H153Z" />
<glyph unicode="&#xfd;" horiz-adv-x="590" d="M53 -220V-160H151Q165 -160 174 -155T192 -134T216 -85L279 53L270 11L52 496H128L300 98L483 496H555L283 -98Q264 -140 251 -164T227 -201T202 -216T167 -220H53ZM289 558L386 737H463L343 558H289Z" />
<glyph unicode="&#xfe;" horiz-adv-x="605" d="M66 -220V720H136V410Q160 448 206 478T323 508Q398 508 453 474T538 381T569 247Q569 172 539 114T453 22T322 -12Q259 -12 211 14T136 88V-220H66ZM319 49Q372 49 412 74T475 143T498 248Q498 308 475 353T412
422T319 447Q267 447 227 423T163 353T140 248Q140 188 163 144T226 74T319 49Z" />
<glyph unicode="&#xff;" horiz-adv-x="590" d="M53 -220V-160H151Q165 -160 174 -155T192 -134T216 -85L279 53L270 11L52 496H128L300 98L483 496H555L283 -98Q264 -140 251 -164T227 -201T202 -216T167 -220H53ZM330 597V700H426V597H330ZM181 597V700H277V597H181Z" />
<glyph unicode="&#x2013;" horiz-adv-x="691" d="M86 261V320H605V261H86Z" />
<glyph unicode="&#x2014;" horiz-adv-x="855" d="M68 261V320H787V261H68Z" />
<glyph unicode="&#x2018;" horiz-adv-x="266" d="M60 484L147 700H198L141 484H60Z" />
<glyph unicode="&#x2019;" horiz-adv-x="266" d="M60 484L118 700H199L111 484H60Z" />
<glyph unicode="&#x201a;" horiz-adv-x="235" d="M41 -124L99 92H180L92 -124H41Z" />
<glyph unicode="&#x201c;" horiz-adv-x="438" d="M231 484L319 700H370L312 484H231ZM60 484L147 700H198L141 484H60Z" />
<glyph unicode="&#x201d;" horiz-adv-x="438" d="M246 484L304 700H385L297 484H246ZM61 484L119 700H200L112 484H61Z" />
<glyph unicode="&#x201e;" horiz-adv-x="437" d="M77 -124L135 92H216L128 -124H77ZM225 -124L282 92H363L276 -124H225Z" />
<glyph unicode="&#x2022;" horiz-adv-x="351" d="M175 218Q144 218 118 233T76 275T60 333Q60 366 75 392T117 433T175 449Q208 449 234 434T275 392T291 333Q291 301 276 275T234 234T175 218Z" />
<glyph unicode="&#x2039;" horiz-adv-x="280" d="M169 120L40 295L169 470H245L113 295L245 120H169Z" />
<glyph unicode="&#x203a;" horiz-adv-x="280" d="M35 120L167 295L35 470H111L240 295L111 120H35Z" />
</font>
</defs>
</svg>
