<?xml version="1.0" standalone="no"?>
<!DOCTYPE svg PUBLIC "-//W3C//DTD SVG 1.1//EN" "http://www.w3.org/Graphics/SVG/1.1/DTD/svg11.dtd">
<svg xmlns="http://www.w3.org/2000/svg">
<defs >
<font id="HostGrotesk" horiz-adv-x="537" ><font-face
    font-family="Host Grotesk Light"
    units-per-em="1000"
    panose-1="2 11 5 4 3 4 2 0 2 3"
    ascent="1015"
    descent="-315"
    alphabetic="0" />
<glyph unicode=" " horiz-adv-x="307" />
<glyph unicode="!" horiz-adv-x="276" d="M90 188L152 700H249L166 188H90ZM42 0L58 119H180L164 0H42Z" />
<glyph unicode="&quot;" horiz-adv-x="347" d="M119 557L136 755H219L181 557H119ZM253 557L270 755H353L316 557H253Z" />
<glyph unicode="#" horiz-adv-x="800" d="M100 0L349 708H434L183 0H100ZM396 0L648 708H732L481 0H396ZM104 436L115 515H800L789 436H104ZM26 194L36 273H721L711 194H26Z" />
<glyph unicode="$" horiz-adv-x="650" d="M289 -12Q234 -12 187 3T107 47T57 120T46 218H133Q130 162 151 127T212 76T300 60Q356 60 399 78T466 131T491 213Q491 246 471 270T400 304L258 330Q192 341 152 383T112 485Q112 550 149 601T249 682T385 712Q453 712
503 689T581 619T604 503H516Q518 551 501 581T451 626T375 640Q328 640 287 624T221 576T196 501Q196 466 222 442T292 410L426 386Q500 373 538 333T576 229Q576 173 553 129T489 53T397 5T289 -12ZM243 -87L367 791H424L300 -87H243Z" />
<glyph unicode="%" horiz-adv-x="859" d="M145 0L648 700H737L235 0H145ZM234 372Q188 372 155 392T105 451T96 542Q104 594 130 632T197 690T283 711Q328 711 361 691T411 632T419 542Q412 490 385 452T319 393T234 372ZM243 440Q278 440 307 465T344 542Q351
593 330 618T273 644Q239 644 209 619T172 542Q165 491 187 466T243 440ZM607 -12Q561 -12 528 8T478 67T469 157Q477 210 503 248T570 306T655 327Q701 327 734 307T783 248T792 157Q785 106 758 68T692 9T607 -12ZM616 56Q650 56 680 81T716 157Q724 209 703
234T646 260Q612 260 582 235T544 157Q538 107 559 82T616 56Z" />
<glyph unicode="&amp;" horiz-adv-x="707" d="M542 0L169 632L178 700H587L576 624H217L259 650L642 0H542ZM270 -5Q198 -5 146 22T69 100T53 219Q68 321 141 377T325 433H351L355 366H323Q252 366 202 327T142 219Q132 150 171 110T278 70Q327 70 368 89T443
141T503 217T549 310T579 410H664Q650 345 624 284T561 170T480 78T381 17T270 -5Z" />
<glyph unicode="&apos;" horiz-adv-x="200" d="M113 557L128 755H215L175 557H113Z" />
<glyph unicode="(" horiz-adv-x="385" d="M198 -145Q121 -56 83 64T66 333Q80 432 117 518T209 678T332 811H423Q361 752 315 694T236 578T184 459T155 333Q146 268 148 208T167 89T213 -28T289 -145H198Z" />
<glyph unicode=")" horiz-adv-x="385" d="M75 -145H-16Q47 -86 94 -28T173 88T226 207T255 333Q264 398 262 458T244 577T199 694T123 811H214Q292 722 329 602T344 333Q330 234 293 148T200 -12T75 -145Z" />
<glyph unicode="*" horiz-adv-x="462" d="M182 373L128 411L208 513H86L97 582H218L167 684L230 722L285 612L372 722L426 684L346 582H467L457 513H336L387 411L324 373L269 483L182 373Z" />
<glyph unicode="+" horiz-adv-x="590" d="M236 116L302 584H382L316 116H236ZM77 312L87 388H541L531 312H77Z" />
<glyph unicode="," horiz-adv-x="222" d="M-7 -157L3 -80H29Q43 -80 52 -72T64 -48L70 -6H23L39 114H164L141 -48Q135 -94 104 -125T20 -157H-7Z" />
<glyph unicode="-" horiz-adv-x="490" d="M330 312L340 388H794L784 312H330Z" />
<glyph unicode="." horiz-adv-x="224" d="M43 0L59 119H181L165 0H43Z" />
<glyph unicode="/" horiz-adv-x="470" d="M-18 -97L355 766H444L70 -97H-18Z" />
<glyph unicode="0" horiz-adv-x="650" d="M288 -12Q199 -12 144 32T68 158T62 350Q78 461 121 542T233 667T390 712Q480 712 535 668T611 542T616 350Q601 239 557 158T446 33T288 -12ZM300 68Q395 68 450 141T524 350Q543 484 508 558T378 632Q284 632 229 558T154
350Q135 215 170 142T300 68Z" />
<glyph unicode="1" horiz-adv-x="650" d="M278 38L350 539H166L176 605L319 616Q338 618 351 628T366 658L372 700H460L367 38H278ZM67 0L78 75H562L552 0H67Z" />
<glyph unicode="2" horiz-adv-x="650" d="M45 0L52 43Q66 130 98 186T181 278T296 343L352 367Q421 397 459 427T505 511Q510 543 500 571T462 617T382 635Q332 635 296 615T239 563T211 490H127Q138 561 175 610T270 686T395 712Q460 712 507 690T578 623T592
515Q582 441 531 391T397 302L304 261Q247 236 214 207T166 145T146 75H541L531 0H45Z" />
<glyph unicode="3" horiz-adv-x="650" d="M293 -12Q222 -12 169 12T88 86T70 209H158Q153 170 168 138T217 86T304 66Q381 66 426 105T478 202Q486 249 466 279T406 324T317 339H263L273 414H328Q399 414 444 444T498 529Q504 575 475 604T383 634Q321 634 280
601T227 516H138Q149 575 184 618T273 687T394 712Q466 712 511 688T575 624T587 535Q579 482 542 438T444 380Q506 367 542 321T567 201Q559 143 525 95T432 18T293 -12Z" />
<glyph unicode="4" horiz-adv-x="650" d="M356 0L376 148H19L28 217L440 700H537L472 226H571L560 148H460L439 0H356ZM386 186L449 641L471 634L98 192L87 226H428L386 186Z" />
<glyph unicode="5" horiz-adv-x="650" d="M289 -12Q217 -12 168 14T94 86T69 190H156Q159 134 198 100T301 65Q349 65 387 87T451 149T482 237Q492 312 456 359T352 406Q296 406 252 381T182 316H100L213 700H582L571 621H269L190 378L187 401Q213 435 260 458T371
481Q441 481 487 449T555 362T567 238Q558 169 521 113T425 22T289 -12Z" />
<glyph unicode="6" horiz-adv-x="650" d="M304 -12Q229 -12 181 17T108 93T77 201T80 323Q96 439 140 526T252 663T405 712Q472 712 515 686T580 616T600 518H518Q517 575 484 605T393 635Q337 635 289 598T208 485T159 292L156 316Q173 351 206 381T284 430T382
449Q441 449 489 421T563 342T579 223Q572 178 550 137T492 61T408 8T304 -12ZM310 67Q357 67 395 86T459 140T491 219Q501 289 462 330T352 371Q306 371 266 351T201 296T170 219Q163 174 179 140T230 87T310 67Z" />
<glyph unicode="7" horiz-adv-x="650" d="M129 0L525 623H119L130 700H626L616 631L221 0H129Z" />
<glyph unicode="8" horiz-adv-x="650" d="M284 -12Q212 -12 158 13T78 84T59 191Q65 233 87 270T145 335T224 373Q170 393 145 435T126 526Q133 577 166 619T255 686T385 712Q459 712 507 687T578 619T593 526Q586 477 549 435T452 373Q512 356 543 306T565 191Q557
130 517 85T417 14T284 -12ZM294 66Q377 66 423 101T478 197Q487 264 448 297T332 331Q256 331 207 298T148 197Q139 136 175 101T294 66ZM342 404Q410 404 453 435T505 519Q513 577 479 606T375 635Q306 635 263 606T211 519Q205 467 239 436T342 404Z" />
<glyph unicode="9" horiz-adv-x="650" d="M375 712Q450 712 498 684T571 607T602 499T599 377Q583 261 539 174T427 37T274 -12Q208 -12 164 14T99 85T79 182H161Q163 126 196 96T286 65Q342 65 390 102T472 215T520 408L523 384Q506 350 473 320T395 270T297
251Q238 251 190 279T116 358T100 477Q107 522 129 563T187 639T271 692T375 712ZM369 633Q322 633 284 614T220 560T188 481Q179 411 218 370T327 329Q374 329 413 350T478 405T509 481Q516 526 500 560T450 614T369 633Z" />
<glyph unicode=":" horiz-adv-x="224" d="M272 0L288 119H410L394 0H272ZM69 377L85 496H207L191 377H69Z" />
<glyph unicode=";" horiz-adv-x="222" d="M68 377L84 496H206L190 377H68ZM244 -157L254 -80H280Q294 -80 303 -72T315 -48L321 -6H274L290 114H415L392 -48Q386 -94 355 -125T271 -157H244Z" />
<glyph unicode="&lt;" horiz-adv-x="590" d="M439 113L109 314L119 386L506 587L492 494L147 323L154 377L452 206L439 113Z" />
<glyph unicode="=" horiz-adv-x="590" d="M90 405L101 481H555L544 405H90ZM64 219L75 295H529L518 219H64Z" />
<glyph unicode="&gt;" horiz-adv-x="590" d="M113 113L127 206L472 377L465 323L167 494L180 587L510 386L500 314L113 113Z" />
<glyph unicode="?" horiz-adv-x="500" d="M165 188L173 245Q177 276 183 295T204 326T250 352L287 367Q323 382 351 401T397 446T421 509Q429 568 398 602T306 636Q243 636 202 603T153 512H68Q76 572 109 617T194 687T313 712Q379 712 425 687T494 615T507 505Q497
434 453 386T341 308L292 287Q272 278 265 269T255 237L248 188H165ZM121 0L138 119H260L243 0H121Z" />
<glyph unicode="@" horiz-adv-x="894" d="M342 -220Q244 -220 176 -181T76 -72T57 90L93 332Q103 398 134 452T215 545T329 606T466 628H557Q655 628 722 592T821 491T839 337L819 197Q804 98 765 47T657 -4Q617 -4 591 15T560 69Q541 37 499 16T398 -6Q335 -6
295 21T239 96T231 202Q240 263 270 311T348 388T461 416Q501 416 535 398T585 352L593 409H668L630 133Q626 105 636 88T671 71Q703 71 716 99T738 195L759 335Q768 400 745 449T670 525T545 552H453Q379 552 320 525T223 449T176 334L141 92Q131 22 154 -32T229
-116T355 -147H529L518 -220H342ZM418 58Q478 58 517 97T566 202Q577 269 548 310T456 352Q398 352 358 312T306 206Q296 139 327 99T418 58Z" />
<glyph unicode="A" horiz-adv-x="674" d="M-4 0L352 700H449L608 0H513L373 645H413L92 0H-4ZM140 178L175 250H496L512 178H140Z" />
<glyph unicode="B" horiz-adv-x="597" d="M35 0L133 700H390Q464 700 509 676T574 612T585 520Q578 467 550 431T481 376T399 354L413 364Q458 363 493 340T545 277T555 189Q548 136 516 93T429 25T301 0H35ZM135 75H300Q370 75 413 108T464 200Q472 257 438 290T334
324H170L135 75ZM180 395H339Q405 395 444 426T492 513Q499 564 470 595T372 626H212L180 395Z" />
<glyph unicode="C" horiz-adv-x="705" d="M335 -12Q232 -12 163 34T65 162T51 352Q65 459 117 540T250 666T433 712Q556 712 624 654T698 490H599Q593 555 550 593T425 632Q352 632 292 598T193 500T142 348Q130 260 150 197T220 101T343 68Q426 68 481 105T562
213H663Q625 106 541 47T335 -12Z" />
<glyph unicode="D" horiz-adv-x="685" d="M35 0L133 700H350Q474 700 547 658T648 536T661 347Q646 240 597 162T462 42T253 0H35ZM135 76H260Q360 76 424 109T523 203T570 351Q582 436 565 497T493 592T339 625H212L135 76Z" />
<glyph unicode="E" horiz-adv-x="539" d="M35 0L133 700H569L558 626H213L179 389H495L485 317H169L136 73H481L471 0H35Z" />
<glyph unicode="F" horiz-adv-x="523" d="M35 0L133 700H563L552 626H212L179 387H466L456 315H169L125 0H35Z" />
<glyph unicode="G" horiz-adv-x="733" d="M348 -12Q239 -12 167 33T63 160T47 346Q63 455 116 537T251 666T438 712Q557 712 628 655T709 495H606Q601 557 555 593T431 629Q354 629 293 595T192 496T138 340Q127 256 149 195T225 101T355 68Q459 68 527 130T615
303L400 302L410 376H715L710 339Q696 226 645 148T518 29T348 -12Z" />
<glyph unicode="H" horiz-adv-x="675" d="M35 0L133 700H223L125 0H35ZM153 320L163 393H558L547 320H153ZM482 0L580 700H670L572 0H482Z" />
<glyph unicode="I" horiz-adv-x="234" d="M38 0L136 700H226L128 0H38Z" />
<glyph unicode="J" horiz-adv-x="401" d="M108 0H-15L-4 80H118Q179 80 208 114T244 201L314 700H404L334 199Q320 103 261 52T108 0Z" />
<glyph unicode="K" horiz-adv-x="630" d="M35 0L133 700H223L179 388L518 700H631L345 434L556 0H452L275 366L163 270L125 0H35Z" />
<glyph unicode="L" horiz-adv-x="521" d="M35 0L133 700H223L134 72H459L448 0H35Z" />
<glyph unicode="M" horiz-adv-x="855" d="M41 0L139 700H244L427 80L384 78L738 700H844L745 0H655L742 612L773 603L429 0H360L183 603L216 612L131 0H41Z" />
<glyph unicode="N" horiz-adv-x="691" d="M38 0L136 700H225L515 149L593 700H683L584 0H494L205 552L127 0H38Z" />
<glyph unicode="O" horiz-adv-x="760" d="M355 -12Q274 -12 212 17T109 97T54 216T49 360Q64 463 118 542T253 667T433 712Q516 712 578 683T679 602T734 482T739 337Q728 261 695 197T610 87T494 14T355 -12ZM363 68Q434 68 494 101T594 196T648 341Q660 425
637 490T560 594T426 632Q355 632 295 599T195 504T142 356Q130 273 152 208T229 106T363 68Z" />
<glyph unicode="P" horiz-adv-x="589" d="M35 0L133 700H366Q449 700 498 673T567 599T578 492Q570 436 539 390T451 317T310 289H165L125 0H35ZM176 364H316Q398 364 437 399T486 496Q496 558 466 591T355 625H213L176 364Z" />
<glyph unicode="Q" horiz-adv-x="789" d="M646 0Q628 0 617 5T594 24L405 269L468 318L643 93Q651 83 657 81T679 79H732L720 0H646ZM355 -12Q274 -12 212 17T109 97T54 216T49 360Q64 463 118 542T253 667T433 712Q516 712 578 683T679 602T734 482T739 337Q728
261 695 197T610 87T494 14T355 -12ZM363 68Q434 68 494 101T594 196T648 341Q660 425 637 490T560 594T426 632Q355 632 295 599T195 504T142 356Q130 273 152 208T229 106T363 68Z" />
<glyph unicode="R" horiz-adv-x="640" d="M35 0L134 700H411Q493 700 541 672T609 597T620 491Q613 438 584 394T504 322Q547 297 562 254T573 150L560 0H472L484 145Q488 193 479 224T442 270T359 285H165L125 0H35ZM176 358H356Q435 358 478 396T528 495Q536
555 506 590T395 625H213L176 358Z" />
<glyph unicode="S" horiz-adv-x="607" d="M286 -12Q232 -12 185 2T104 46T52 119T39 223H124Q119 173 141 138T203 85T293 66Q341 66 379 82T441 129T465 203Q465 274 378 301L263 335Q192 356 153 393T114 492Q114 558 148 607T240 684T365 711Q433 711 485 688T566
617T589 499H503Q505 546 486 575T432 619T355 634Q314 634 279 619T222 577T199 511Q197 443 293 414L413 378Q484 356 517 315T551 216Q551 162 531 120T474 48T389 4T286 -12Z" />
<glyph unicode="T" horiz-adv-x="587" d="M214 0L303 626H93L104 700H610L600 626H393L304 0H214Z" />
<glyph unicode="U" horiz-adv-x="634" d="M282 -12Q209 -12 154 17T71 107T57 261L118 700H208L146 253Q137 190 152 150T203 89T291 69Q369 69 423 114T491 260L553 700H643L581 259Q568 166 524 106T418 17T282 -12Z" />
<glyph unicode="V" horiz-adv-x="710" d="M267 0L104 700H200L333 95L639 700H734L373 0H267Z" />
<glyph unicode="W" horiz-adv-x="1012" d="M201 0L109 700H205L275 52H247L521 700H621L708 51H680L934 700H1031L737 0H634L545 610H568L303 0H201Z" />
<glyph unicode="X" horiz-adv-x="637" d="M450 0L114 700H216L552 0H450ZM17 0L300 380L343 312L119 0H17ZM368 326L325 394L547 700H650L368 326Z" />
<glyph unicode="Y" horiz-adv-x="642" d="M242 0L280 264L112 700H213L349 317H316L557 700H658L370 264L332 0H242Z" />
<glyph unicode="Z" horiz-adv-x="542" d="M11 0L20 71L440 622H104L114 700H556L546 629L126 77H472L460 0H11Z" />
<glyph unicode="[" horiz-adv-x="385" d="M21 -154L156 811H379L369 737H230L116 -79H255L244 -154H21Z" />
<glyph unicode="\" horiz-adv-x="470" d="M234 -97L104 766H193L322 -97H234Z" />
<glyph unicode="]" horiz-adv-x="385" d="M250 -154H27L38 -79H177L295 737H156L167 811H391L250 -154Z" />
<glyph unicode="^" horiz-adv-x="590" d="M121 453L319 700H397L527 453H439L349 636L209 453H121Z" />
<glyph unicode="_" horiz-adv-x="671" d="M17 -121L28 -36H560L548 -121H17Z" />
<glyph unicode="`" horiz-adv-x="400" d="M113 557L-8 742H85L180 557H113Z" />
<glyph unicode="a" horiz-adv-x="555" d="M186 -12Q102 -12 61 27T19 121Q19 176 49 217T134 280T257 303Q300 303 334 297T389 283L392 306Q402 370 373 401T288 433Q241 433 205 414T154 350H61Q75 403 110 438T194 491T295 508Q402 508 448 452T482 304L457
130Q453 96 462 87T502 78H510L499 0H477Q429 0 400 16T367 80Q338 41 294 15T186 -12ZM112 134Q112 101 136 82T207 63Q265 63 311 101T376 218Q355 225 324 230T259 236Q208 236 175 222T127 184T112 134Z" />
<glyph unicode="b" horiz-adv-x="602" d="M294 -12Q233 -12 190 13T127 81L115 0H25L126 720H217L173 416Q202 452 250 480T365 508Q438 508 488 472T561 376T573 244Q563 173 525 115T427 23T294 -12ZM290 66Q339 66 380 90T448 155T483 248Q490 299 476 340T428
405T345 430Q299 430 257 408T186 343T149 242Q143 190 158 151T207 89T290 66Z" />
<glyph unicode="c" horiz-adv-x="548" d="M254 -12Q181 -12 128 21T49 111T31 242Q37 300 61 349T124 433T210 488T310 508Q400 508 457 462T522 338H432Q425 380 391 405T303 431Q259 431 219 407T152 340T118 238Q113 190 129 151T179 89T263 66Q295 66 324
77T376 109T408 160H500Q484 107 447 68T359 9T254 -12Z" />
<glyph unicode="d" horiz-adv-x="602" d="M240 -12Q166 -12 116 24T44 120T31 252Q42 324 80 381T177 473T310 508Q372 508 415 483T477 414L520 720H611L510 0H419L431 80Q402 44 355 16T240 -12ZM259 66Q309 66 350 89T418 154T453 250Q464 331 426 380T314
430Q265 430 225 406T157 341T122 248Q115 197 129 156T178 90T259 66Z" />
<glyph unicode="e" horiz-adv-x="557" d="M245 -12Q172 -12 120 22T45 117T32 254Q44 330 83 387T181 476T312 508Q387 508 436 475T506 389T518 272Q517 261 516 251T511 228H97L106 294H433Q439 359 403 396T303 433Q262 433 224 414T159 358T123 272L119 245Q109
188 126 148T177 85T253 63Q301 63 339 86T398 150H489Q470 105 435 68T351 10T245 -12Z" />
<glyph unicode="f" horiz-adv-x="334" d="M62 0L144 583Q152 639 170 668T220 709T305 720H359L349 643H312Q284 643 268 638T245 618T233 574L152 0H62ZM48 420L59 496H328L318 420H48Z" />
<glyph unicode="g" horiz-adv-x="620" d="M238 -232Q174 -232 122 -210T40 -144T7 -40H96Q103 -92 143 -123T245 -154Q292 -154 333 -134T404 -72T441 28L451 97Q432 70 402 46T334 6T246 -9Q183 -9 134 19T57 97T29 211Q29 271 51 324T113 419T205 484T317 508Q382
508 428 479T493 409L506 496H596L530 28Q519 -54 477 -112T374 -201T238 -232ZM266 70Q323 70 367 99T438 178T464 285Q464 350 426 390T320 430Q262 430 218 400T149 321T124 215Q124 150 162 110T266 70Z" />
<glyph unicode="h" horiz-adv-x="569" d="M391 0L430 280Q440 356 416 393T331 431Q289 431 252 412T190 355T156 264L119 0H29L130 720H220L177 414Q208 458 257 483T360 508Q446 508 491 454T520 287L479 0H391Z" />
<glyph unicode="i" horiz-adv-x="212" d="M25 0L95 496H185L115 0H25ZM94 602L111 720H234L217 602H94Z" />
<glyph unicode="j" horiz-adv-x="207" d="M-111 -220L-101 -143H-54Q-17 -143 -3 -133T15 -85L97 496H186L105 -91Q98 -140 80 -168T32 -208T-46 -220H-111ZM97 602L113 720H234L217 602H97Z" />
<glyph unicode="k" horiz-adv-x="530" d="M133 166L116 242L395 496H506L133 166ZM29 0L131 720H221L119 0H29ZM363 0L197 264L261 323L464 0H363Z" />
<glyph unicode="l" horiz-adv-x="212" d="M26 0L127 720H217L116 0H26Z" />
<glyph unicode="m" horiz-adv-x="899" d="M29 0L99 496H189L179 430Q209 467 250 487T341 508Q399 508 439 484T495 412Q527 457 576 482T677 508Q768 508 814 454T845 287L804 0H714L754 280Q765 356 741 393T659 431Q619 431 586 410T529 349T498 256L461 0H371L411
280Q422 356 397 393T316 431Q258 431 213 385T155 256L119 0H29Z" />
<glyph unicode="n" horiz-adv-x="569" d="M390 0L430 280Q440 356 414 393T327 431Q265 431 217 386T155 258L119 0H29L99 496H189L178 415Q208 459 255 483T358 508Q446 508 491 454T520 287L479 0H390Z" />
<glyph unicode="o" horiz-adv-x="576" d="M260 -12Q183 -12 128 23T48 119T33 256Q45 332 86 388T187 476T315 508Q394 508 448 473T528 377T543 240Q532 165 491 108T389 20T260 -12ZM270 67Q316 67 355 89T422 151T456 245Q464 298 449 339T398 406T309 431Q266
431 226 410T157 348T120 248Q114 197 129 156T181 91T270 67Z" />
<glyph unicode="p" horiz-adv-x="602" d="M-8 -220L93 496H183L171 416Q200 452 247 480T362 508Q436 508 486 472T559 376T571 244Q561 173 523 115T425 23T292 -12Q231 -12 188 13T125 81L82 -220H-8ZM287 66Q337 66 378 90T446 155T480 249Q488 300 474 341T426
406T343 430Q297 430 255 408T184 343T147 242Q140 190 155 151T205 89T287 66Z" />
<glyph unicode="q" horiz-adv-x="602" d="M389 -220L431 80Q402 44 355 16T240 -12Q166 -12 116 23T43 117T31 252Q42 324 80 381T177 473T310 508Q372 508 415 483T477 414L489 496H579L479 -220H389ZM258 67Q304 67 345 89T417 154T454 255Q461 307 446 346T396
408T313 430Q264 430 223 407T155 342T120 248Q113 198 127 157T175 91T258 67Z" />
<glyph unicode="r" horiz-adv-x="381" d="M29 0L99 496H189L179 419Q200 457 232 478T306 500H374L363 416H287Q239 416 203 376T154 242L119 0H29Z" />
<glyph unicode="s" horiz-adv-x="495" d="M231 -12Q170 -12 122 7T46 63T20 156H112Q113 109 150 85T241 60Q294 60 321 82T353 137Q357 163 346 176T316 195T279 205Q259 209 238 214T200 224Q166 234 135 249T86 293T76 370Q85 429 134 468T268 508Q323 508
365 492T431 441T453 353H365Q366 396 335 415T260 435Q215 435 190 418T159 370Q156 340 175 326T231 301Q243 299 257 295T284 289T307 283Q331 278 355 270T401 246T432 204T437 136Q432 95 406 61T336 8T231 -12Z" />
<glyph unicode="t" horiz-adv-x="355" d="M195 0Q153 0 126 11T87 51T83 133L124 420H37L48 496H134L151 617H241L224 496H353L342 420H214L175 145Q170 113 173 99T191 81T237 77H286L275 0H195Z" />
<glyph unicode="u" horiz-adv-x="538" d="M195 -12Q107 -12 62 42T32 209L73 496H162L123 216Q113 140 139 103T225 65Q266 65 302 83T363 137T395 225L433 496H523L453 0H363L375 81Q344 38 297 13T195 -12Z" />
<glyph unicode="v" horiz-adv-x="552" d="M177 0L59 496H154L242 86L446 496H540L282 0H177Z" />
<glyph unicode="w" horiz-adv-x="806" d="M151 0L75 496H165L218 70L195 71L384 496H485L555 71L532 70L705 496H795L580 0H489L416 444H439L243 0H151Z" />
<glyph unicode="x" horiz-adv-x="566" d="M4 0L211 248L74 496H170L278 295L444 496H541L333 248L471 0H375L267 201L101 0H4Z" />
<glyph unicode="y" horiz-adv-x="590" d="M14 -220L25 -146H77Q92 -146 101 -141T123 -122T152 -77L207 15L64 496H161L267 115L491 496H586L232 -101Q209 -141 193 -164T164 -200T136 -216T98 -220H14Z" />
<glyph unicode="z" horiz-adv-x="465" d="M5 0L15 73L337 421H69L79 496H449L439 422L116 75H394L384 0H5Z" />
<glyph unicode="{" horiz-adv-x="385" d="M221 -154Q151 -154 113 -117T85 -10Q91 29 103 58T127 116T145 183Q150 220 129 250T46 292L57 365Q121 377 151 407T185 474Q191 512 187 541T179 600T180 667Q191 737 238 774T356 811H411L400 739H366Q324 739 300
720T270 660Q267 632 270 604T277 543T275 471Q268 419 235 381T131 329V328Q197 315 220 277T235 186Q229 147 217 115T193 54T177 -3Q171 -44 190 -63T250 -82H285L275 -154H221Z" />
<glyph unicode="|" horiz-adv-x="234" d="M24 -100L139 720H229L113 -100H24Z" />
<glyph unicode="}" horiz-adv-x="385" d="M51 -154H-3L7 -82H41Q83 -82 107 -63T138 -3Q142 25 138 53T131 114T132 186Q140 239 174 277T277 328L278 329Q212 343 190 381T174 471Q180 511 192 543T217 603T233 660Q239 701 220 720T160 739H125L136 811H190Q260
811 297 774T325 667Q319 630 307 601T283 542T265 474Q259 438 280 408T363 365L352 292Q288 280 258 250T222 183Q218 145 221 116T228 58T227 -10Q217 -80 169 -117T51 -154Z" />
<glyph unicode="~" horiz-adv-x="590" d="M66 247Q88 322 129 358T225 394Q254 394 277 384T321 361T361 337T402 327Q429 327 449 345T476 393H544Q522 319 481 283T384 247Q356 247 333 257T290 280T250 303T208 313Q182 313 162 295T133 247H66Z" />
<glyph unicode="&#xa0;" horiz-adv-x="307" />
<glyph unicode="&#xa1;" horiz-adv-x="275" d="M32 -142L112 360H189L129 -142H32ZM104 444L121 563H242L225 444H104Z" />
<glyph unicode="&#xa2;" horiz-adv-x="650" d="M297 -12Q226 -12 174 21T98 112T84 248Q95 326 136 384T238 475T371 508Q461 508 515 462T574 337H482Q478 381 444 406T360 431Q319 431 280 410T213 349T177 248Q168 189 184 148T234 86T308 65Q359 65 399 89T457
159H550Q532 109 495 70T408 10T297 -12ZM239 -104L259 44H346L325 -104H239ZM316 452L337 600H423L403 452H316Z" />
<glyph unicode="&#xa3;" horiz-adv-x="650" d="M41 0L50 56Q83 82 113 108T164 167T192 243Q196 276 191 307T178 369T166 435T167 511Q175 570 208 615T298 686T428 712Q503 712 547 684T610 609T625 505H542Q547 562 518 599T419 637Q351 637 308 601T255 502Q251
468 255 438T267 377T279 317T280 254Q272 200 241 154T166 73H565L555 0H41ZM63 306L72 371H479L470 306H63Z" />
<glyph unicode="&#xa4;" horiz-adv-x="650" d="M304 118Q224 118 184 166T154 297Q162 352 189 392T258 454T354 476Q409 476 445 454T497 392T505 297Q497 242 470 202T401 140T304 118ZM313 182Q368 182 396 216T431 297Q438 344 419 377T345 411Q291 411 264
378T229 297Q222 250 240 216T313 182ZM140 87L101 133L195 214L234 168L140 87ZM219 382L148 463L200 508L269 429L219 382ZM465 87L397 165L447 212L516 133L465 87ZM467 380L433 428L524 508L563 463L467 380Z" />
<glyph unicode="&#xa5;" horiz-adv-x="650" d="M247 0L284 264L116 700H217L353 308H316L561 700H662L374 264L337 0H247ZM70 165L79 230H569L560 165H70ZM92 318L100 383H305L306 318H92ZM382 318L399 383H590L581 318H382Z" />
<glyph unicode="&#xa6;" horiz-adv-x="234" d="M92 388L139 720H229L183 388H92ZM24 -100L70 232H160L113 -100H24Z" />
<glyph unicode="&#xa7;" horiz-adv-x="595" d="M244 -243Q191 -243 146 -229T66 -187T15 -115T2 -12H91Q89 -66 110 -99T171 -149T259 -165Q304 -165 343 -152T408 -111T441 -38Q447 1 429 31T351 73L214 99Q141 113 101 161T70 277Q78 327 104 366T170 430L215
372Q193 358 178 337T159 287Q154 246 180 218T255 180L384 155Q466 139 503 92T530 -31Q523 -85 496 -124T429 -190T341 -229T244 -243ZM475 51L426 107Q445 123 457 144T474 192Q479 232 461 262T383 303L247 329Q173 344 133 392T103 507Q112 572 152 617T252
687T376 712Q443 712 493 688T570 618T594 502H504Q505 548 488 577T438 620T362 634Q322 634 285 622T223 584T192 518Q186 476 212 449T287 411L415 386Q499 369 537 322T564 200Q556 151 533 114T475 51Z" />
<glyph unicode="&#xa8;" horiz-adv-x="400" d="M8 591L23 701H127L112 591H8ZM167 591L182 701H286L271 591H167Z" />
<glyph unicode="&#xa9;" horiz-adv-x="774" d="M354 -5Q250 -5 179 41T75 168T56 353Q71 457 125 536T264 660T450 705Q553 705 625 660T730 534T748 349Q733 246 679 166T541 41T354 -5ZM371 119Q311 119 266 147T198 227T185 353Q195 426 231 477T320 555T433
583Q509 583 559 543T618 428L537 430Q529 474 500 496T426 518Q388 518 354 499T295 443T262 349Q255 294 268 258T310 203T376 184Q423 184 458 207T515 273L596 271Q568 200 507 160T371 119ZM358 49Q449 49 519 87T635 195T693 353Q706 442 681 509T595 614T445
652Q356 652 285 614T169 507T111 349Q98 260 123 193T209 87T358 49Z" />
<glyph unicode="&#xaa;" horiz-adv-x="452" d="M226 347Q180 347 144 369T89 432T78 526Q86 581 115 622T187 686T277 709Q331 709 361 685T404 629L389 596L404 704H473L423 353H354L369 460L380 437Q362 399 323 373T226 347ZM245 403Q293 403 330 436T376 528Q385
587 357 620T280 653Q235 653 198 620T151 527Q143 468 171 436T245 403Z" />
<glyph unicode="&#xab;" horiz-adv-x="508" d="M363 120L259 295L413 470H512L333 270L339 324L464 120H363ZM299 120L195 295L349 470H448L269 270L275 324L400 120H299Z" />
<glyph unicode="&#xac;" horiz-adv-x="590" d="M428 170L448 312H77L87 388H541L511 170H428Z" />
<glyph unicode="&#xae;" horiz-adv-x="501" d="M260 305Q202 305 160 331T98 404T87 510Q95 569 127 614T208 685T315 712Q374 712 416 685T477 612T489 506Q481 448 449 403T368 331T260 305ZM316 403L320 440Q324 465 317 475T289 485H253L242 403H193L223 617H319Q352
617 370 599T383 549Q378 517 353 500Q364 490 366 477T367 447L362 403H316ZM263 342Q312 342 351 363T416 423T449 510Q459 582 422 627T313 673Q264 673 225 652T160 593T127 506Q117 434 154 388T263 342ZM259 524H301Q314 524 323 530T334 550Q336 563 329
568T308 574H266L259 524Z" />
<glyph unicode="&#xaf;" horiz-adv-x="400" d="M73 590L84 671H435L424 590H73Z" />
<glyph unicode="&#xb0;" horiz-adv-x="362" d="M210 442Q173 442 145 458T103 506T94 578Q100 620 122 649T177 695T245 712Q282 712 310 695T352 647T360 573Q355 534 333 504T278 458T210 442ZM217 507Q242 507 265 525T292 577Q297 611 280 629T237 647Q212
647 189 629T162 577Q158 543 175 525T217 507Z" />
<glyph unicode="&#xb1;" horiz-adv-x="590" d="M84 360L94 436H548L538 360H84ZM45 89L56 165H510L499 89H45ZM250 212L302 584H382L329 212H250Z" />
<glyph unicode="&#xb2;" horiz-adv-x="359" d="M63 352L68 387Q74 433 101 462T171 513Q195 525 218 537T258 565T278 604Q282 630 269 643T235 656Q209 656 192 641T166 598L96 600Q105 647 142 678T243 710Q282 710 308 695T346 656T354 601Q347 560 316 532T230
478Q194 462 170 443T142 390L131 410H330L322 352H63Z" />
<glyph unicode="&#xb3;" horiz-adv-x="351" d="M188 347Q125 347 93 375T64 456L134 454Q134 423 150 412T191 400Q220 400 239 414T263 456Q266 481 250 494T204 507H158L164 550H207Q236 550 256 564T281 606Q284 629 270 642T229 656Q200 656 183 643T157 609L89
611Q100 653 138 681T239 710Q295 710 328 681T356 606Q352 576 333 557T282 529L280 527Q307 518 324 497T336 442Q331 403 291 375T188 347Z" />
<glyph unicode="&#xb4;" horiz-adv-x="400" d="M99 557L194 742H287L166 557H99Z" />
<glyph unicode="&#xb5;" horiz-adv-x="587" d="M2 -220L103 496H193L153 216Q143 140 169 103T256 65Q320 65 368 110T428 240L464 496H553L484 0H400L410 87Q379 41 331 15T226 -12Q195 -12 170 -5T126 18L93 -220H2Z" />
<glyph unicode="&#xb6;" horiz-adv-x="653" d="M264 -100L320 294H309Q228 294 179 321T112 395T101 498Q109 556 140 601T227 673T364 700H614L502 -100H424L526 629H446L342 -100H264Z" />
<glyph unicode="&#xb7;" horiz-adv-x="224" d="M117 280Q92 280 79 297T68 340Q72 366 90 383T133 400Q158 400 172 383T182 340Q178 315 160 298T117 280Z" />
<glyph unicode="&#xb8;" horiz-adv-x="400" d="M13 -260L21 -204H116Q150 -204 168 -193T190 -157Q193 -135 178 -125T128 -114H74Q66 -114 67 -107Q67 -103 68 -101L132 7H194L140 -65Q144 -64 148 -64T156 -64Q208 -64 236 -88T259 -158Q255 -190 236 -213T188
-248T123 -260H13Z" />
<glyph unicode="&#xb9;" horiz-adv-x="237" d="M122 352L160 615H92L99 664H137Q150 664 159 673T170 695L172 704H244L195 352H122Z" />
<glyph unicode="&#xba;" horiz-adv-x="440" d="M236 348Q182 348 143 371T87 436T76 533Q83 587 113 627T187 690T284 712Q339 712 377 689T434 625T444 528Q437 475 407 435T333 371T236 348ZM240 406Q286 406 324 438T372 533Q381 594 353 624T278 655Q233 655
195 623T149 528Q140 468 167 437T240 406Z" />
<glyph unicode="&#xbb;" horiz-adv-x="508" d="M314 120H213L394 324L386 270L262 470H362L466 295L314 120ZM122 120H22L203 324L194 270L71 470H170L275 295L122 120Z" />
<glyph unicode="&#xbc;" horiz-adv-x="727" d="M74 0L544 700H629L162 0H74ZM164 352L202 615H134L141 664H179Q192 664 201 673T212 695L214 704H286L237 352H164ZM495 0L505 69H323L328 111L522 354H616L583 115H631L624 69H576L566 0H495ZM401 115H514L539
290L401 115Z" />
<glyph unicode="&#xbd;" horiz-adv-x="769" d="M67 0L530 700H618L154 0H67ZM156 352L193 615H126L133 664H170Q184 664 192 673T204 695L206 704H278L229 352H156ZM429 0L434 35Q440 81 466 110T536 161Q561 173 584 185T624 213T644 252Q647 278 635 291T600
304Q574 304 557 289T532 246L461 248Q471 295 508 326T608 358Q648 358 674 343T712 304T719 249Q713 208 682 180T595 126Q560 110 536 91T507 38L496 58H696L687 0H429Z" />
<glyph unicode="&#xbe;" horiz-adv-x="827" d="M173 0L650 700H735L258 0H173ZM268 347Q205 347 173 375T144 456L214 454Q214 423 230 412T271 400Q300 400 319 414T343 456Q346 481 330 494T284 507H238L244 550H287Q316 550 336 564T361 606Q364 629 350 642T309
656Q280 656 263 643T237 609L169 611Q180 653 218 681T319 710Q375 710 408 681T436 606Q432 576 413 557T362 529L360 527Q387 518 404 497T416 442Q411 403 371 375T268 347ZM592 0L601 69H419L425 111L616 354H713L679 115H727L721 69H673L663 0H592ZM497 115H611L636
292L497 115Z" />
<glyph unicode="&#xbf;" horiz-adv-x="500" d="M353 362L345 305Q341 274 335 255T314 224T268 198L231 182Q196 168 168 149T121 104T97 41Q89 -18 121 -52T212 -87Q276 -87 316 -54T365 38H450Q443 -22 410 -67T324 -137T205 -162Q139 -162 93 -137T24 -65T11
45Q21 116 65 164T177 241L226 263Q247 272 253 281T263 313L270 362H353ZM397 550L380 430H258L275 550H397Z" />
<glyph unicode="&#xc0;" horiz-adv-x="674" d="M-4 0L352 700H449L608 0H513L373 645H413L92 0H-4ZM140 178L175 250H496L512 178H140ZM356 761L235 946H328L423 761H356Z" />
<glyph unicode="&#xc1;" horiz-adv-x="674" d="M-4 0L352 700H449L608 0H513L373 645H413L92 0H-4ZM140 178L175 250H496L512 178H140ZM388 761L509 946H602L455 761H388Z" />
<glyph unicode="&#xc2;" horiz-adv-x="674" d="M-4 0L352 700H449L608 0H513L373 645H413L92 0H-4ZM140 178L175 250H496L512 178H140ZM271 754L283 837L432 919L559 837L547 754L421 838L271 754Z" />
<glyph unicode="&#xc3;" horiz-adv-x="674" d="M-4 0L352 700H449L608 0H513L373 645H413L92 0H-4ZM140 178L175 250H496L512 178H140ZM479 760Q449 760 431 771T399 793T366 805Q336 805 326 761H260Q277 824 305 850T373 876Q401 876 419 865T452 842T484 831Q499
831 510 842T527 878H592Q577 817 546 789T479 760Z" />
<glyph unicode="&#xc4;" horiz-adv-x="674" d="M-4 0L352 700H449L608 0H513L373 645H413L92 0H-4ZM140 178L175 250H496L512 178H140ZM282 795L297 905H401L386 795H282ZM441 795L456 905H560L545 795H441Z" />
<glyph unicode="&#xc5;" horiz-adv-x="674" d="M-4 0L352 700H449L608 0H513L373 645H413L92 0H-4ZM140 178L175 250H496L512 178H140ZM409 759Q367 759 339 787T318 864Q325 912 360 940T439 968Q483 968 510 940T530 864Q523 816 489 788T409 759ZM417 815Q437
815 452 828T471 864Q474 886 463 899T431 912Q412 912 397 899T378 864Q375 842 386 829T417 815Z" />
<glyph unicode="&#xc6;" horiz-adv-x="904" d="M-7 0L488 700H921L911 628H624L591 389H847L838 318H580L546 72H833L823 0H446L535 627L92 0H-7ZM152 157L200 227H520L511 157H152Z" />
<glyph unicode="&#xc7;" horiz-adv-x="705" d="M335 -12Q232 -12 163 34T65 162T51 352Q65 459 117 540T250 666T433 712Q556 712 624 654T698 490H599Q593 555 550 593T425 632Q352 632 292 598T193 500T142 348Q130 260 150 197T220 101T343 68Q426 68 481 105T562
213H663Q625 106 541 47T335 -12ZM205 -261L213 -205H308Q342 -205 360 -194T382 -158Q386 -136 371 -126T321 -115H266Q258 -115 259 -108Q259 -104 261 -102L324 6H387L333 -66Q336 -65 340 -65T348 -65Q400 -65 429 -89T451 -159Q447 -191 428 -214T380 -249T316
-261H205Z" />
<glyph unicode="&#xc8;" horiz-adv-x="539" d="M35 0L133 700H569L558 626H213L179 389H495L485 317H169L136 73H481L471 0H35ZM310 761L189 946H282L377 761H310Z" />
<glyph unicode="&#xc9;" horiz-adv-x="539" d="M35 0L133 700H569L558 626H213L179 389H495L485 317H169L136 73H481L471 0H35ZM342 761L463 946H556L409 761H342Z" />
<glyph unicode="&#xca;" horiz-adv-x="539" d="M35 0L133 700H569L558 626H213L179 389H495L485 317H169L136 73H481L471 0H35ZM225 754L237 837L386 919L513 837L501 754L375 838L225 754Z" />
<glyph unicode="&#xcb;" horiz-adv-x="539" d="M35 0L133 700H569L558 626H213L179 389H495L485 317H169L136 73H481L471 0H35ZM237 795L252 905H356L341 795H237ZM396 795L411 905H515L500 795H396Z" />
<glyph unicode="&#xcc;" horiz-adv-x="234" d="M38 0L136 700H226L128 0H38ZM137 761L16 946H109L204 761H137Z" />
<glyph unicode="&#xcd;" horiz-adv-x="234" d="M38 0L136 700H226L128 0H38ZM169 761L290 946H383L236 761H169Z" />
<glyph unicode="&#xce;" horiz-adv-x="234" d="M38 0L136 700H226L128 0H38ZM52 754L64 837L213 919L340 837L328 754L202 838L52 754Z" />
<glyph unicode="&#xcf;" horiz-adv-x="234" d="M38 0L136 700H226L128 0H38ZM63 795L78 905H182L167 795H63ZM222 795L237 905H341L326 795H222Z" />
<glyph unicode="&#xd0;" horiz-adv-x="709" d="M6 309L18 389H391L379 309H6ZM59 0L157 700H374Q498 700 571 658T672 536T685 347Q670 240 621 162T486 42T277 0H59ZM159 76H284Q384 76 448 109T547 203T594 351Q606 436 589 497T517 592T363 625H236L159 76Z" />
<glyph unicode="&#xd1;" horiz-adv-x="691" d="M38 0L136 700H225L515 149L593 700H683L584 0H494L205 552L127 0H38ZM488 760Q458 760 440 771T408 793T375 805Q345 805 335 761H269Q286 824 314 850T382 876Q410 876 428 865T461 842T493 831Q508 831 519 842T536
878H601Q586 817 555 789T488 760Z" />
<glyph unicode="&#xd2;" horiz-adv-x="760" d="M355 -12Q274 -12 212 17T109 97T54 216T49 360Q64 463 118 542T253 667T433 712Q516 712 578 683T679 602T734 482T739 337Q728 261 695 197T610 87T494 14T355 -12ZM363 68Q434 68 494 101T594 196T648 341Q660
425 637 490T560 594T426 632Q355 632 295 599T195 504T142 356Q130 273 152 208T229 106T363 68ZM406 761L285 946H378L473 761H406Z" />
<glyph unicode="&#xd3;" horiz-adv-x="760" d="M355 -12Q274 -12 212 17T109 97T54 216T49 360Q64 463 118 542T253 667T433 712Q516 712 578 683T679 602T734 482T739 337Q728 261 695 197T610 87T494 14T355 -12ZM363 68Q434 68 494 101T594 196T648 341Q660
425 637 490T560 594T426 632Q355 632 295 599T195 504T142 356Q130 273 152 208T229 106T363 68ZM437 761L558 946H651L504 761H437Z" />
<glyph unicode="&#xd4;" horiz-adv-x="760" d="M355 -12Q274 -12 212 17T109 97T54 216T49 360Q64 463 118 542T253 667T433 712Q516 712 578 683T679 602T734 482T739 337Q728 261 695 197T610 87T494 14T355 -12ZM363 68Q434 68 494 101T594 196T648 341Q660
425 637 490T560 594T426 632Q355 632 295 599T195 504T142 356Q130 273 152 208T229 106T363 68ZM320 754L332 837L481 919L608 837L596 754L470 838L320 754Z" />
<glyph unicode="&#xd5;" horiz-adv-x="760" d="M355 -12Q274 -12 212 17T109 97T54 216T49 360Q64 463 118 542T253 667T433 712Q516 712 578 683T679 602T734 482T739 337Q728 261 695 197T610 87T494 14T355 -12ZM363 68Q434 68 494 101T594 196T648 341Q660
425 637 490T560 594T426 632Q355 632 295 599T195 504T142 356Q130 273 152 208T229 106T363 68ZM529 760Q499 760 481 771T449 793T416 805Q386 805 376 761H310Q327 824 355 850T423 876Q451 876 469 865T502 842T534 831Q549 831 560 842T577 878H642Q627 817
596 789T529 760Z" />
<glyph unicode="&#xd6;" horiz-adv-x="760" d="M355 -12Q274 -12 212 17T109 97T54 216T49 360Q64 463 118 542T253 667T433 712Q516 712 578 683T679 602T734 482T739 337Q728 261 695 197T610 87T494 14T355 -12ZM363 68Q434 68 494 101T594 196T648 341Q660
425 637 490T560 594T426 632Q355 632 295 599T195 504T142 356Q130 273 152 208T229 106T363 68ZM332 795L347 905H451L436 795H332ZM491 795L506 905H610L595 795H491Z" />
<glyph unicode="&#xd7;" horiz-adv-x="590" d="M145 157L97 212L474 543L522 488L145 157ZM416 163L141 483L203 537L478 217L416 163Z" />
<glyph unicode="&#xd8;" horiz-adv-x="787" d="M4 0L718 700H813L99 0H4ZM372 -12Q290 -12 228 17T126 97T71 216T66 360Q81 463 134 542T269 667T449 712Q532 712 594 683T696 602T751 482T756 337Q745 261 711 197T626 87T511 14T372 -12ZM380 68Q450 68 510
101T611 196T664 341Q677 425 654 490T577 594T442 632Q371 632 311 599T211 504T158 356Q146 273 168 208T245 106T380 68Z" />
<glyph unicode="&#xd9;" horiz-adv-x="634" d="M282 -12Q209 -12 154 17T71 107T57 261L118 700H208L146 253Q137 190 152 150T203 89T291 69Q369 69 423 114T491 260L553 700H643L581 259Q568 166 524 106T418 17T282 -12ZM335 761L214 946H307L402 761H335Z" />
<glyph unicode="&#xda;" horiz-adv-x="634" d="M282 -12Q209 -12 154 17T71 107T57 261L118 700H208L146 253Q137 190 152 150T203 89T291 69Q369 69 423 114T491 260L553 700H643L581 259Q568 166 524 106T418 17T282 -12ZM366 761L487 946H580L433 761H366Z" />
<glyph unicode="&#xdb;" horiz-adv-x="634" d="M282 -12Q209 -12 154 17T71 107T57 261L118 700H208L146 253Q137 190 152 150T203 89T291 69Q369 69 423 114T491 260L553 700H643L581 259Q568 166 524 106T418 17T282 -12ZM249 754L261 837L410 919L537 837L525
754L399 838L249 754Z" />
<glyph unicode="&#xdc;" horiz-adv-x="634" d="M282 -12Q209 -12 154 17T71 107T57 261L118 700H208L146 253Q137 190 152 150T203 89T291 69Q369 69 423 114T491 260L553 700H643L581 259Q568 166 524 106T418 17T282 -12ZM261 795L276 905H380L365 795H261ZM420
795L435 905H539L524 795H420Z" />
<glyph unicode="&#xdd;" horiz-adv-x="642" d="M242 0L280 264L112 700H213L349 317H316L557 700H658L370 264L332 0H242ZM373 761L494 946H587L440 761H373Z" />
<glyph unicode="&#xde;" horiz-adv-x="589" d="M37 0L135 700H225L204 556H357Q440 556 489 529T558 454T568 348Q560 292 529 246T441 173T301 145H147L127 0H37ZM157 220H307Q389 220 429 256T478 352Q486 414 457 447T346 481H194L157 220Z" />
<glyph unicode="&#xdf;" horiz-adv-x="579" d="M29 0L102 517Q111 575 144 618T230 687T348 712Q415 712 457 690T518 632T538 557Q538 497 501 449T395 382L376 401Q465 383 504 338T544 232Q544 167 515 114T429 31T288 0H180L191 77H272Q328 77 368 93T430
143T452 227Q452 280 412 310T290 341H239L249 415H284Q359 415 402 450T445 543Q445 584 417 609T333 634Q278 634 239 600T190 500L119 0H29Z" />
<glyph unicode="&#xe0;" horiz-adv-x="555" d="M186 -12Q102 -12 61 27T19 121Q19 176 49 217T134 280T257 303Q300 303 334 297T389 283L392 306Q402 370 373 401T288 433Q241 433 205 414T154 350H61Q75 403 110 438T194 491T295 508Q402 508 448 452T482 304L457
130Q453 96 462 87T502 78H510L499 0H477Q429 0 400 16T367 80Q338 41 294 15T186 -12ZM112 134Q112 101 136 82T207 63Q265 63 311 101T376 218Q355 225 324 230T259 236Q208 236 175 222T127 184T112 134ZM249 557L128 742H221L316 557H249Z" />
<glyph unicode="&#xe1;" horiz-adv-x="555" d="M186 -12Q102 -12 61 27T19 121Q19 176 49 217T134 280T257 303Q300 303 334 297T389 283L392 306Q402 370 373 401T288 433Q241 433 205 414T154 350H61Q75 403 110 438T194 491T295 508Q402 508 448 452T482 304L457
130Q453 96 462 87T502 78H510L499 0H477Q429 0 400 16T367 80Q338 41 294 15T186 -12ZM112 134Q112 101 136 82T207 63Q265 63 311 101T376 218Q355 225 324 230T259 236Q208 236 175 222T127 184T112 134ZM272 557L367 742H460L339 557H272Z" />
<glyph unicode="&#xe2;" horiz-adv-x="555" d="M186 -12Q102 -12 61 27T19 121Q19 176 49 217T134 280T257 303Q300 303 334 297T389 283L392 306Q402 370 373 401T288 433Q241 433 205 414T154 350H61Q75 403 110 438T194 491T295 508Q402 508 448 452T482 304L457
130Q453 96 462 87T502 78H510L499 0H477Q429 0 400 16T367 80Q338 41 294 15T186 -12ZM112 134Q112 101 136 82T207 63Q265 63 311 101T376 218Q355 225 324 230T259 236Q208 236 175 222T127 184T112 134ZM164 550L175 633L325 715L452 633L440 550L314 634L164
550Z" />
<glyph unicode="&#xe3;" horiz-adv-x="555" d="M186 -12Q102 -12 61 27T19 121Q19 176 49 217T134 280T257 303Q300 303 334 297T389 283L392 306Q402 370 373 401T288 433Q241 433 205 414T154 350H61Q75 403 110 438T194 491T295 508Q402 508 448 452T482 304L457
130Q453 96 462 87T502 78H510L499 0H477Q429 0 400 16T367 80Q338 41 294 15T186 -12ZM112 134Q112 101 136 82T207 63Q265 63 311 101T376 218Q355 225 324 230T259 236Q208 236 175 222T127 184T112 134ZM373 556Q343 556 325 567T292 589T260 601Q230 601 220
557H154Q171 620 199 646T267 672Q295 672 313 661T347 638T378 627Q393 627 404 638T421 674H486Q471 613 440 585T373 556Z" />
<glyph unicode="&#xe4;" horiz-adv-x="555" d="M186 -12Q102 -12 61 27T19 121Q19 176 49 217T134 280T257 303Q300 303 334 297T389 283L392 306Q402 370 373 401T288 433Q241 433 205 414T154 350H61Q75 403 110 438T194 491T295 508Q402 508 448 452T482 304L457
130Q453 96 462 87T502 78H510L499 0H477Q429 0 400 16T367 80Q338 41 294 15T186 -12ZM112 134Q112 101 136 82T207 63Q265 63 311 101T376 218Q355 225 324 230T259 236Q208 236 175 222T127 184T112 134ZM176 591L191 701H295L280 591H176ZM335 591L350 701H454L439
591H335Z" />
<glyph unicode="&#xe5;" horiz-adv-x="555" d="M186 -12Q102 -12 61 27T19 121Q19 176 49 217T134 280T257 303Q300 303 334 297T389 283L392 306Q402 370 373 401T288 433Q241 433 205 414T154 350H61Q75 403 110 438T194 491T295 508Q402 508 448 452T482 304L457
130Q453 96 462 87T502 78H510L499 0H477Q429 0 400 16T367 80Q338 41 294 15T186 -12ZM112 134Q112 101 136 82T207 63Q265 63 311 101T376 218Q355 225 324 230T259 236Q208 236 175 222T127 184T112 134ZM303 555Q260 555 232 583T211 660Q219 708 254 736T332
764Q376 764 403 736T423 660Q416 612 382 584T303 555ZM310 611Q330 611 345 624T364 660Q367 682 356 695T324 708Q305 708 290 695T271 660Q268 638 279 625T310 611Z" />
<glyph unicode="&#xe6;" horiz-adv-x="900" d="M196 -12Q133 -12 93 9T37 66T27 143Q38 218 100 257T260 297H397L398 306Q406 370 379 401T300 433Q255 433 218 411T166 343H74Q87 396 122 433T207 489T306 508Q370 508 412 484T473 420Q511 463 562 485T671
508Q741 508 789 476T858 390T870 274Q869 265 867 254T862 229H479Q474 174 491 137T539 82T606 63Q660 63 698 89T758 161H846Q818 86 754 37T599 -12Q533 -12 484 19T410 104Q373 54 321 21T196 -12ZM210 63Q235 63 263 73T318 104T363 157T387 230H261Q192
230 160 206T122 145Q116 107 140 85T210 63ZM490 296L785 298Q790 362 755 397T663 433Q625 433 590 417T529 371T490 296Z" />
<glyph unicode="&#xe7;" horiz-adv-x="548" d="M254 -12Q181 -12 128 21T49 111T31 242Q37 300 61 349T124 433T210 488T310 508Q400 508 457 462T522 338H432Q425 380 391 405T303 431Q259 431 219 407T152 340T118 238Q113 190 129 151T179 89T263 66Q295 66
324 77T376 109T408 160H500Q484 107 447 68T359 9T254 -12ZM112 -262L120 -206H215Q249 -206 267 -195T289 -159Q292 -137 277 -127T227 -116H173Q165 -116 166 -109Q166 -105 167 -103L231 5H293L239 -67Q243 -66 247 -66T255 -66Q307 -66 335 -90T358 -160Q354
-192 335 -215T287 -250T222 -262H112Z" />
<glyph unicode="&#xe8;" horiz-adv-x="557" d="M245 -12Q172 -12 120 22T45 117T32 254Q44 330 83 387T181 476T312 508Q387 508 436 475T506 389T518 272Q517 261 516 251T511 228H97L106 294H433Q439 359 403 396T303 433Q262 433 224 414T159 358T123 272L119
245Q109 188 126 148T177 85T253 63Q301 63 339 86T398 150H489Q470 105 435 68T351 10T245 -12ZM267 557L146 742H239L334 557H267Z" />
<glyph unicode="&#xe9;" horiz-adv-x="557" d="M245 -12Q172 -12 120 22T45 117T32 254Q44 330 83 387T181 476T312 508Q387 508 436 475T506 389T518 272Q517 261 516 251T511 228H97L106 294H433Q439 359 403 396T303 433Q262 433 224 414T159 358T123 272L119
245Q109 188 126 148T177 85T253 63Q301 63 339 86T398 150H489Q470 105 435 68T351 10T245 -12ZM290 557L385 742H478L357 557H290Z" />
<glyph unicode="&#xea;" horiz-adv-x="557" d="M245 -12Q172 -12 120 22T45 117T32 254Q44 330 83 387T181 476T312 508Q387 508 436 475T506 389T518 272Q517 261 516 251T511 228H97L106 294H433Q439 359 403 396T303 433Q262 433 224 414T159 358T123 272L119
245Q109 188 126 148T177 85T253 63Q301 63 339 86T398 150H489Q470 105 435 68T351 10T245 -12ZM182 550L193 633L343 715L470 633L458 550L332 634L182 550Z" />
<glyph unicode="&#xeb;" horiz-adv-x="557" d="M245 -12Q172 -12 120 22T45 117T32 254Q44 330 83 387T181 476T312 508Q387 508 436 475T506 389T518 272Q517 261 516 251T511 228H97L106 294H433Q439 359 403 396T303 433Q262 433 224 414T159 358T123 272L119
245Q109 188 126 148T177 85T253 63Q301 63 339 86T398 150H489Q470 105 435 68T351 10T245 -12ZM193 591L208 701H312L297 591H193ZM352 591L367 701H471L456 591H352Z" />
<glyph unicode="&#xec;" horiz-adv-x="210" d="M26 0L96 496H186L116 0H26ZM96 563L15 742H107L164 563H96Z" />
<glyph unicode="&#xed;" horiz-adv-x="210" d="M26 0L96 496H186L116 0H26ZM126 563L209 742H301L194 563H126Z" />
<glyph unicode="&#xee;" horiz-adv-x="210" d="M26 0L96 496H186L116 0H26ZM46 554L57 634L172 715L264 632L252 554L160 633L46 554Z" />
<glyph unicode="&#xef;" horiz-adv-x="210" d="M26 0L96 496H186L116 0H26ZM176 591L191 701H275L260 591H176ZM48 591L63 701H147L132 591H48Z" />
<glyph unicode="&#xf0;" horiz-adv-x="589" d="M261 -12Q184 -12 129 23T48 117T32 249Q43 324 85 382T189 473T324 506Q361 506 396 496T459 463T506 402L494 398Q483 480 444 556T331 701L417 699Q479 642 516 574T567 431T568 272Q556 188 512 124T402 24T261
-12ZM270 64Q316 64 359 86T433 151T473 250Q481 305 463 345T408 408T325 430Q279 430 236 408T161 344T123 246Q115 190 133 149T188 86T270 64ZM279 549L288 609L590 708L581 648L279 549Z" />
<glyph unicode="&#xf1;" horiz-adv-x="569" d="M390 0L430 280Q440 356 414 393T327 431Q265 431 217 386T155 258L119 0H29L99 496H189L178 415Q208 459 255 483T358 508Q446 508 491 454T520 287L479 0H390ZM417 556Q387 556 369 567T336 589T304 601Q274 601
264 557H198Q215 620 243 646T311 672Q339 672 357 661T391 638T422 627Q437 627 448 638T465 674H530Q515 613 484 585T417 556Z" />
<glyph unicode="&#xf2;" horiz-adv-x="576" d="M260 -12Q183 -12 128 23T48 119T33 256Q45 332 86 388T187 476T315 508Q394 508 448 473T528 377T543 240Q532 165 491 108T389 20T260 -12ZM270 67Q316 67 355 89T422 151T456 245Q464 298 449 339T398 406T309
431Q266 431 226 410T157 348T120 248Q114 197 129 156T181 91T270 67ZM278 557L157 742H250L345 557H278Z" />
<glyph unicode="&#xf3;" horiz-adv-x="576" d="M260 -12Q183 -12 128 23T48 119T33 256Q45 332 86 388T187 476T315 508Q394 508 448 473T528 377T543 240Q532 165 491 108T389 20T260 -12ZM270 67Q316 67 355 89T422 151T456 245Q464 298 449 339T398 406T309
431Q266 431 226 410T157 348T120 248Q114 197 129 156T181 91T270 67ZM301 557L396 742H489L368 557H301Z" />
<glyph unicode="&#xf4;" horiz-adv-x="576" d="M260 -12Q183 -12 128 23T48 119T33 256Q45 332 86 388T187 476T315 508Q394 508 448 473T528 377T543 240Q532 165 491 108T389 20T260 -12ZM270 67Q316 67 355 89T422 151T456 245Q464 298 449 339T398 406T309
431Q266 431 226 410T157 348T120 248Q114 197 129 156T181 91T270 67ZM193 550L204 633L354 715L481 633L469 550L343 634L193 550Z" />
<glyph unicode="&#xf5;" horiz-adv-x="576" d="M260 -12Q183 -12 128 23T48 119T33 256Q45 332 86 388T187 476T315 508Q394 508 448 473T528 377T543 240Q532 165 491 108T389 20T260 -12ZM270 67Q316 67 355 89T422 151T456 245Q464 298 449 339T398 406T309
431Q266 431 226 410T157 348T120 248Q114 197 129 156T181 91T270 67ZM402 556Q372 556 354 567T321 589T289 601Q259 601 249 557H183Q200 620 228 646T296 672Q324 672 342 661T376 638T407 627Q422 627 433 638T450 674H515Q500 613 469 585T402 556Z" />
<glyph unicode="&#xf6;" horiz-adv-x="576" d="M260 -12Q183 -12 128 23T48 119T33 256Q45 332 86 388T187 476T315 508Q394 508 448 473T528 377T543 240Q532 165 491 108T389 20T260 -12ZM270 67Q316 67 355 89T422 151T456 245Q464 298 449 339T398 406T309
431Q266 431 226 410T157 348T120 248Q114 197 129 156T181 91T270 67ZM205 591L220 701H324L309 591H205ZM364 591L379 701H483L468 591H364Z" />
<glyph unicode="&#xf7;" horiz-adv-x="590" d="M77 312L87 388H541L531 312H77ZM222 116L237 219H342L327 116H222ZM274 481L288 584H393L379 481H274Z" />
<glyph unicode="&#xf8;" horiz-adv-x="567" d="M248 -12Q178 -12 126 20T49 112T35 250Q46 329 87 386T189 476T320 508Q391 508 442 476T519 384T532 246Q521 168 480 110T378 20T248 -12ZM-7 0L493 496H575L76 0H-7ZM255 62Q297 62 337 83T406 146T444 250Q453
312 437 352T387 413T312 434Q270 434 231 413T162 351T124 246Q116 185 132 144T181 83T255 62Z" />
<glyph unicode="&#xf9;" horiz-adv-x="538" d="M195 -12Q107 -12 62 42T32 209L73 496H162L123 216Q113 140 139 103T225 65Q266 65 302 83T363 137T395 225L433 496H523L453 0H363L375 81Q344 38 297 13T195 -12ZM249 557L128 742H221L316 557H249Z" />
<glyph unicode="&#xfa;" horiz-adv-x="538" d="M195 -12Q107 -12 62 42T32 209L73 496H162L123 216Q113 140 139 103T225 65Q266 65 302 83T363 137T395 225L433 496H523L453 0H363L375 81Q344 38 297 13T195 -12ZM272 557L367 742H460L339 557H272Z" />
<glyph unicode="&#xfb;" horiz-adv-x="538" d="M195 -12Q107 -12 62 42T32 209L73 496H162L123 216Q113 140 139 103T225 65Q266 65 302 83T363 137T395 225L433 496H523L453 0H363L375 81Q344 38 297 13T195 -12ZM164 550L175 633L325 715L452 633L440 550L314
634L164 550Z" />
<glyph unicode="&#xfc;" horiz-adv-x="538" d="M195 -12Q107 -12 62 42T32 209L73 496H162L123 216Q113 140 139 103T225 65Q266 65 302 83T363 137T395 225L433 496H523L453 0H363L375 81Q344 38 297 13T195 -12ZM176 591L191 701H295L280 591H176ZM335 591L350
701H454L439 591H335Z" />
<glyph unicode="&#xfd;" horiz-adv-x="590" d="M14 -220L25 -146H77Q92 -146 101 -141T123 -122T152 -77L207 15L64 496H161L267 115L491 496H586L232 -101Q209 -141 193 -164T164 -200T136 -216T98 -220H14ZM302 557L397 742H490L369 557H302Z" />
<glyph unicode="&#xfe;" horiz-adv-x="605" d="M-8 -220L124 720H214L170 416Q200 452 247 480T362 508Q436 508 486 474T560 380T572 245Q562 171 523 113T425 21T291 -12Q230 -12 187 13T124 81L82 -220H-8ZM287 66Q337 66 378 89T446 154T481 250Q492 331 454
380T342 430Q293 430 252 407T183 343T148 246Q137 165 176 116T287 66Z" />
<glyph unicode="&#xff;" horiz-adv-x="590" d="M14 -220L25 -146H77Q92 -146 101 -141T123 -122T152 -77L207 15L64 496H161L267 115L491 496H586L232 -101Q209 -141 193 -164T164 -200T136 -216T98 -220H14ZM205 591L220 701H324L309 591H205ZM364 591L379 701H483L468
591H364Z" />
<glyph unicode="&#x2013;" horiz-adv-x="691" d="M82 252L93 328H619L608 252H82Z" />
<glyph unicode="&#x2014;" horiz-adv-x="855" d="M60 252L71 328H805L793 252H60Z" />
<glyph unicode="&#x2018;" horiz-adv-x="266" d="M85 474L207 700H271L184 474H85Z" />
<glyph unicode="&#x2019;" horiz-adv-x="266" d="M90 474L178 700H278L154 474H90Z" />
<glyph unicode="&#x201a;" horiz-adv-x="235" d="M-19 -120L69 106H170L46 -120H-19Z" />
<glyph unicode="&#x201c;" horiz-adv-x="438" d="M250 474L375 700H439L351 474H250ZM90 474L212 700H276L189 474H90Z" />
<glyph unicode="&#x201d;" horiz-adv-x="438" d="M257 474L345 700H445L321 474H257ZM96 474L183 700H283L160 474H96Z" />
<glyph unicode="&#x201e;" horiz-adv-x="437" d="M1 -120L89 106H190L66 -120H1ZM165 -120L252 106H353L229 -120H165Z" />
<glyph unicode="&#x2022;" horiz-adv-x="351" d="M172 211Q137 211 112 227T74 272T65 335Q70 370 90 397T139 440T202 456Q237 456 263 440T302 395T310 331Q305 297 285 270T235 227T172 211Z" />
<glyph unicode="&#x2039;" horiz-adv-x="280" d="M135 120L31 295L185 470H284L105 270L111 324L236 120H135Z" />
<glyph unicode="&#x203a;" horiz-adv-x="280" d="M109 120H8L190 324L181 270L58 470H157L262 295L109 120Z" />
</font>
</defs>
</svg>
