<?xml version="1.0" standalone="no"?>
<!DOCTYPE svg PUBLIC "-//W3C//DTD SVG 1.1//EN" "http://www.w3.org/Graphics/SVG/1.1/DTD/svg11.dtd">
<svg xmlns="http://www.w3.org/2000/svg">
<defs >
<font id="HostGrotesk" horiz-adv-x="537" ><font-face
    font-family="Host Grotesk Light"
    units-per-em="1000"
    panose-1="2 11 5 4 3 4 2 0 2 3"
    ascent="1015"
    descent="-315"
    alphabetic="0" />
<glyph unicode=" " horiz-adv-x="307" />
<glyph unicode="!" horiz-adv-x="276" d="M99 188L89 700H186L175 188H99ZM77 0V119H199V0H77Z" />
<glyph unicode="&quot;" horiz-adv-x="347" d="M73 557L62 755H145L135 557H73ZM213 557L202 755H285L275 557H213Z" />
<glyph unicode="#" horiz-adv-x="800" d="M142 0L293 708H377L226 0H142ZM427 0L579 708H663L511 0H427ZM41 194V273H714V194H41ZM85 436V515H759V436H85Z" />
<glyph unicode="$" horiz-adv-x="650" d="M327 -12Q274 -12 226 2T140 44T79 115T52 218H139Q144 162 170 127T238 76T328 60Q375 60 413 74T475 117T499 194Q499 233 477 263T394 304L249 330Q173 343 126 392T79 510Q79 574 112 619T201 688T321 712Q390 712
443 689T530 619T571 503H482Q477 551 456 581T400 626T322 640Q279 640 243 627T184 586T161 516Q161 475 191 447T271 410L408 386Q493 370 537 322T582 198Q582 144 561 105T504 40T422 1T327 -12ZM292 -87V791H349V-87H292Z" />
<glyph unicode="%" horiz-adv-x="859" d="M180 0L586 700H675L270 0H180ZM217 372Q172 372 135 392T77 451T56 542Q56 594 77 632T136 690T218 711Q264 711 300 691T357 632T379 542Q379 490 358 452T300 393T217 372ZM217 440Q252 440 277 465T303 542Q303 593
278 618T218 644Q183 644 157 619T131 542Q131 491 157 466T217 440ZM644 -12Q599 -12 562 8T504 67T483 157Q483 210 504 248T562 306T645 327Q690 327 726 307T784 248T805 157Q805 106 784 68T726 9T644 -12ZM644 56Q678 56 704 81T730 157Q730 209 705 234T645
260Q610 260 584 235T558 157Q558 107 583 82T644 56Z" />
<glyph unicode="&amp;" horiz-adv-x="707" d="M565 0L103 632V700H512V624H153L191 650L665 0H565ZM292 -5Q220 -5 165 22T78 99T46 217Q46 320 112 376T288 433H314L328 366H294Q223 366 179 327T135 218Q135 173 155 140T210 88T293 70Q342 70 380 89T448 141T497
217T529 309T545 409H628Q623 344 606 283T559 169T491 77T401 17T292 -5Z" />
<glyph unicode="&apos;" horiz-adv-x="200" d="M69 557L57 755H144L132 557H69Z" />
<glyph unicode="(" horiz-adv-x="385" d="M265 -145Q205 -85 161 -12T91 147T66 333Q66 432 91 518T160 678T265 811H356Q302 752 264 694T202 578T167 459T155 333Q155 268 166 208T202 89T264 -28T356 -145H265Z" />
<glyph unicode=")" horiz-adv-x="385" d="M29 -145Q83 -86 121 -28T183 88T218 207T230 333Q230 398 219 458T183 577T121 694T29 811H120Q180 752 224 679T294 519T319 333Q319 234 294 148T225 -12T120 -145H29Z" />
<glyph unicode="*" horiz-adv-x="462" d="M159 373L102 409L171 515L46 514V581L171 580L102 686L159 722L231 608L303 722L361 688L291 580L416 581V514L291 515L360 409L303 373L231 487L159 373Z" />
<glyph unicode="+" horiz-adv-x="590" d="M255 116V584H335V116H255ZM68 312V388H522V312H68Z" />
<glyph unicode="," horiz-adv-x="222" d="M37 -157V-80H63Q77 -80 85 -72T93 -48V-6H46V114H171V-48Q171 -94 144 -125T64 -157H37Z" />
<glyph unicode="-" horiz-adv-x="490" d="M274 312V388H728V312H274Z" />
<glyph unicode="." horiz-adv-x="224" d="M51 0V119H173V0H51Z" />
<glyph unicode="/" horiz-adv-x="470" d="M26 -97L355 766H444L114 -97H26Z" />
<glyph unicode="0" horiz-adv-x="650" d="M325 -12Q236 -12 174 32T80 158T48 350Q48 461 80 542T174 667T325 712Q415 712 476 668T570 542T602 350Q602 239 570 158T477 33T325 -12ZM325 68Q420 68 465 141T510 350Q510 484 465 558T325 632Q230 632 185 558T140
350Q140 215 185 142T325 68Z" />
<glyph unicode="1" horiz-adv-x="650" d="M301 37V539H102V605L259 616Q278 618 289 628T301 658V700H392V37H301ZM78 0V75H598V0H78Z" />
<glyph unicode="2" horiz-adv-x="650" d="M81 0V43Q81 130 107 186T179 278T288 343L342 367Q408 397 443 427T478 511Q478 543 464 571T419 617T335 635Q283 635 249 615T198 563T181 490H94Q94 561 126 610T212 686T336 712Q403 712 454 690T536 623T567 515Q567
441 522 391T397 302L308 261Q253 236 224 207T184 145T173 75H578V0H81Z" />
<glyph unicode="3" horiz-adv-x="650" d="M327 -12Q247 -12 187 12T91 86T53 209H143Q143 170 164 138T226 86T327 66Q407 66 448 105T489 202Q489 249 464 279T396 324T301 339H231V414H302Q376 414 418 444T461 529Q461 575 427 604T327 634Q253 634 214 601T170
516H79Q82 575 111 618T196 687T327 712Q401 712 451 688T526 624T552 535Q552 482 521 438T428 380Q493 367 536 321T580 201Q580 143 551 95T466 18T327 -12Z" />
<glyph unicode="4" horiz-adv-x="650" d="M395 0V148H29V217L381 700H481V226H583V148H481V0H395ZM399 186V641L421 634L104 192L88 226H437L399 186Z" />
<glyph unicode="5" horiz-adv-x="650" d="M327 -12Q252 -12 198 14T111 86T71 190H159Q171 134 215 100T325 65Q381 65 419 87T477 149T497 237Q497 312 452 359T328 406Q272 406 230 381T168 316H85L145 700H533V621H214L168 378L161 401Q184 435 229 458T340
481Q415 481 469 449T554 362T584 238Q584 169 554 113T467 22T327 -12Z" />
<glyph unicode="6" horiz-adv-x="650" d="M340 -12Q261 -12 206 17T118 93T71 201T56 323Q56 439 89 526T185 663T339 712Q407 712 455 686T532 616T566 518H483Q473 575 435 605T339 635Q247 635 193 552T142 292L133 319Q147 354 177 383T250 430T351 449Q413
449 466 421T553 342T587 223Q587 164 557 110T472 22T340 -12ZM335 67Q382 67 419 86T476 140T497 219Q497 266 477 300T419 352T334 371Q283 371 244 351T184 296T162 219Q162 174 184 140T245 87T335 67Z" />
<glyph unicode="7" horiz-adv-x="650" d="M176 0L492 623H76V700H584V631L271 0H176Z" />
<glyph unicode="8" horiz-adv-x="650" d="M325 -12Q251 -12 193 13T100 84T66 191Q66 233 84 270T134 335T209 373Q150 393 118 435T86 526Q86 577 114 619T195 686T325 712Q401 712 454 687T536 619T564 526Q564 477 532 435T441 373Q484 362 516 335T566 271T584
191Q584 130 550 85T458 14T325 -12ZM325 66Q410 66 452 101T494 197Q494 264 449 297T325 331Q246 331 201 298T156 197Q156 136 198 101T325 66ZM325 404Q395 404 435 435T475 519Q475 577 436 606T325 635Q254 635 215 606T175 519Q175 467 215 436T325 404Z"
/>
<glyph unicode="9" horiz-adv-x="650" d="M311 -12Q243 -12 195 14T118 85T84 182H167Q178 126 216 96T311 65Q403 65 457 148T508 408L517 381Q503 347 473 318T400 270T299 251Q237 251 184 279T97 358T63 477Q63 537 93 590T178 678T310 712Q389 712 444 684T532
607T579 499T594 377Q594 261 561 174T465 37T311 -12ZM316 329Q368 329 406 350T466 405T488 481Q488 526 466 560T406 614T315 633Q268 633 231 614T174 560T153 481Q153 435 173 401T231 348T316 329Z" />
<glyph unicode=":" horiz-adv-x="224" d="M51 0V119H173V0H51ZM51 377V496H173V377H51Z" />
<glyph unicode=";" horiz-adv-x="222" d="M48 377V496H170V377H48ZM37 -157V-80H63Q77 -80 85 -72T93 -48V-6H46V114H171V-48Q171 -94 144 -125T64 -157H37Z" />
<glyph unicode="&lt;" horiz-adv-x="590" d="M468 113L109 314V386L468 587V494L146 323V377L468 206V113Z" />
<glyph unicode="=" horiz-adv-x="590" d="M68 405V481H522V405H68ZM68 219V295H522V219H68Z" />
<glyph unicode="&gt;" horiz-adv-x="590" d="M122 113V206L444 377V323L122 494V587L481 386V314L122 113Z" />
<glyph unicode="?" horiz-adv-x="500" d="M171 188V244Q171 275 174 294T191 326T233 351L269 367Q302 382 328 400T368 444T382 507Q382 567 345 601T247 636Q185 636 149 603T113 511H27Q27 571 54 616T131 686T247 712Q312 712 362 687T440 616T469 507Q469
436 431 387T330 309L284 287Q265 278 260 269T254 238V188H171ZM153 0V119H275V0H153Z" />
<glyph unicode="@" horiz-adv-x="894" d="M406 -221Q333 -221 273 -199T168 -134T101 -35T77 91V333Q77 399 101 453T169 546T275 607T409 628H500Q598 628 671 592T784 490T824 336V196Q824 97 792 47T691 -4Q651 -4 622 16T583 69Q568 36 529 15T433 -6Q369
-6 325 21T257 97T234 204Q234 264 257 312T325 388T433 416Q474 416 511 398T567 351L570 409H643V132Q643 104 655 88T691 71Q724 71 734 99T744 196V336Q744 401 714 449T628 525T500 552H409Q335 552 279 525T192 448T161 333V91Q161 21 191 -33T277 -117T406
-147H581V-221H406ZM440 57Q500 57 535 97T570 204Q570 271 536 311T441 352Q382 352 346 312T310 204Q310 138 345 98T440 57Z" />
<glyph unicode="A" horiz-adv-x="674" d="M31 0L289 700H385L643 0H548L317 645H357L126 0H31ZM151 178L176 250H498L523 178H151Z" />
<glyph unicode="B" horiz-adv-x="597" d="M69 0V700H326Q400 700 448 677T521 613T545 522Q545 468 522 432T461 377T381 354L397 364Q442 363 479 340T540 278T563 191Q563 138 537 95T460 26T335 0H69ZM159 75H325Q395 75 433 107T471 198Q471 256 431 290T323
324H159V75ZM159 395H318Q383 395 418 426T453 511Q453 563 419 594T315 626H159V395Z" />
<glyph unicode="C" horiz-adv-x="705" d="M369 -12Q266 -12 191 33T75 160T34 350Q34 457 75 539T191 666T369 712Q491 712 566 654T663 491H563Q548 555 500 593T368 632Q295 632 241 598T156 501T126 350Q126 262 156 199T240 102T368 68Q451 68 500 105T566
212H665Q643 104 567 46T369 -12Z" />
<glyph unicode="D" horiz-adv-x="685" d="M69 0V700H286Q410 700 489 658T607 536T646 349Q646 241 608 163T490 43T286 0H69ZM159 76H284Q384 76 442 108T527 202T553 349Q553 434 527 496T443 591T284 625H159V76Z" />
<glyph unicode="E" horiz-adv-x="539" d="M61 0V700H497V626H151V389H467V317H151V74H497V0H61Z" />
<glyph unicode="F" horiz-adv-x="523" d="M69 0V700H499V626H159V387H446V315H159V0H69Z" />
<glyph unicode="G" horiz-adv-x="733" d="M384 -12Q276 -12 198 33T77 158T34 344Q34 453 76 536T194 665T376 712Q494 712 573 655T675 497H572Q557 558 507 593T376 629Q299 629 244 595T157 497T126 343Q126 258 158 197T247 102T383 68Q486 68 545 129T608
302H393V376H697V341Q697 227 658 149T548 29T384 -12Z" />
<glyph unicode="H" horiz-adv-x="675" d="M516 0V700H606V0H516ZM69 0V700H159V0H69ZM143 320V393H537V320H143Z" />
<glyph unicode="I" horiz-adv-x="234" d="M72 0V700H162V0H72Z" />
<glyph unicode="J" horiz-adv-x="401" d="M26 0V80H148Q209 80 233 114T257 200V700H347V200Q347 104 294 52T148 0H26Z" />
<glyph unicode="K" horiz-adv-x="630" d="M69 0V700H159V373L468 700H581L302 403L588 0H478L238 337L159 256V0H69Z" />
<glyph unicode="L" horiz-adv-x="521" d="M69 0V700H159V72H483V0H69Z" />
<glyph unicode="M" horiz-adv-x="855" d="M69 0V700H174L450 80L408 78L680 700H786V0H696V612L728 603L463 0H394L126 603L159 612V0H69Z" />
<glyph unicode="N" horiz-adv-x="691" d="M72 0V700H162L529 149V700H619V0H529L162 552V0H72Z" />
<glyph unicode="O" horiz-adv-x="760" d="M380 -12Q277 -12 199 33T78 160T34 350Q34 457 77 538T199 666T380 712Q484 712 561 666T682 539T726 350Q726 242 683 161T562 34T380 -12ZM380 68Q456 68 513 101T602 198T634 350Q634 438 602 501T513 598T380 632Q305
632 248 598T159 501T127 350Q127 262 158 199T247 102T380 68Z" />
<glyph unicode="P" horiz-adv-x="589" d="M69 0V700H303Q385 700 438 673T518 600T544 494Q544 438 519 392T440 317T303 289H159V0H69ZM159 364H301Q382 364 417 399T452 494Q452 557 417 591T301 625H159V364Z" />
<glyph unicode="Q" horiz-adv-x="789" d="M380 -12Q277 -12 199 33T78 160T34 350Q34 457 77 538T199 666T380 712Q484 712 561 666T682 539T726 350Q726 242 683 161T562 34T380 -12ZM380 68Q456 68 513 101T602 198T634 350Q634 438 602 501T513 598T380 632Q305
632 248 598T159 501T127 350Q127 262 158 199T247 102T380 68ZM701 0Q683 0 671 4T646 23L425 269L481 318L687 93Q697 84 703 82T724 79H777V0H701Z" />
<glyph unicode="R" horiz-adv-x="640" d="M69 0V700H345Q428 700 480 673T558 599T583 493Q583 440 560 396T490 323Q538 299 559 256T585 152L593 0H504L496 144Q493 194 479 225T433 270T342 285H159V0H69ZM159 358H339Q418 358 454 395T491 493Q491 554 456
589T339 625H159V358Z" />
<glyph unicode="S" horiz-adv-x="607" d="M308 -12Q255 -12 207 2T121 44T60 115T33 218H121Q126 164 152 131T219 82T309 66Q354 66 392 79T452 120T475 194Q475 233 453 263T370 304L230 330Q154 344 107 392T60 510Q60 574 93 619T182 688T302 712Q370 712
424 689T511 619T551 503H462Q457 549 436 577T380 620T303 634Q261 634 226 621T169 582T147 516Q147 475 177 448T257 410L389 386Q474 370 518 322T563 198Q563 144 542 105T484 40T403 1T308 -12Z" />
<glyph unicode="T" horiz-adv-x="587" d="M249 0V626H41V700H547V626H339V0H249Z" />
<glyph unicode="U" horiz-adv-x="634" d="M316 -12Q243 -12 184 17T90 106T55 260V700H145V259Q145 159 192 114T318 69Q395 69 442 114T489 259V700H579V260Q579 167 544 107T449 17T316 -12Z" />
<glyph unicode="V" horiz-adv-x="710" d="M302 0L40 700H137L355 95L575 700H670L408 0H302Z" />
<glyph unicode="W" horiz-adv-x="1012" d="M236 0L45 700H141L302 52H274L458 700H558L736 51H708L870 700H967L772 0H668L494 610H517L338 0H236Z" />
<glyph unicode="X" horiz-adv-x="637" d="M484 0L51 700H153L586 0H484ZM52 0L282 380L333 312L153 0H52ZM356 326L304 394L484 700H585L356 326Z" />
<glyph unicode="Y" horiz-adv-x="642" d="M277 0V264L40 700H142L339 317H305L502 700H602L367 264V0H277Z" />
<glyph unicode="Z" horiz-adv-x="542" d="M46 0V71L388 623H51V700H493V629L150 77H496V0H46Z" />
<glyph unicode="[" horiz-adv-x="385" d="M91 -154V811H314V737H175V-79H314V-154H91Z" />
<glyph unicode="\" horiz-adv-x="470" d="M356 -97L26 766H115L444 -97H356Z" />
<glyph unicode="]" horiz-adv-x="385" d="M71 -154V-79H210V737H71V811H294V-154H71Z" />
<glyph unicode="^" horiz-adv-x="590" d="M92 453L256 700H334L498 453H410L295 636L180 453H92Z" />
<glyph unicode="_" horiz-adv-x="671" d="M62 -121V-36H607V-121H62Z" />
<glyph unicode="`" horiz-adv-x="400" d="M216 557L95 742H188L283 557H216Z" />
<glyph unicode="a" horiz-adv-x="555" d="M218 -12Q158 -12 117 8T56 63T35 137Q35 218 93 260T247 303Q289 303 323 297T379 283V305Q379 369 346 401T256 434Q210 434 177 415T135 351H45Q51 404 81 439T158 491T256 508Q362 508 415 453T469 305V156Q469 120
473 103T489 82T519 78H526V0H507Q458 0 427 16T385 80Q362 41 322 15T218 -12ZM232 61Q276 61 307 83T357 141T377 217Q354 224 321 229T255 235Q187 235 157 209T126 142Q126 107 153 84T232 61Z" />
<glyph unicode="b" horiz-adv-x="602" d="M325 -12Q264 -12 218 12T146 81V0H56V720H146V415Q170 451 214 479T326 508Q399 508 454 474T540 381T571 247Q571 172 540 114T454 22T325 -12ZM313 66Q362 66 399 89T458 153T480 248Q480 302 459 343T400 407T313
430Q265 430 228 407T169 343T148 248Q148 194 169 153T227 89T313 66Z" />
<glyph unicode="c" horiz-adv-x="548" d="M281 -12Q210 -12 154 21T64 112T31 248Q31 326 64 384T153 475T281 508Q371 508 431 462T509 337H416Q406 381 369 406T281 431Q240 431 204 410T145 349T123 248Q123 189 145 148T203 86T281 65Q331 65 368 89T416 159H509Q493
83 432 36T281 -12Z" />
<glyph unicode="d" horiz-adv-x="602" d="M277 -12Q203 -12 148 22T62 115T31 249Q31 324 62 382T148 474T277 508Q338 508 384 484T456 415V720H546V0H456V81Q432 45 389 17T277 -12ZM289 66Q338 66 375 89T433 153T454 248Q454 302 433 343T375 407T289 430Q241
430 203 407T144 344T123 248Q123 194 144 153T203 89T289 66Z" />
<glyph unicode="e" horiz-adv-x="557" d="M278 -12Q206 -12 151 20T64 111T32 247Q32 326 63 384T150 475T279 508Q352 508 404 476T485 390T514 274Q514 264 514 253T513 228H99V294H425Q422 359 381 396T277 433Q235 433 199 415T142 360T120 269V242Q120 183
142 143T200 83T277 63Q327 63 361 86T411 149H500Q487 104 457 67T382 9T278 -12Z" />
<glyph unicode="f" horiz-adv-x="334" d="M94 0V583Q94 638 108 667T153 708T237 720H291V643H253Q211 643 198 631T184 576V0H94ZM21 420V496H291V420H21Z" />
<glyph unicode="g" horiz-adv-x="620" d="M304 -232Q239 -232 185 -210T95 -145T48 -41H137Q151 -91 196 -122T303 -154Q351 -154 389 -134T449 -73T472 27V98Q456 71 430 47T367 7T282 -9Q212 -9 155 25T65 117T32 250Q32 325 65 383T155 474T282 508Q347 508
396 479T472 410V496H562V30Q562 -52 529 -110T437 -200T304 -232ZM296 69Q346 69 385 92T446 156T468 250Q468 304 446 344T385 407T296 430Q247 430 208 408T147 345T124 250Q124 198 146 157T208 92T296 69Z" />
<glyph unicode="h" horiz-adv-x="569" d="M57 0V720H147V412Q172 457 217 482T317 508Q404 508 455 454T507 288V0H418V279Q418 355 388 393T296 431Q233 431 190 386T147 257V0H57Z" />
<glyph unicode="i" horiz-adv-x="212" d="M62 0V496H152V0H62ZM52 591V701H161V591H52Z" />
<glyph unicode="j" horiz-adv-x="207" d="M-51 -220V-143H-3Q34 -143 45 -133T57 -86V496H147V-90Q147 -139 133 -167T90 -208T13 -220H-51ZM47 591V701H156V591H47Z" />
<glyph unicode="k" horiz-adv-x="530" d="M136 166L110 242L368 496H478L136 166ZM57 0V720H147V0H57ZM392 0L187 264L244 323L506 0H392Z" />
<glyph unicode="l" horiz-adv-x="212" d="M61 0V720H151V0H61Z" />
<glyph unicode="m" horiz-adv-x="899" d="M62 0V496H152V428Q176 466 215 487T304 508Q362 508 405 484T470 412Q496 457 541 482T640 508Q730 508 783 454T837 288V0H747V279Q747 355 717 393T629 431Q571 431 533 386T494 257V0H405V279Q405 355 375 393T287
431Q229 431 191 386T152 257V0H62Z" />
<glyph unicode="n" horiz-adv-x="569" d="M60 0V496H150V414Q174 458 218 483T318 508Q406 508 458 454T510 288V0H420V279Q420 355 389 393T295 431Q232 431 191 386T150 257V0H60Z" />
<glyph unicode="o" horiz-adv-x="576" d="M287 -12Q214 -12 156 20T65 111T32 248Q32 327 65 385T157 475T289 508Q362 508 420 476T511 385T544 248Q544 170 511 112T419 21T287 -12ZM287 65Q332 65 369 85T429 147T452 248Q452 309 430 349T370 410T289 431Q245
431 208 410T147 349T124 248Q124 188 146 147T206 86T287 65Z" />
<glyph unicode="p" horiz-adv-x="602" d="M56 -220V496H146V415Q170 451 214 479T326 508Q399 508 454 474T540 381T571 247Q571 172 540 114T454 22T325 -12Q264 -12 218 12T146 81V-220H56ZM313 66Q362 66 399 89T458 153T480 248Q480 302 459 343T400 407T313
430Q265 430 228 407T169 343T148 248Q148 194 169 153T227 89T313 66Z" />
<glyph unicode="q" horiz-adv-x="602" d="M456 -220V81Q432 45 389 17T277 -12Q203 -12 148 22T62 115T31 249Q31 324 62 382T148 474T277 508Q338 508 384 484T456 415V496H546V-220H456ZM289 66Q338 66 375 89T433 153T454 248Q454 302 433 343T375 407T289
430Q241 430 203 407T144 344T123 248Q123 194 144 153T203 89T289 66Z" />
<glyph unicode="r" horiz-adv-x="381" d="M60 0V496H150V418Q167 457 196 478T267 500H341V416H258Q226 416 202 398T164 341T150 236V0H60Z" />
<glyph unicode="s" horiz-adv-x="495" d="M253 -12Q162 -12 101 30T30 155H123Q131 112 166 87T256 62Q308 62 336 84T364 140Q364 165 347 178T282 200Q263 204 242 208T201 215Q167 222 134 238T78 283T56 358Q56 422 105 465T239 508Q321 508 375 471T436 354H347Q343
397 313 415T238 434Q195 434 168 415T140 365Q140 311 221 295Q233 294 246 292T274 287T299 282Q323 278 349 271T398 249T435 210T450 147Q450 101 426 65T358 9T253 -12Z" />
<glyph unicode="t" horiz-adv-x="355" d="M226 0Q184 0 155 10T112 50T97 132V420H11V496H97V617H187V496H327V420H187V146Q187 114 192 99T213 81T259 77H320V0H226Z" />
<glyph unicode="u" horiz-adv-x="538" d="M236 -12Q155 -12 104 42T53 208V496H143V217Q143 141 173 103T258 65Q321 65 357 110T393 239V496H483V0H393V80Q371 37 331 13T236 -12Z" />
<glyph unicode="v" horiz-adv-x="552" d="M224 0L36 496H131L277 86L423 496H516L329 0H224Z" />
<glyph unicode="w" horiz-adv-x="806" d="M188 0L43 496H133L246 70L223 71L352 496H454L583 71L560 70L673 496H763L618 0H526L391 444H415L280 0H188Z" />
<glyph unicode="x" horiz-adv-x="566" d="M49 0L222 248L49 496H146L283 295L421 496H517L344 248L517 0H421L283 201L146 0H49Z" />
<glyph unicode="y" horiz-adv-x="590" d="M46 -220V-146H147Q161 -146 170 -142T189 -122T211 -77L267 46L259 -1L42 496H139L300 115L470 496H564L295 -101Q277 -141 264 -165T240 -200T214 -216T176 -220H46Z" />
<glyph unicode="z" horiz-adv-x="465" d="M39 0V73L312 421H43V496H413V423L139 75H418V0H39Z" />
<glyph unicode="{" horiz-adv-x="385" d="M281 -154Q211 -154 169 -117T126 -10Q126 29 134 58T150 116T158 183Q158 220 133 250T44 292V365Q107 377 132 407T158 474Q158 512 150 541T134 600T126 667Q126 737 168 774T281 811H336V739H301Q260 739 238 720T216
660Q216 632 224 604T240 543T248 471Q248 419 220 381T124 329V328Q192 315 220 277T248 186Q248 147 240 115T224 54T216 -3Q216 -44 238 -63T301 -82H336V-154H281Z" />
<glyph unicode="|" horiz-adv-x="234" d="M72 -100V720H162V-100H72Z" />
<glyph unicode="}" horiz-adv-x="385" d="M49 -154V-82H84Q125 -82 147 -63T169 -3Q169 25 161 53T145 114T137 186Q137 239 165 277T261 328V329Q193 343 165 381T137 471Q137 511 145 543T161 603T169 660Q169 701 147 720T84 739H49V811H104Q174 811 216 774T259
667Q259 630 251 601T235 542T227 474Q227 438 252 408T341 365V292Q278 280 253 250T227 183Q227 145 235 116T251 58T259 -10Q259 -80 217 -117T104 -154H49Z" />
<glyph unicode="~" horiz-adv-x="590" d="M66 247Q79 322 115 358T205 394Q234 394 258 384T305 361T349 337T391 327Q418 327 435 345T456 393H524Q512 319 477 283T385 247Q357 247 333 257T286 280T243 303T200 313Q173 313 156 295T133 247H66Z" />
<glyph unicode="&#xa0;" horiz-adv-x="307" />
<glyph unicode="&#xa1;" horiz-adv-x="275" d="M87 -142L97 360H174L185 -142H87ZM77 444V563H198V444H77Z" />
<glyph unicode="&#xa2;" horiz-adv-x="650" d="M333 -12Q262 -12 206 21T116 112T83 248Q83 326 116 384T205 475T333 508Q423 508 483 462T561 337H469Q458 381 421 406T333 431Q292 431 256 410T198 349T176 248Q176 189 198 148T256 86T333 65Q384 65 421 89T469
159H561Q545 83 484 36T333 -12ZM287 -104V44H373V-104H287ZM287 452V600H373V452H287Z" />
<glyph unicode="&#xa3;" horiz-adv-x="650" d="M71 0V56Q101 82 127 108T170 167T187 243Q187 276 178 307T156 369T135 435T125 511Q125 570 152 615T231 686T358 712Q433 712 481 684T554 609T583 505H501Q498 562 463 599T359 637Q291 637 253 601T215 502Q215
468 224 438T244 377T265 317T274 254Q274 200 250 154T185 73H585V0H71ZM50 306V371H457V306H50Z" />
<glyph unicode="&#xa4;" horiz-adv-x="650" d="M322 118Q269 118 230 140T169 202T147 297Q147 352 168 392T229 454T322 476Q377 476 416 454T476 392T498 297Q498 242 477 202T416 140T322 118ZM322 182Q377 182 400 216T424 297Q424 344 401 377T322 411Q268
411 245 378T222 297Q222 250 245 216T322 182ZM200 382L118 463L163 508L243 429L200 382ZM449 380L407 428L488 508L533 463L449 380ZM488 87L409 165L452 212L533 133L488 87ZM163 87L118 133L200 214L244 168L163 87Z" />
<glyph unicode="&#xa5;" horiz-adv-x="650" d="M281 0V264L52 700H153L344 308H306L497 700H598L371 264V0H281ZM81 165V230H571V165H81ZM81 318V383H286L295 318H81ZM371 318L380 383H571V318H371Z" />
<glyph unicode="&#xa6;" horiz-adv-x="234" d="M72 388V720H162V388H72ZM72 -100V232H162V-100H72Z" />
<glyph unicode="&#xa7;" horiz-adv-x="595" d="M306 -243Q253 -243 205 -229T119 -187T58 -116T30 -13H118Q124 -66 150 -100T217 -149T307 -165Q352 -165 389 -152T450 -111T473 -36Q473 3 451 32T368 73L228 99Q152 113 105 162T58 279Q58 329 79 367T135 430L189
371Q170 357 158 336T145 285Q145 244 175 217T255 180L387 155Q472 139 516 91T561 -33Q561 -87 540 -126T482 -191T400 -230T306 -243ZM495 50L436 108Q453 123 463 145T473 194Q473 233 451 263T368 304L228 330Q152 344 105 392T58 510Q58 574 91 619T180 688T300
712Q368 712 422 689T509 619T549 503H460Q454 549 433 577T378 620T301 634Q259 634 224 621T167 582T145 516Q145 475 175 448T255 410L387 386Q472 370 516 322T561 198Q561 150 543 114T495 50Z" />
<glyph unicode="&#xa8;" horiz-adv-x="400" d="M228 591V701H332V591H228ZM69 591V701H173V591H69Z" />
<glyph unicode="&#xa9;" horiz-adv-x="774" d="M387 -5Q285 -5 207 41T85 167T41 351Q41 455 84 534T206 659T387 705Q490 705 568 660T689 535T733 351Q733 247 690 167T568 41T387 -5ZM387 119Q327 119 278 146T200 226T170 351Q170 424 199 476T278 555T387
583Q462 583 518 543T592 429H511Q497 473 464 495T386 518Q349 518 317 500T267 444T248 351Q248 295 266 258T317 203T386 184Q432 184 464 206T511 272H592Q574 201 518 160T387 119ZM387 49Q477 49 542 87T642 193T678 351Q678 440 643 508T542 614T387 652Q298
652 233 614T132 508T96 351Q96 262 131 194T232 87T387 49Z" />
<glyph unicode="&#xaa;" horiz-adv-x="452" d="M209 347Q163 347 124 369T60 432T36 526Q36 581 59 622T123 686T210 709Q264 709 298 685T348 629L337 596V704H406V353H337V460L350 437Q338 399 303 373T209 347ZM221 403Q268 403 301 436T334 528Q334 587 301
620T221 653Q175 653 142 620T109 527Q109 468 142 436T221 403Z" />
<glyph unicode="&#xab;" horiz-adv-x="508" d="M177 120L48 295L177 470H272L141 295L272 120H177ZM368 120L239 295L368 470H463L332 295L463 120H368Z" />
<glyph unicode="&#xac;" horiz-adv-x="590" d="M440 170V312H68V388H522V170H440Z" />
<glyph unicode="&#xae;" horiz-adv-x="501" d="M251 305Q192 305 147 331T75 404T49 508Q49 567 75 613T146 685T251 712Q310 712 355 686T426 613T452 508Q452 450 426 404T355 332T251 305ZM251 342Q324 342 367 388T411 508Q411 581 368 627T251 674Q178 674
134 628T90 508Q90 435 134 389T251 342ZM170 403V617H267Q300 617 320 600T340 551Q340 519 317 501Q329 492 333 478T339 447L342 403H294L291 435Q288 466 282 475T254 485H219V403H170ZM219 524H262Q274 524 282 530T291 549Q291 562 283 568T262 574H219V524Z"
/>
<glyph unicode="&#xaf;" horiz-adv-x="400" d="M44 590V671H356V590H44Z" />
<glyph unicode="&#xb0;" horiz-adv-x="362" d="M184 442Q148 442 118 458T69 505T51 576Q51 618 69 648T118 695T185 712Q221 712 251 696T299 649T317 576Q317 535 299 505T251 459T184 442ZM184 507Q208 507 229 524T250 577Q250 612 230 629T185 647Q161 647
140 630T119 577Q119 542 139 525T184 507Z" />
<glyph unicode="&#xb1;" horiz-adv-x="590" d="M68 360V436H522V360H68ZM68 89V165H522V89H68ZM255 212V584H335V212H255Z" />
<glyph unicode="&#xb2;" horiz-adv-x="359" d="M52 352V386Q52 432 75 460T139 512Q161 525 182 537T218 564T232 602Q232 628 217 642T180 656Q129 656 121 599H50Q53 645 87 677T184 710Q242 710 275 679T308 603Q308 561 280 533T200 478Q167 462 147 443T126
391L112 410H311V352H52Z" />
<glyph unicode="&#xb3;" horiz-adv-x="351" d="M176 347Q114 347 79 375T39 455H110Q114 424 132 412T175 400Q203 400 220 414T237 453Q237 480 219 493T171 507H126V550H170Q198 550 216 564T234 604Q234 627 218 641T174 656Q146 656 131 644T110 610H42Q47
652 82 681T180 710Q235 710 272 681T310 608Q310 577 293 557T245 529V527Q274 518 293 498T312 444Q312 405 276 376T176 347Z" />
<glyph unicode="&#xb4;" horiz-adv-x="400" d="M118 557L213 742H306L185 557H118Z" />
<glyph unicode="&#xb5;" horiz-adv-x="587" d="M73 -220V496H163V217Q163 141 195 103T288 65Q351 65 392 110T434 239V496H524V0H440L437 88Q413 41 368 15T266 -12Q203 -12 163 18V-220H73Z" />
<glyph unicode="&#xb6;" horiz-adv-x="653" d="M316 -100V294H305Q223 294 171 321T94 393T68 496Q68 554 93 600T171 673T305 700H554V-100H475V629H394V-100H316Z" />
<glyph unicode="&#xb7;" horiz-adv-x="224" d="M112 280Q86 280 70 297T53 340Q53 366 69 383T112 400Q137 400 153 383T170 340Q170 315 154 298T112 280Z" />
<glyph unicode="&#xb8;" horiz-adv-x="400" d="M84 -260V-204H179Q213 -204 230 -193T247 -157Q247 -135 230 -125T179 -114H125Q116 -114 116 -107Q116 -104 118 -101L165 7H228L184 -65Q188 -64 192 -64T200 -64Q252 -64 284 -88T316 -158Q316 -190 301 -213T258
-248T195 -260H84Z" />
<glyph unicode="&#xb9;" horiz-adv-x="237" d="M104 352V615H37V664H75Q89 664 96 672T104 693V704H176V352H104Z" />
<glyph unicode="&#xba;" horiz-adv-x="440" d="M215 348Q162 348 121 371T56 435T32 530Q32 585 56 626T121 689T216 712Q270 712 311 690T377 626T401 530Q401 477 377 436T310 371T215 348ZM215 406Q260 406 294 437T328 530Q328 592 295 623T215 655Q170 655
138 624T105 530Q105 469 137 438T215 406Z" />
<glyph unicode="&#xbb;" horiz-adv-x="508" d="M236 120L368 295L236 470H332L460 295L332 120H236ZM45 120L176 295L45 470H140L269 295L140 120H45Z" />
<glyph unicode="&#xbc;" horiz-adv-x="727" d="M105 0L476 700H561L192 0H105ZM118 352V615H50V664H88Q102 664 110 672T118 693V704H190V352H118ZM540 0V69H358V111L518 354H611V115H659V69H611V0H540ZM429 115H542V290L429 115Z" />
<glyph unicode="&#xbd;" horiz-adv-x="769" d="M109 0L474 700H560L196 0H109ZM116 352V615H49V664H87Q101 664 108 672T116 693V704H188V352H116ZM432 0V34Q432 80 455 108T518 160Q541 173 562 185T597 212T612 250Q612 276 597 290T559 304Q508 304 501 247H430Q433
293 466 325T563 358Q622 358 654 327T687 251Q687 209 659 181T579 126Q546 110 526 91T505 39L491 58H691V0H432Z" />
<glyph unicode="&#xbe;" horiz-adv-x="827" d="M195 0L573 700H658L280 0H195ZM194 347Q131 347 96 375T56 455H127Q131 424 149 412T192 400Q220 400 237 414T254 453Q254 480 236 493T188 507H143V550H187Q216 550 234 564T252 604Q252 627 236 641T191 656Q163
656 148 644T127 610H59Q64 652 99 681T197 710Q252 710 289 681T327 608Q327 577 310 557T262 529V527Q292 518 311 498T330 444Q330 405 294 376T194 347ZM638 0V69H456V111L616 354H710V115H758V69H710V0H638ZM527 115H641V290L527 115Z" />
<glyph unicode="&#xbf;" horiz-adv-x="500" d="M249 -162Q184 -162 135 -137T57 -66T28 43Q28 114 66 163T167 241L213 263Q232 272 237 280T243 312V362H326V306Q326 274 323 255T306 224T263 198L228 183Q194 169 169 150T129 106T114 43Q114 -17 152 -52T250
-87Q312 -87 347 -53T383 39H469Q469 -21 442 -66T366 -137T249 -162ZM222 430V550H344V430H222Z" />
<glyph unicode="&#xc0;" horiz-adv-x="674" d="M31 0L289 700H385L643 0H548L317 645H357L126 0H31ZM151 178L176 250H498L523 178H151ZM293 761L172 946H265L360 761H293Z" />
<glyph unicode="&#xc1;" horiz-adv-x="674" d="M31 0L289 700H385L643 0H548L317 645H357L126 0H31ZM151 178L176 250H498L523 178H151ZM316 761L411 946H504L383 761H316Z" />
<glyph unicode="&#xc2;" horiz-adv-x="674" d="M31 0L289 700H385L643 0H548L317 645H357L126 0H31ZM151 178L176 250H498L523 178H151ZM200 754V837L338 919L476 837V754L338 838L200 754Z" />
<glyph unicode="&#xc3;" horiz-adv-x="674" d="M31 0L289 700H385L643 0H548L317 645H357L126 0H31ZM151 178L176 250H498L523 178H151ZM386 760Q359 760 340 771T305 793T275 805Q261 805 251 795T239 761H176Q184 824 209 852T273 880Q300 880 319 869T355 846T386
834Q401 834 411 845T423 878H485Q479 817 452 789T386 760Z" />
<glyph unicode="&#xc4;" horiz-adv-x="674" d="M31 0L289 700H385L643 0H548L317 645H357L126 0H31ZM151 178L176 250H498L523 178H151ZM365 795V905H469V795H365ZM206 795V905H310V795H206Z" />
<glyph unicode="&#xc5;" horiz-adv-x="674" d="M31 0L289 700H385L643 0H548L317 645H357L126 0H31ZM151 178L176 250H498L523 178H151ZM338 759Q295 759 264 787T232 864Q232 913 263 940T338 968Q382 968 413 941T444 864Q444 816 413 788T338 759ZM338 815Q358
815 371 828T385 864Q385 886 372 899T338 912Q319 912 306 899T292 864Q292 842 305 829T338 815Z" />
<glyph unicode="&#xc6;" horiz-adv-x="904" d="M31 0L428 700H862V628H574V389H832V318H574V72H862V0H484V627L130 0H31ZM168 157L205 227H526V157H168Z" />
<glyph unicode="&#xc7;" horiz-adv-x="705" d="M369 -12Q266 -12 191 33T75 160T34 350Q34 457 75 539T191 666T369 712Q491 712 566 654T663 491H563Q548 555 500 593T368 632Q295 632 241 598T156 501T126 350Q126 262 156 199T240 102T368 68Q451 68 500 105T566
212H665Q643 104 567 46T369 -12ZM260 -261V-205H355Q389 -205 406 -194T423 -158Q423 -136 406 -126T355 -115H301Q292 -115 292 -108Q292 -105 294 -102L341 6H404L360 -66Q364 -65 368 -65T376 -65Q428 -65 460 -89T492 -159Q492 -191 477 -214T434 -249T371
-261H260Z" />
<glyph unicode="&#xc8;" horiz-adv-x="539" d="M61 0V700H497V626H151V389H467V317H151V74H497V0H61ZM252 761L131 946H224L319 761H252Z" />
<glyph unicode="&#xc9;" horiz-adv-x="539" d="M61 0V700H497V626H151V389H467V317H151V74H497V0H61ZM275 761L370 946H463L342 761H275Z" />
<glyph unicode="&#xca;" horiz-adv-x="539" d="M61 0V700H497V626H151V389H467V317H151V74H497V0H61ZM159 754V837L297 919L435 837V754L297 838L159 754Z" />
<glyph unicode="&#xcb;" horiz-adv-x="539" d="M61 0V700H497V626H151V389H467V317H151V74H497V0H61ZM325 795V905H429V795H325ZM166 795V905H270V795H166Z" />
<glyph unicode="&#xcc;" horiz-adv-x="234" d="M72 0V700H162V0H72ZM72 761L-49 946H44L139 761H72Z" />
<glyph unicode="&#xcd;" horiz-adv-x="234" d="M72 0V700H162V0H72ZM95 761L190 946H283L162 761H95Z" />
<glyph unicode="&#xce;" horiz-adv-x="234" d="M72 0V700H162V0H72ZM-21 754V837L117 919L255 837V754L117 838L-21 754Z" />
<glyph unicode="&#xcf;" horiz-adv-x="234" d="M72 0V700H162V0H72ZM144 795V905H248V795H144ZM-15 795V905H89V795H-15Z" />
<glyph unicode="&#xd0;" horiz-adv-x="709" d="M95 0V700H311Q435 700 514 658T632 536T671 349Q671 241 633 163T515 43T311 0H95ZM21 309V389H386V309H21ZM185 76H309Q409 76 468 108T553 202T579 349Q579 434 553 496T468 591T309 625H185V76Z" />
<glyph unicode="&#xd1;" horiz-adv-x="691" d="M72 0V700H162L529 149V700H619V0H529L162 552V0H72ZM391 760Q364 760 345 771T310 793T280 805Q266 805 256 795T244 761H181Q189 824 214 852T278 880Q305 880 324 869T360 846T391 834Q406 834 416 845T428 878H490Q484
817 457 789T391 760Z" />
<glyph unicode="&#xd2;" horiz-adv-x="760" d="M380 -12Q277 -12 199 33T78 160T34 350Q34 457 77 538T199 666T380 712Q484 712 561 666T682 539T726 350Q726 242 683 161T562 34T380 -12ZM380 68Q456 68 513 101T602 198T634 350Q634 438 602 501T513 598T380
632Q305 632 248 598T159 501T127 350Q127 262 158 199T247 102T380 68ZM335 761L214 946H307L402 761H335Z" />
<glyph unicode="&#xd3;" horiz-adv-x="760" d="M380 -12Q277 -12 199 33T78 160T34 350Q34 457 77 538T199 666T380 712Q484 712 561 666T682 539T726 350Q726 242 683 161T562 34T380 -12ZM380 68Q456 68 513 101T602 198T634 350Q634 438 602 501T513 598T380
632Q305 632 248 598T159 501T127 350Q127 262 158 199T247 102T380 68ZM358 761L453 946H546L425 761H358Z" />
<glyph unicode="&#xd4;" horiz-adv-x="760" d="M380 -12Q277 -12 199 33T78 160T34 350Q34 457 77 538T199 666T380 712Q484 712 561 666T682 539T726 350Q726 242 683 161T562 34T380 -12ZM380 68Q456 68 513 101T602 198T634 350Q634 438 602 501T513 598T380
632Q305 632 248 598T159 501T127 350Q127 262 158 199T247 102T380 68ZM242 754V837L380 919L518 837V754L380 838L242 754Z" />
<glyph unicode="&#xd5;" horiz-adv-x="760" d="M380 -12Q277 -12 199 33T78 160T34 350Q34 457 77 538T199 666T380 712Q484 712 561 666T682 539T726 350Q726 242 683 161T562 34T380 -12ZM380 68Q456 68 513 101T602 198T634 350Q634 438 602 501T513 598T380
632Q305 632 248 598T159 501T127 350Q127 262 158 199T247 102T380 68ZM428 760Q401 760 382 771T347 793T317 805Q303 805 293 795T281 761H218Q226 824 251 852T315 880Q342 880 361 869T397 846T428 834Q443 834 453 845T465 878H527Q521 817 494 789T428 760Z"
/>
<glyph unicode="&#xd6;" horiz-adv-x="760" d="M380 -12Q277 -12 199 33T78 160T34 350Q34 457 77 538T199 666T380 712Q484 712 561 666T682 539T726 350Q726 242 683 161T562 34T380 -12ZM380 68Q456 68 513 101T602 198T634 350Q634 438 602 501T513 598T380
632Q305 632 248 598T159 501T127 350Q127 262 158 199T247 102T380 68ZM407 795V905H511V795H407ZM248 795V905H352V795H248Z" />
<glyph unicode="&#xd7;" horiz-adv-x="590" d="M157 157L102 212L433 543L488 488L157 157ZM428 163L108 483L162 537L482 217L428 163Z" />
<glyph unicode="&#xd8;" horiz-adv-x="787" d="M381 -12Q278 -12 200 33T79 160T35 350Q35 457 78 538T200 666T381 712Q485 712 562 666T683 539T726 350Q726 242 683 161T563 34T381 -12ZM39 0L655 700H749L134 0H39ZM381 68Q457 68 514 101T602 198T634 350Q634
438 603 501T514 598T381 632Q306 632 249 598T160 501T128 350Q128 262 159 199T248 102T381 68Z" />
<glyph unicode="&#xd9;" horiz-adv-x="634" d="M316 -12Q243 -12 184 17T90 106T55 260V700H145V259Q145 159 192 114T318 69Q395 69 442 114T489 259V700H579V260Q579 167 544 107T449 17T316 -12ZM271 761L150 946H243L338 761H271Z" />
<glyph unicode="&#xda;" horiz-adv-x="634" d="M316 -12Q243 -12 184 17T90 106T55 260V700H145V259Q145 159 192 114T318 69Q395 69 442 114T489 259V700H579V260Q579 167 544 107T449 17T316 -12ZM294 761L389 946H482L361 761H294Z" />
<glyph unicode="&#xdb;" horiz-adv-x="634" d="M316 -12Q243 -12 184 17T90 106T55 260V700H145V259Q145 159 192 114T318 69Q395 69 442 114T489 259V700H579V260Q579 167 544 107T449 17T316 -12ZM178 754V837L316 919L454 837V754L316 838L178 754Z" />
<glyph unicode="&#xdc;" horiz-adv-x="634" d="M316 -12Q243 -12 184 17T90 106T55 260V700H145V259Q145 159 192 114T318 69Q395 69 442 114T489 259V700H579V260Q579 167 544 107T449 17T316 -12ZM344 795V905H448V795H344ZM185 795V905H289V795H185Z" />
<glyph unicode="&#xdd;" horiz-adv-x="642" d="M277 0V264L40 700H142L339 317H305L502 700H602L367 264V0H277ZM299 761L394 946H487L366 761H299Z" />
<glyph unicode="&#xde;" horiz-adv-x="589" d="M69 0V700H159V556H303Q385 556 438 529T518 456T544 350Q544 293 519 247T440 173T303 145H159V0H69ZM159 220H301Q382 220 417 255T452 350Q452 412 417 446T301 481H159V220Z" />
<glyph unicode="&#xdf;" horiz-adv-x="579" d="M59 0V517Q59 575 86 618T164 687T279 712Q344 712 391 688T464 624T490 536Q490 485 461 442T371 382L353 408Q442 396 493 343T544 207Q544 147 518 101T439 27T309 0H209V77H300Q353 77 386 93T436 140T453 211Q453
249 434 278T373 324T266 341H220V415H255Q324 415 362 445T400 524Q400 574 368 604T276 634Q219 634 184 600T149 500V0H59Z" />
<glyph unicode="&#xe0;" horiz-adv-x="555" d="M218 -12Q158 -12 117 8T56 63T35 137Q35 218 93 260T247 303Q289 303 323 297T379 283V305Q379 369 346 401T256 434Q210 434 177 415T135 351H45Q51 404 81 439T158 491T256 508Q362 508 415 453T469 305V156Q469
120 473 103T489 82T519 78H526V0H507Q458 0 427 16T385 80Q362 41 322 15T218 -12ZM232 61Q276 61 307 83T357 141T377 217Q354 224 321 229T255 235Q187 235 157 209T126 142Q126 107 153 84T232 61ZM214 557L93 742H186L281 557H214Z" />
<glyph unicode="&#xe1;" horiz-adv-x="555" d="M218 -12Q158 -12 117 8T56 63T35 137Q35 218 93 260T247 303Q289 303 323 297T379 283V305Q379 369 346 401T256 434Q210 434 177 415T135 351H45Q51 404 81 439T158 491T256 508Q362 508 415 453T469 305V156Q469
120 473 103T489 82T519 78H526V0H507Q458 0 427 16T385 80Q362 41 322 15T218 -12ZM232 61Q276 61 307 83T357 141T377 217Q354 224 321 229T255 235Q187 235 157 209T126 142Q126 107 153 84T232 61ZM237 557L332 742H425L304 557H237Z" />
<glyph unicode="&#xe2;" horiz-adv-x="555" d="M218 -12Q158 -12 117 8T56 63T35 137Q35 218 93 260T247 303Q289 303 323 297T379 283V305Q379 369 346 401T256 434Q210 434 177 415T135 351H45Q51 404 81 439T158 491T256 508Q362 508 415 453T469 305V156Q469
120 473 103T489 82T519 78H526V0H507Q458 0 427 16T385 80Q362 41 322 15T218 -12ZM232 61Q276 61 307 83T357 141T377 217Q354 224 321 229T255 235Q187 235 157 209T126 142Q126 107 153 84T232 61ZM121 550V633L259 715L397 633V550L259 634L121 550Z" />
<glyph unicode="&#xe3;" horiz-adv-x="555" d="M218 -12Q158 -12 117 8T56 63T35 137Q35 218 93 260T247 303Q289 303 323 297T379 283V305Q379 369 346 401T256 434Q210 434 177 415T135 351H45Q51 404 81 439T158 491T256 508Q362 508 415 453T469 305V156Q469
120 473 103T489 82T519 78H526V0H507Q458 0 427 16T385 80Q362 41 322 15T218 -12ZM232 61Q276 61 307 83T357 141T377 217Q354 224 321 229T255 235Q187 235 157 209T126 142Q126 107 153 84T232 61ZM307 556Q280 556 261 567T226 589T196 601Q182 601 172 591T160
557H97Q105 620 130 648T194 676Q221 676 240 665T276 642T307 630Q322 630 332 641T344 674H406Q400 613 373 585T307 556Z" />
<glyph unicode="&#xe4;" horiz-adv-x="555" d="M218 -12Q158 -12 117 8T56 63T35 137Q35 218 93 260T247 303Q289 303 323 297T379 283V305Q379 369 346 401T256 434Q210 434 177 415T135 351H45Q51 404 81 439T158 491T256 508Q362 508 415 453T469 305V156Q469
120 473 103T489 82T519 78H526V0H507Q458 0 427 16T385 80Q362 41 322 15T218 -12ZM232 61Q276 61 307 83T357 141T377 217Q354 224 321 229T255 235Q187 235 157 209T126 142Q126 107 153 84T232 61ZM286 591V701H390V591H286ZM127 591V701H231V591H127Z" />
<glyph unicode="&#xe5;" horiz-adv-x="555" d="M218 -12Q158 -12 117 8T56 63T35 137Q35 218 93 260T247 303Q289 303 323 297T379 283V305Q379 369 346 401T256 434Q210 434 177 415T135 351H45Q51 404 81 439T158 491T256 508Q362 508 415 453T469 305V156Q469
120 473 103T489 82T519 78H526V0H507Q458 0 427 16T385 80Q362 41 322 15T218 -12ZM232 61Q276 61 307 83T357 141T377 217Q354 224 321 229T255 235Q187 235 157 209T126 142Q126 107 153 84T232 61ZM259 555Q216 555 185 583T153 660Q153 709 184 736T259 764Q303
764 334 737T365 660Q365 612 334 584T259 555ZM259 611Q279 611 292 624T306 660Q306 682 293 695T259 708Q240 708 227 695T213 660Q213 638 226 625T259 611Z" />
<glyph unicode="&#xe6;" horiz-adv-x="900" d="M220 -12Q157 -12 116 9T53 65T32 141Q32 216 89 256T243 297H380V305Q380 368 347 400T262 433Q218 433 184 410T142 340H51Q56 394 87 431T164 488T262 508Q325 508 370 485T440 420Q472 462 520 485T625 508Q696
508 747 476T827 391T856 276Q856 266 856 255T855 230H471Q474 174 496 137T552 82T624 63Q678 63 712 90T761 164H849Q836 114 806 74T730 11T624 -12Q558 -12 505 18T419 104Q390 54 341 21T220 -12ZM227 63Q269 63 302 84T356 141T378 219V230H252Q184 230
154 207T124 147Q124 109 152 86T227 63ZM473 297H767Q763 361 723 397T625 433Q588 433 555 418T500 372T473 297Z" />
<glyph unicode="&#xe7;" horiz-adv-x="548" d="M281 -12Q210 -12 154 21T64 112T31 248Q31 326 64 384T153 475T281 508Q371 508 431 462T509 337H416Q406 381 369 406T281 431Q240 431 204 410T145 349T123 248Q123 189 145 148T203 86T281 65Q331 65 368 89T416
159H509Q493 83 432 36T281 -12ZM170 -262V-206H265Q299 -206 316 -195T333 -159Q333 -137 316 -127T265 -116H211Q202 -116 202 -109Q202 -106 204 -103L251 5H314L270 -67Q274 -66 278 -66T286 -66Q338 -66 370 -90T402 -160Q402 -192 387 -215T344 -250T281
-262H170Z" />
<glyph unicode="&#xe8;" horiz-adv-x="557" d="M278 -12Q206 -12 151 20T64 111T32 247Q32 326 63 384T150 475T279 508Q352 508 404 476T485 390T514 274Q514 264 514 253T513 228H99V294H425Q422 359 381 396T277 433Q235 433 199 415T142 360T120 269V242Q120
183 142 143T200 83T277 63Q327 63 361 86T411 149H500Q487 104 457 67T382 9T278 -12ZM236 557L115 742H208L303 557H236Z" />
<glyph unicode="&#xe9;" horiz-adv-x="557" d="M278 -12Q206 -12 151 20T64 111T32 247Q32 326 63 384T150 475T279 508Q352 508 404 476T485 390T514 274Q514 264 514 253T513 228H99V294H425Q422 359 381 396T277 433Q235 433 199 415T142 360T120 269V242Q120
183 142 143T200 83T277 63Q327 63 361 86T411 149H500Q487 104 457 67T382 9T278 -12ZM259 557L354 742H447L326 557H259Z" />
<glyph unicode="&#xea;" horiz-adv-x="557" d="M278 -12Q206 -12 151 20T64 111T32 247Q32 326 63 384T150 475T279 508Q352 508 404 476T485 390T514 274Q514 264 514 253T513 228H99V294H425Q422 359 381 396T277 433Q235 433 199 415T142 360T120 269V242Q120
183 142 143T200 83T277 63Q327 63 361 86T411 149H500Q487 104 457 67T382 9T278 -12ZM143 550V633L281 715L419 633V550L281 634L143 550Z" />
<glyph unicode="&#xeb;" horiz-adv-x="557" d="M278 -12Q206 -12 151 20T64 111T32 247Q32 326 63 384T150 475T279 508Q352 508 404 476T485 390T514 274Q514 264 514 253T513 228H99V294H425Q422 359 381 396T277 433Q235 433 199 415T142 360T120 269V242Q120
183 142 143T200 83T277 63Q327 63 361 86T411 149H500Q487 104 457 67T382 9T278 -12ZM309 591V701H413V591H309ZM150 591V701H254V591H150Z" />
<glyph unicode="&#xec;" horiz-adv-x="210" d="M60 0V496H150V0H60ZM61 563L-21 742H72L129 563H61Z" />
<glyph unicode="&#xed;" horiz-adv-x="210" d="M60 0V496H150V0H60ZM81 563L138 742H231L149 563H81Z" />
<glyph unicode="&#xee;" horiz-adv-x="210" d="M60 0V496H150V0H60ZM1 554V638L105 715L208 638V554L105 633L1 554Z" />
<glyph unicode="&#xef;" horiz-adv-x="210" d="M60 0V496H150V0H60ZM127 591V701H211V591H127ZM0 591V701H84V591H0Z" />
<glyph unicode="&#xf0;" horiz-adv-x="589" d="M290 -12Q214 -12 154 23T60 116T26 247Q26 322 60 380T153 472T284 506Q321 506 357 496T425 464T479 403L468 397Q445 479 395 555T260 700H349Q419 643 465 575T535 432T558 274Q558 189 523 125T427 24T290 -12ZM292
64Q338 64 378 86T442 150T467 248Q467 304 443 345T378 408T292 430Q246 430 207 408T143 345T118 248Q118 192 142 151T206 87T292 64ZM232 549V609L520 708V648L232 549Z" />
<glyph unicode="&#xf1;" horiz-adv-x="569" d="M60 0V496H150V414Q174 458 218 483T318 508Q406 508 458 454T510 288V0H420V279Q420 355 389 393T295 431Q232 431 191 386T150 257V0H60ZM352 556Q325 556 306 567T271 589T241 601Q227 601 217 591T205 557H142Q150
620 175 648T239 676Q266 676 285 665T321 642T352 630Q367 630 377 641T389 674H451Q445 613 418 585T352 556Z" />
<glyph unicode="&#xf2;" horiz-adv-x="576" d="M287 -12Q214 -12 156 20T65 111T32 248Q32 327 65 385T157 475T289 508Q362 508 420 476T511 385T544 248Q544 170 511 112T419 21T287 -12ZM287 65Q332 65 369 85T429 147T452 248Q452 309 430 349T370 410T289
431Q245 431 208 410T147 349T124 248Q124 188 146 147T206 86T287 65ZM243 557L122 742H215L310 557H243Z" />
<glyph unicode="&#xf3;" horiz-adv-x="576" d="M287 -12Q214 -12 156 20T65 111T32 248Q32 327 65 385T157 475T289 508Q362 508 420 476T511 385T544 248Q544 170 511 112T419 21T287 -12ZM287 65Q332 65 369 85T429 147T452 248Q452 309 430 349T370 410T289
431Q245 431 208 410T147 349T124 248Q124 188 146 147T206 86T287 65ZM266 557L361 742H454L333 557H266Z" />
<glyph unicode="&#xf4;" horiz-adv-x="576" d="M287 -12Q214 -12 156 20T65 111T32 248Q32 327 65 385T157 475T289 508Q362 508 420 476T511 385T544 248Q544 170 511 112T419 21T287 -12ZM287 65Q332 65 369 85T429 147T452 248Q452 309 430 349T370 410T289
431Q245 431 208 410T147 349T124 248Q124 188 146 147T206 86T287 65ZM150 550V633L288 715L426 633V550L288 634L150 550Z" />
<glyph unicode="&#xf5;" horiz-adv-x="576" d="M287 -12Q214 -12 156 20T65 111T32 248Q32 327 65 385T157 475T289 508Q362 508 420 476T511 385T544 248Q544 170 511 112T419 21T287 -12ZM287 65Q332 65 369 85T429 147T452 248Q452 309 430 349T370 410T289
431Q245 431 208 410T147 349T124 248Q124 188 146 147T206 86T287 65ZM336 556Q309 556 290 567T255 589T225 601Q211 601 201 591T189 557H126Q134 620 159 648T223 676Q250 676 269 665T305 642T336 630Q351 630 361 641T373 674H435Q429 613 402 585T336 556Z"
/>
<glyph unicode="&#xf6;" horiz-adv-x="576" d="M287 -12Q214 -12 156 20T65 111T32 248Q32 327 65 385T157 475T289 508Q362 508 420 476T511 385T544 248Q544 170 511 112T419 21T287 -12ZM287 65Q332 65 369 85T429 147T452 248Q452 309 430 349T370 410T289
431Q245 431 208 410T147 349T124 248Q124 188 146 147T206 86T287 65ZM315 591V701H419V591H315ZM156 591V701H260V591H156Z" />
<glyph unicode="&#xf7;" horiz-adv-x="590" d="M68 312V388H522V312H68ZM241 116V219H346V116H241ZM241 481V584H346V481H241Z" />
<glyph unicode="&#xf8;" horiz-adv-x="567" d="M283 -12Q213 -12 157 20T68 111T35 248Q35 327 68 385T158 475T285 508Q355 508 411 476T500 385T533 248Q533 170 500 112T410 21T283 -12ZM28 0L458 496H540L110 0H28ZM283 62Q326 62 362 83T420 145T443 248Q443
310 421 351T363 413T285 434Q243 434 207 413T147 351T124 248Q124 187 146 146T205 83T283 62Z" />
<glyph unicode="&#xf9;" horiz-adv-x="538" d="M236 -12Q155 -12 104 42T53 208V496H143V217Q143 141 173 103T258 65Q321 65 357 110T393 239V496H483V0H393V80Q371 37 331 13T236 -12ZM230 557L109 742H202L297 557H230Z" />
<glyph unicode="&#xfa;" horiz-adv-x="538" d="M236 -12Q155 -12 104 42T53 208V496H143V217Q143 141 173 103T258 65Q321 65 357 110T393 239V496H483V0H393V80Q371 37 331 13T236 -12ZM253 557L348 742H441L320 557H253Z" />
<glyph unicode="&#xfb;" horiz-adv-x="538" d="M236 -12Q155 -12 104 42T53 208V496H143V217Q143 141 173 103T258 65Q321 65 357 110T393 239V496H483V0H393V80Q371 37 331 13T236 -12ZM137 550V633L275 715L413 633V550L275 634L137 550Z" />
<glyph unicode="&#xfc;" horiz-adv-x="538" d="M236 -12Q155 -12 104 42T53 208V496H143V217Q143 141 173 103T258 65Q321 65 357 110T393 239V496H483V0H393V80Q371 37 331 13T236 -12ZM302 591V701H406V591H302ZM143 591V701H247V591H143Z" />
<glyph unicode="&#xfd;" horiz-adv-x="590" d="M46 -220V-146H147Q161 -146 170 -142T189 -122T211 -77L267 46L259 -1L42 496H139L300 115L470 496H564L295 -101Q277 -141 264 -165T240 -200T214 -216T176 -220H46ZM283 557L378 742H471L350 557H283Z" />
<glyph unicode="&#xfe;" horiz-adv-x="605" d="M57 -220V720H147V415Q171 451 215 479T328 508Q401 508 456 474T542 381T573 247Q573 172 542 114T456 22T327 -12Q266 -12 220 12T147 81V-220H57ZM315 66Q364 66 401 89T460 153T482 248Q482 302 461 343T402
407T315 430Q267 430 230 407T171 343T149 248Q149 194 170 153T229 89T315 66Z" />
<glyph unicode="&#xff;" horiz-adv-x="590" d="M46 -220V-146H147Q161 -146 170 -142T189 -122T211 -77L267 46L259 -1L42 496H139L300 115L470 496H564L295 -101Q277 -141 264 -165T240 -200T214 -216T176 -220H46ZM332 591V701H436V591H332ZM173 591V701H277V591H173Z" />
<glyph unicode="&#x2013;" horiz-adv-x="691" d="M82 252V328H608V252H82Z" />
<glyph unicode="&#x2014;" horiz-adv-x="855" d="M61 252V328H794V252H61Z" />
<glyph unicode="&#x2018;" horiz-adv-x="266" d="M51 474L143 700H206L150 474H51Z" />
<glyph unicode="&#x2019;" horiz-adv-x="266" d="M52 474L109 700H208L116 474H52Z" />
<glyph unicode="&#x201a;" horiz-adv-x="235" d="M33 -120L90 106H190L97 -120H33Z" />
<glyph unicode="&#x201c;" horiz-adv-x="438" d="M228 474L321 700H384L327 474H228ZM48 474L140 700H203L148 474H48Z" />
<glyph unicode="&#x201d;" horiz-adv-x="438" d="M239 474L295 700H395L302 474H239ZM49 474L106 700H205L113 474H49Z" />
<glyph unicode="&#x201e;" horiz-adv-x="437" d="M59 -120L116 106H215L123 -120H59ZM223 -120L279 106H378L286 -120H223Z" />
<glyph unicode="&#x2022;" horiz-adv-x="351" d="M175 211Q142 211 114 227T70 271T53 333Q53 368 69 395T114 439T175 456Q210 456 237 440T281 396T298 333Q298 299 282 272T238 228T175 211Z" />
<glyph unicode="&#x2039;" horiz-adv-x="280" d="M159 120L30 295L159 470H254L123 295L254 120H159Z" />
<glyph unicode="&#x203a;" horiz-adv-x="280" d="M26 120L157 295L26 470H121L250 295L121 120H26Z" />
</font>
</defs>
</svg>
