<?xml version="1.0" standalone="no"?>
<!DOCTYPE svg PUBLIC "-//W3C//DTD SVG 1.1//EN" "http://www.w3.org/Graphics/SVG/1.1/DTD/svg11.dtd">
<svg xmlns="http://www.w3.org/2000/svg">
<defs >
<font id="HostGrotesk" horiz-adv-x="537" ><font-face
    font-family="Host Grotesk Light"
    units-per-em="1000"
    panose-1="2 11 5 4 3 4 2 0 2 3"
    ascent="1015"
    descent="-315"
    alphabetic="0" />
<glyph unicode=" " horiz-adv-x="307" />
<glyph unicode="!" horiz-adv-x="276" d="M75 213L130 700H269L186 213H75ZM22 0L43 152H205L184 0H22Z" />
<glyph unicode="&quot;" horiz-adv-x="347" d="M90 546L108 755H220L179 546H90ZM252 546L270 755H381L341 546H252Z" />
<glyph unicode="#" horiz-adv-x="800" d="M73 0L328 724H448L191 0H73ZM386 0L644 724H762L506 0H386ZM81 441L97 553H833L816 441H81ZM-11 174L5 286H740L725 174H-11Z" />
<glyph unicode="$" horiz-adv-x="650" d="M294 -12Q244 -12 198 2T115 45T60 121T45 232H162Q162 177 184 146T240 103T310 90Q356 90 392 106T448 151T469 215Q469 241 453 260T390 289L267 311Q191 324 150 370T109 478Q109 545 146 598T247 681T386 712Q456
712 508 688T589 615T613 487H494Q495 536 478 562T433 599T374 610Q336 610 302 597T245 558T223 495Q223 469 243 449T307 421L421 401Q498 388 542 349T586 238Q586 181 562 136T497 57T403 6T294 -12ZM245 -87L369 792H433L309 -87H245Z" />
<glyph unicode="%" horiz-adv-x="859" d="M133 0L625 700H751L260 0H133ZM215 355Q166 355 131 376T78 438T67 533Q75 589 103 629T175 690T266 712Q314 712 350 691T403 629T412 533Q405 478 377 438T306 377T215 355ZM227 445Q257 445 280 467T310 533Q316 578
300 600T253 623Q224 623 200 601T170 533Q164 490 181 468T227 445ZM624 -12Q575 -12 540 9T487 71T476 166Q484 221 512 261T583 322T674 344Q723 344 758 323T811 261T821 166Q814 111 786 71T715 10T624 -12ZM635 78Q665 78 689 100T718 166Q725 211 709 233T662
255Q633 255 609 233T578 166Q573 123 589 101T635 78Z" />
<glyph unicode="&amp;" horiz-adv-x="707" d="M514 0L162 602L175 700H596L580 590H240L292 621L651 0H514ZM266 -6Q192 -6 138 23T58 104T42 225Q56 324 128 378T311 433H348L338 346H320Q259 346 217 313T167 225Q158 167 189 135T276 103Q327 103 369 124T447
180T508 257T552 341T577 419H697Q685 364 657 305T589 190T497 91T388 20T266 -6Z" />
<glyph unicode="&apos;" horiz-adv-x="200" d="M99 546L114 755H228L187 546H99Z" />
<glyph unicode="(" horiz-adv-x="385" d="M169 -145Q96 -59 60 63T44 333Q58 431 94 518T184 680T303 811H433Q395 773 354 724T276 616T210 486T171 333Q160 251 167 181T196 51T244 -58T299 -145H169Z" />
<glyph unicode=")" horiz-adv-x="385" d="M105 -145H-26Q13 -107 54 -58T133 50T199 180T238 333Q250 415 242 485T213 615T165 724T110 811H240Q314 725 350 603T366 333Q352 236 315 148T224 -13T105 -145Z" />
<glyph unicode="*" horiz-adv-x="462" d="M185 367L116 417L186 504H81L95 593H200L154 681L233 730L285 630L366 730L435 681L366 593H470L457 504H351L397 417L318 367L267 468L185 367Z" />
<glyph unicode="+" horiz-adv-x="590" d="M221 116L287 584H397L331 116H221ZM75 296L89 404H543L529 296H75Z" />
<glyph unicode="," horiz-adv-x="222" d="M-33 -172L-20 -75H20Q39 -75 50 -65T64 -34L68 -7H-3L18 145H187L162 -34Q154 -92 114 -132T7 -172H-33Z" />
<glyph unicode="-" horiz-adv-x="490" d="M324 296L338 404H792L778 296H324Z" />
<glyph unicode="." horiz-adv-x="224" d="M21 0L41 152H203L183 0H21Z" />
<glyph unicode="/" horiz-adv-x="470" d="M-39 -112L337 778H465L89 -112H-39Z" />
<glyph unicode="0" horiz-adv-x="650" d="M288 -12Q197 -12 139 33T59 159T51 350Q67 459 112 540T228 667T390 712Q482 712 539 667T620 541T627 350Q612 241 566 160T450 33T288 -12ZM305 105Q388 105 434 167T497 350Q514 470 485 532T373 595Q291 595 245
533T181 350Q165 229 194 167T305 105Z" />
<glyph unicode="1" horiz-adv-x="650" d="M253 55L319 514H144L158 609L293 619Q311 621 324 631T339 660L345 700H470L380 55H253ZM48 0L63 106H579L564 0H48Z" />
<glyph unicode="2" horiz-adv-x="650" d="M38 0L46 53Q59 140 90 195T173 287T294 353L324 365Q390 395 430 423T477 500Q481 526 472 549T440 587T377 602Q338 602 308 586T258 542T234 480H113Q126 558 167 609T268 686T397 712Q471 712 519 686T588 613T601
507Q591 436 539 379T376 271L325 247Q276 226 247 204T203 158T185 106H552L537 0H38Z" />
<glyph unicode="3" horiz-adv-x="650" d="M284 -12Q211 -12 154 13T66 88T46 217H170Q166 184 179 157T223 113T300 97Q365 97 404 128T449 205Q455 242 438 266T386 303T304 316H249L263 423H319Q380 423 423 446T473 516Q478 556 451 579T369 602Q311 602 275
573T229 502H105Q118 568 156 614T253 686T384 712Q463 712 512 687T583 620T598 526Q589 467 549 426T455 371Q517 360 550 315T573 200Q565 142 529 94T430 17T284 -12Z" />
<glyph unicode="4" horiz-adv-x="650" d="M347 0L365 129H25L39 232L430 700H560L497 242H586L570 129H481L462 0H347ZM377 184L438 615L468 606L133 193L119 242H435L377 184Z" />
<glyph unicode="5" horiz-adv-x="650" d="M284 -12Q206 -12 153 15T75 90T52 197H175Q178 154 213 127T300 99Q340 99 373 117T427 167T454 240Q462 300 431 338T341 376Q295 376 255 357T194 306H79L194 700H592L576 586H271L202 376L197 412Q223 440 266 460T371
481Q448 481 496 448T565 360T577 241Q567 168 526 111T423 21T284 -12Z" />
<glyph unicode="6" horiz-adv-x="650" d="M299 -12Q219 -12 168 17T90 95T56 204T58 327Q75 445 121 531T237 664T396 712Q471 712 518 684T588 609T608 509H491Q488 556 460 580T380 605Q327 605 285 571T216 469T178 296L175 331Q190 365 222 392T298 436T388
452Q447 452 495 424T569 345T584 225Q577 177 553 135T491 59T404 7T299 -12ZM308 100Q351 100 383 114T436 156T462 221Q471 278 438 310T341 342Q297 342 263 327T209 286T183 222Q177 184 191 157T235 115T308 100Z" />
<glyph unicode="7" horiz-adv-x="650" d="M114 0L491 589H103L119 700H636L623 608L244 0H114Z" />
<glyph unicode="8" horiz-adv-x="650" d="M282 -12Q207 -12 151 14T66 86T45 196Q51 238 71 274T123 336T195 376Q150 397 127 436T111 525Q118 575 152 617T244 685T383 712Q465 712 515 686T588 617T603 525Q596 476 563 437T477 376Q531 355 558 307T576 196Q567
133 525 87T420 14T282 -12ZM296 96Q367 96 407 124T455 207Q462 262 430 290T328 318Q259 318 219 290T170 207Q162 153 194 125T296 96ZM341 414Q402 414 437 438T479 509Q486 558 458 582T369 606Q308 606 273 582T230 509Q224 463 252 439T341 414Z" />
<glyph unicode="9" horiz-adv-x="650" d="M380 712Q460 712 511 683T589 605T623 496T621 373Q605 256 559 170T443 36T283 -12Q208 -12 161 16T91 91T71 191H188Q191 145 219 120T299 95Q352 95 394 129T464 232T501 404L504 369Q489 336 457 309T381 265T291
248Q232 248 184 276T111 355T95 475Q102 523 126 565T188 641T275 693T380 712ZM371 600Q328 600 296 586T243 544T217 479Q209 422 242 390T338 358Q382 358 416 373T470 414T496 478Q502 516 488 543T445 585T371 600Z" />
<glyph unicode=":" horiz-adv-x="224" d="M252 0L272 152H434L414 0H252ZM45 344L65 496H227L207 344H45Z" />
<glyph unicode=";" horiz-adv-x="222" d="M39 344L59 496H221L201 344H39ZM217 -172L230 -75H270Q289 -75 300 -65T314 -34L318 -7H247L268 145H437L412 -34Q404 -92 364 -132T257 -172H217Z" />
<glyph unicode="&lt;" horiz-adv-x="590" d="M450 104L110 295L125 405L520 596L501 462L164 316L173 384L469 238L450 104Z" />
<glyph unicode="=" horiz-adv-x="590" d="M89 395L104 503H558L543 395H89ZM62 197L77 305H531L516 197H62Z" />
<glyph unicode="&gt;" horiz-adv-x="590" d="M99 104L118 238L455 384L446 316L150 462L169 596L509 405L494 295L99 104Z" />
<glyph unicode="?" horiz-adv-x="500" d="M139 213L147 257Q151 287 157 304T178 334T221 359L273 382Q291 390 316 405T361 446T387 511Q392 554 370 579T302 605Q250 605 218 580T179 507H55Q63 567 95 613T182 686T307 712Q377 712 425 686T497 613T511 498Q502
432 461 382T358 305L286 273Q270 265 261 257T250 232L248 213H139ZM86 0L107 152H269L248 0H86Z" />
<glyph unicode="@" horiz-adv-x="894" d="M328 -220Q227 -220 156 -176T51 -54T32 123L63 326Q74 395 108 453T197 554T318 622T462 646H568Q669 646 738 608T840 501T859 341L842 220Q827 113 776 56T648 -2Q610 -2 582 16T549 71Q531 41 491 17T384 -7Q322 -7
282 19T226 93T219 204Q229 270 261 320T342 399T455 427Q494 427 523 414T567 378L573 420H681L643 163Q639 139 648 123T676 106Q698 106 710 129T731 214L748 334Q757 395 734 442T664 515T548 542H441Q373 542 317 516T225 442T179 332L149 130Q139 61 161
7T233 -80T350 -112H575L559 -220H328ZM423 85Q472 85 505 117T545 204Q554 262 529 299T450 336Q403 336 369 303T325 217Q315 157 343 121T423 85Z" />
<glyph unicode="A" horiz-adv-x="674" d="M-27 0L326 700H474L631 0H495L365 628H418L111 0H-27ZM110 161L158 263H510L530 161H110Z" />
<glyph unicode="B" horiz-adv-x="597" d="M17 0L115 700H397Q470 700 517 676T585 611T598 514Q591 462 563 428T496 375T412 353L424 364Q472 362 506 338T558 273T568 184Q560 130 528 89T442 24T314 0H17ZM162 106H303Q360 106 396 134T439 213Q446 258 419
283T335 309H191L162 106ZM204 406H336Q390 406 423 433T463 507Q469 549 446 572T367 595H230L204 406Z" />
<glyph unicode="C" horiz-adv-x="705" d="M336 -12Q229 -12 159 35T59 164T44 355Q58 461 109 541T242 667T428 712Q557 712 629 648T706 470H565Q560 528 524 561T420 594Q355 594 303 564T218 477T173 343Q163 269 179 215T237 133T341 105Q412 105 460 136T528
225H674Q639 115 550 52T336 -12Z" />
<glyph unicode="D" horiz-adv-x="685" d="M17 0L115 700H353Q476 700 549 656T651 532T664 344Q650 239 601 162T468 43T259 0H17ZM162 111H263Q351 111 406 140T492 224T533 356Q544 430 530 482T470 562T336 590H230L162 111Z" />
<glyph unicode="E" horiz-adv-x="539" d="M17 0L115 700H572L557 595H231L204 406H501L487 304H189L162 104H489L474 0H17Z" />
<glyph unicode="F" horiz-adv-x="523" d="M17 0L115 700H568L554 595H230L203 402H464L450 300H188L147 0H17Z" />
<glyph unicode="G" horiz-adv-x="733" d="M356 -12Q241 -12 166 33T60 161T43 351Q58 458 111 539T248 666T439 712Q563 712 637 652T721 486H579Q570 535 533 563T432 592Q362 592 308 561T219 474T173 337Q163 263 181 211T245 131T364 103Q452 103 510 153T583
290L387 288L401 385H728L720 326Q704 214 653 139T525 26T356 -12Z" />
<glyph unicode="H" horiz-adv-x="675" d="M17 0L115 700H245L147 0H17ZM172 305L186 410H539L524 305H172ZM459 0L558 700H687L589 0H459Z" />
<glyph unicode="I" horiz-adv-x="234" d="M18 0L117 700H246L147 0H18Z" />
<glyph unicode="J" horiz-adv-x="401" d="M104 0H-28L-12 116H116Q162 116 186 145T218 219L285 700H415L347 213Q332 108 268 54T104 0Z" />
<glyph unicode="K" horiz-adv-x="630" d="M17 0L115 700H245L205 419L504 700H665L371 425L576 0H420L266 325L183 250L147 0H17Z" />
<glyph unicode="L" horiz-adv-x="521" d="M17 0L115 700H245L160 102H470L456 0H17Z" />
<glyph unicode="M" horiz-adv-x="855" d="M18 0L117 700H271L436 107L379 100L711 700H866L768 0H637L721 596L762 566L447 0H342L184 566L231 596L148 0H18Z" />
<glyph unicode="N" horiz-adv-x="691" d="M17 0L116 700H244L502 210L572 700H703L604 0H475L216 489L146 0H17Z" />
<glyph unicode="O" horiz-adv-x="760" d="M358 -12Q275 -12 212 17T107 97T50 216T44 363Q59 465 113 544T249 667T429 712Q513 712 576 684T681 604T738 484T744 336Q733 260 699 196T614 86T497 14T358 -12ZM364 105Q426 105 478 135T566 219T613 349Q623 422
604 477T539 563T424 595Q361 595 309 565T221 481T174 351Q164 279 182 224T247 137T364 105Z" />
<glyph unicode="P" horiz-adv-x="589" d="M17 0L115 700H372Q457 700 508 671T581 592T592 478Q584 423 552 376T462 299T317 270H184L147 0H17ZM199 375H319Q386 375 420 406T463 491Q470 540 446 567T356 594H231L199 375Z" />
<glyph unicode="Q" horiz-adv-x="789" d="M648 0Q624 0 613 6T591 27L379 300L473 369L655 126Q662 117 669 115T695 113H747L730 0H648ZM358 -12Q275 -12 212 17T107 97T50 216T44 363Q59 465 113 544T249 667T429 712Q513 712 576 684T681 604T738 484T744 336Q733
260 699 196T614 86T497 14T358 -12ZM364 105Q426 105 478 135T566 219T613 349Q623 422 604 477T539 563T424 595Q361 595 309 565T221 481T174 351Q164 279 182 224T247 137T364 105Z" />
<glyph unicode="R" horiz-adv-x="640" d="M18 0L117 700H416Q500 700 551 671T624 591T635 478Q628 430 602 390T533 321Q569 294 583 253T593 157L580 0H453L465 163Q467 196 462 220T438 257T385 270H187L148 0H18ZM201 374H362Q427 374 462 406T505 491Q512
540 488 567T397 594H232L201 374Z" />
<glyph unicode="S" horiz-adv-x="607" d="M291 -12Q242 -12 195 2T110 47T52 124T35 238H150Q150 187 173 157T230 113T297 100Q336 100 367 111T418 146T437 204Q437 263 360 286L253 317Q181 339 142 380T103 486Q103 557 136 607T227 685T352 712Q423 712 478
688T563 613T589 484H472Q472 529 454 554T406 590T346 601Q318 601 290 592T243 564T220 513Q213 452 303 425L405 396Q483 373 520 330T557 222Q557 167 535 124T476 50T391 4T291 -12Z" />
<glyph unicode="T" horiz-adv-x="587" d="M194 0L278 595H73L88 700H626L612 595H408L324 0H194Z" />
<glyph unicode="U" horiz-adv-x="634" d="M284 -12Q206 -12 147 19T59 114T43 272L103 700H233L170 251Q163 206 175 174T216 125T293 107Q363 107 410 148T469 271L529 700H659L598 266Q585 171 539 109T427 18T284 -12Z" />
<glyph unicode="V" horiz-adv-x="710" d="M241 0L85 700H222L337 133L616 700H754L400 0H241Z" />
<glyph unicode="W" horiz-adv-x="1012" d="M175 0L89 700H226L280 71H244L499 700H642L714 70H679L910 700H1051L763 0H609L537 560H561L328 0H175Z" />
<glyph unicode="X" horiz-adv-x="637" d="M435 0L82 700H230L583 0H435ZM-16 0L278 389L342 289L134 0H-16ZM385 315L323 415L529 700H679L385 315Z" />
<glyph unicode="Y" horiz-adv-x="642" d="M221 0L257 248L85 700H231L352 342H317L537 700H685L387 248L350 0H221Z" />
<glyph unicode="Z" horiz-adv-x="542" d="M0 0L13 100L403 592H85L100 700H569L556 600L164 108H487L471 0H0Z" />
<glyph unicode="[" horiz-adv-x="385" d="M-5 -171L132 811H402L387 706H239L131 -65H280L265 -171H-5Z" />
<glyph unicode="\" horiz-adv-x="470" d="M213 -112L88 778H214L338 -112H213Z" />
<glyph unicode="]" horiz-adv-x="385" d="M272 -171H2L17 -65H166L275 706H126L141 811H412L272 -171Z" />
<glyph unicode="^" horiz-adv-x="590" d="M110 453L302 700H414L538 453H423L347 621L225 453H110Z" />
<glyph unicode="_" horiz-adv-x="671" d="M-14 -163L2 -38H578L561 -163H-14Z" />
<glyph unicode="`" horiz-adv-x="400" d="M213 555L90 751H214L305 555H213Z" />
<glyph unicode="a" horiz-adv-x="555" d="M176 -12Q94 -12 49 27T4 124Q4 174 32 213T112 276T238 300Q284 300 315 294T366 280L370 308Q377 359 352 381T282 403Q246 403 217 389T176 341H46Q59 394 94 431T180 488T287 508Q400 508 456 453T499 302L478 154Q474
125 483 117T524 109H531L516 0H481Q429 0 396 14T351 67Q320 33 276 11T176 -12ZM137 139Q137 115 156 102T208 88Q259 88 294 119T347 200Q328 207 303 212T250 217Q214 217 189 206T150 178T137 139Z" />
<glyph unicode="b" horiz-adv-x="602" d="M307 -12Q249 -12 209 10T149 70L138 0H8L109 720H240L197 428Q225 461 267 484T371 508Q441 508 492 473T568 378T581 241Q571 168 532 111T435 21T307 -12ZM284 101Q326 101 361 121T420 175T450 253Q456 294 444 326T404
376T335 395Q294 395 258 375T199 321T169 241Q164 200 176 169T216 119T284 101Z" />
<glyph unicode="c" horiz-adv-x="548" d="M250 -12Q179 -12 126 17T45 99T19 218Q20 278 42 331T104 423T196 485T311 508Q407 508 466 460T533 325H398Q394 359 368 377T304 396Q258 396 224 371T170 304T149 217Q148 181 161 155T199 114T255 99Q282 99 306
108T349 135T377 177H516Q497 121 458 78T365 12T250 -12Z" />
<glyph unicode="d" horiz-adv-x="602" d="M234 -12Q163 -12 112 23T36 119T22 255Q33 328 72 385T169 475T297 508Q355 508 394 486T454 426L496 720H626L525 0H395L406 68Q378 35 336 12T234 -12ZM268 101Q310 101 345 121T404 175T434 254Q442 316 410 355T319
395Q278 395 243 375T184 321T153 243Q148 203 160 171T201 120T268 101Z" />
<glyph unicode="e" horiz-adv-x="557" d="M250 -12Q173 -12 118 21T38 114T23 251Q34 327 74 384T175 475T313 508Q389 508 441 475T517 385T531 258Q530 250 529 239T525 217H112L124 297H407Q410 345 383 374T308 403Q272 403 239 386T182 337T152 257L148 228Q142
186 154 156T192 110T254 94Q293 94 323 112T371 159H508Q488 112 449 73T360 11T250 -12Z" />
<glyph unicode="f" horiz-adv-x="334" d="M45 0L124 562Q134 633 154 666T212 710T309 720H372L356 609H323Q299 609 285 604T263 586T252 549L175 0H45ZM31 387L47 496H341L325 387H31Z" />
<glyph unicode="g" horiz-adv-x="620" d="M251 -232Q187 -232 131 -211T41 -144T7 -28H135Q138 -74 171 -97T254 -120Q293 -120 327 -104T385 -54T418 27L428 83Q410 60 384 40T324 9T249 -3Q184 -3 134 25T56 104T28 218Q28 277 50 329T111 422T201 485T311 508Q369
508 410 484T472 424L484 496H614L548 27Q536 -59 492 -116T385 -203T251 -232ZM280 110Q328 110 366 133T427 195T450 280Q450 331 418 363T330 395Q283 395 245 372T185 310T162 225Q162 175 193 143T280 110Z" />
<glyph unicode="h" horiz-adv-x="569" d="M369 0L407 270Q415 334 396 366T325 398Q290 398 258 382T205 337T177 266L139 0H10L111 720H241L199 424Q228 463 273 485T372 508Q465 508 508 448T536 276L497 0H369Z" />
<glyph unicode="i" horiz-adv-x="212" d="M5 0L75 496H204L134 0H5ZM69 572L90 720H253L232 572H69Z" />
<glyph unicode="j" horiz-adv-x="207" d="M-124 -220L-109 -109H-63Q-30 -109 -17 -99T0 -58L78 496H207L128 -70Q120 -131 99 -163T42 -208T-47 -220H-124ZM74 572L94 720H255L234 572H74Z" />
<glyph unicode="k" horiz-adv-x="530" d="M155 141L103 220L386 496H540L155 141ZM10 0L112 720H242L140 0H10ZM348 0L191 247L279 325L503 0H348Z" />
<glyph unicode="l" horiz-adv-x="212" d="M6 0L107 720H237L135 0H6Z" />
<glyph unicode="m" horiz-adv-x="899" d="M10 0L80 496H210L201 439Q231 472 270 490T357 508Q413 508 452 486T510 421Q543 462 591 485T692 508Q791 508 836 448T866 276L826 0H698L736 270Q744 334 726 366T658 398Q622 398 593 378T545 326T520 254L484 0H354L392
270Q400 334 382 366T314 398Q262 398 224 359T176 253L140 0H10Z" />
<glyph unicode="n" horiz-adv-x="569" d="M368 0L407 270Q415 334 395 366T321 398Q270 398 229 362T176 261L139 0H10L80 496H209L199 424Q228 463 272 485T371 508Q465 508 508 448T536 276L497 0H368Z" />
<glyph unicode="o" horiz-adv-x="576" d="M259 -12Q181 -12 125 24T42 122T26 259Q37 333 78 388T182 476T316 508Q395 508 451 472T534 374T550 238Q540 165 498 109T394 20T259 -12ZM265 101Q304 101 336 118T391 169T420 250Q426 295 415 327T376 377T311 396Q273
396 240 379T185 329T155 246Q149 202 161 170T201 119T265 101Z" />
<glyph unicode="p" horiz-adv-x="602" d="M-24 -220L77 496H206L196 428Q224 461 266 484T369 508Q440 508 491 473T567 378T580 241Q570 168 531 111T434 21T306 -12Q248 -12 208 10T148 70L106 -220H-24ZM282 101Q325 101 360 121T419 175T449 253Q455 294 443
326T402 376T334 395Q293 395 257 375T198 321T168 241Q162 200 175 169T215 119T282 101Z" />
<glyph unicode="q" horiz-adv-x="602" d="M364 -220L406 68Q378 35 336 12T234 -12Q163 -12 111 23T35 119T22 255Q33 328 72 385T169 475T297 508Q355 508 394 486T454 426L464 496H595L494 -220H364ZM268 101Q309 101 344 121T404 175T434 255Q440 296 427 327T387
377T319 395Q278 395 243 375T183 321T153 243Q147 203 159 171T200 120T268 101Z" />
<glyph unicode="r" horiz-adv-x="381" d="M10 0L80 496H209L200 424Q223 459 255 480T325 501H391L374 385H301Q250 385 217 347T173 233L140 0H10Z" />
<glyph unicode="s" horiz-adv-x="495" d="M232 -12Q165 -12 114 9T34 69T7 160H139Q140 121 171 104T240 87Q285 87 306 101T331 137Q335 159 325 170T300 185T268 193Q251 196 228 201T192 210Q151 222 118 238T69 284T60 359Q70 423 121 465T265 508Q329 508
375 489T444 433T466 345H342Q343 374 319 391T262 408Q220 408 200 396T176 361Q173 340 188 331T231 314Q241 312 257 308T290 301T314 296Q344 290 370 281T417 256T447 213T452 146Q446 100 420 64T347 8T232 -12Z" />
<glyph unicode="t" horiz-adv-x="355" d="M205 0Q155 0 122 12T76 59T71 155L103 387H18L33 496H118L137 629H267L248 496H372L356 387H233L202 166Q199 141 201 130T216 115T254 111H314L298 0H205Z" />
<glyph unicode="u" horiz-adv-x="538" d="M190 -12Q95 -12 51 48T23 220L62 496H192L153 226Q145 162 164 130T237 98Q272 98 302 113T355 158T382 230L419 496H549L479 0H349L360 71Q331 33 288 11T190 -12Z" />
<glyph unicode="v" horiz-adv-x="552" d="M152 0L40 496H175L247 123L424 496H562L309 0H152Z" />
<glyph unicode="w" horiz-adv-x="806" d="M119 0L43 496H170L212 77L180 78L355 496H499L558 78L525 77L686 496H815L599 0H466L402 431H437L253 0H119Z" />
<glyph unicode="x" horiz-adv-x="566" d="M-27 0L189 248L44 496H183L281 321L431 496H572L356 248L501 0H364L265 175L115 0H-27Z" />
<glyph unicode="y" horiz-adv-x="590" d="M-7 -220L8 -117H70Q85 -117 95 -113T117 -97T143 -61L179 0L43 496H183L270 149L464 496H604L255 -106Q235 -142 220 -164T191 -198T160 -215T117 -220H-7Z" />
<glyph unicode="z" horiz-adv-x="465" d="M-6 0L8 104L300 388H52L67 496H464L451 392L155 108H415L400 0H-6Z" />
<glyph unicode="{" horiz-adv-x="385" d="M218 -174Q138 -174 96 -132T64 -9Q69 26 81 54T105 110T123 173Q128 209 108 234T25 267L40 371Q103 379 131 404T163 464Q168 499 164 527T156 584T157 647Q168 727 222 769T357 812H420L405 707H367Q329 707 309 690T283
636Q280 610 284 584T291 527T289 460Q282 407 249 370T150 320V318Q213 305 235 268T249 178Q244 141 232 111T209 54T194 2Q189 -35 204 -52T257 -69H295L281 -174H218Z" />
<glyph unicode="|" horiz-adv-x="234" d="M4 -100L119 720H249L134 -100H4Z" />
<glyph unicode="}" horiz-adv-x="385" d="M49 -174H-14L0 -69H38Q76 -69 96 -52T122 2Q126 28 122 54T114 110T115 178Q123 231 155 268T255 318V320Q193 333 171 370T155 460Q161 497 173 527T196 583T211 636Q217 673 201 690T147 707H109L124 812H187Q266 812
309 770T340 647Q336 613 324 585T301 528T283 464Q278 430 298 405T380 371L365 267Q302 259 274 234T241 173Q237 139 241 111T249 54T248 -9Q236 -90 182 -132T49 -174Z" />
<glyph unicode="~" horiz-adv-x="590" d="M35 228Q63 323 113 366T228 409Q260 409 283 399T325 376T363 353T404 343Q430 343 449 360T477 409H574Q545 314 495 271T379 228Q349 228 326 238T284 261T246 284T205 294Q179 294 160 277T131 228H35Z" />
<glyph unicode="&#xa0;" horiz-adv-x="307" />
<glyph unicode="&#xa1;" horiz-adv-x="275" d="M12 -138L93 338H203L151 -138H12ZM81 415L102 568H263L241 415H81Z" />
<glyph unicode="&#xa2;" horiz-adv-x="650" d="M295 -12Q220 -12 166 21T88 113T73 248Q84 324 125 382T230 474T369 508Q464 508 522 459T586 322H449Q445 356 419 376T353 397Q318 397 287 379T234 328T206 248Q199 202 211 168T249 117T310 99Q350 99 382 118T428
174H565Q546 118 507 76T413 11T295 -12ZM224 -104L247 65H367L343 -104H224ZM298 431L322 600H441L418 431H298Z" />
<glyph unicode="&#xa3;" horiz-adv-x="650" d="M32 0L43 75Q73 100 102 126T152 186T179 264Q183 291 178 318T165 374T152 434T153 500Q162 565 198 612T291 686T422 712Q499 712 545 683T610 605T624 495H505Q510 542 487 573T409 605Q357 605 321 577T276 495Q273
469 277 442T289 386T302 329T303 272Q296 226 270 182T201 103H572L557 0H32ZM58 297L71 386H485L472 297H58Z" />
<glyph unicode="&#xa4;" horiz-adv-x="650" d="M307 121Q223 121 181 171T149 297Q156 348 184 387T256 450T357 473Q414 473 451 450T505 388T515 297Q507 246 480 207T408 144T307 121ZM320 211Q364 211 387 236T414 297Q420 333 404 358T344 384Q300 384 278
359T250 297Q245 261 260 236T320 211ZM142 74L86 140L185 224L239 156L142 74ZM205 371L130 454L205 520L278 439L205 371ZM460 74L387 155L460 223L534 140L460 74ZM480 370L427 438L523 520L579 454L480 370Z" />
<glyph unicode="&#xa5;" horiz-adv-x="650" d="M226 0L261 248L89 700H235L359 317H312L543 700H689L391 248L356 0H226ZM48 150L61 239H590L577 150H48ZM71 314L83 404H302L295 314H71ZM403 314L420 404H612L600 314H403Z" />
<glyph unicode="&#xa6;" horiz-adv-x="234" d="M73 394L119 720H249L204 394H73ZM4 -100L49 226H180L134 -100H4Z" />
<glyph unicode="&#xa7;" horiz-adv-x="595" d="M234 -262Q185 -262 140 -248T60 -205T5 -128T-10 -15H111Q112 -67 134 -96T191 -138T262 -151Q299 -151 330 -140T381 -107T405 -57Q410 -24 395 2T325 38L209 60Q126 76 86 127T55 248Q64 309 99 354T184 425L237
335Q214 325 198 308T177 263Q173 231 193 206T263 172L370 152Q455 136 498 91T528 -41Q521 -95 493 -136T423 -205T332 -247T234 -262ZM456 45L384 120Q408 133 422 152T440 193Q445 226 430 252T360 288L245 310Q160 326 121 377T91 498Q101 565 141 613T242
686T371 712Q440 712 491 687T570 612T594 484H471Q471 529 454 554T408 590T348 601Q321 601 292 593T241 566T214 513Q209 481 228 457T297 422L404 401Q491 384 534 340T565 209Q557 154 527 113T456 45Z" />
<glyph unicode="&#xa8;" horiz-adv-x="400" d="M76 578L93 704H213L196 578H76ZM254 578L272 704H392L374 578H254Z" />
<glyph unicode="&#xa9;" horiz-adv-x="774" d="M357 -6Q252 -6 179 41T74 170T55 358Q69 462 123 540T261 663T447 708Q552 708 625 662T733 533T751 346Q736 243 682 164T544 39T357 -6ZM377 124Q313 124 266 152T197 233T184 358Q194 428 229 477T317 554T431
581Q510 581 561 538T619 419L508 425Q502 458 481 474T424 491Q393 491 365 475T317 426T290 346Q284 301 293 272T324 228T376 213Q416 213 443 233T486 284L601 278Q573 206 513 165T377 124ZM356 55Q446 55 516 93T630 200T688 358Q701 445 677 510T594 611T448
647Q359 647 289 610T175 505T117 346Q104 259 129 194T211 92T356 55Z" />
<glyph unicode="&#xaa;" horiz-adv-x="452" d="M215 348Q171 348 135 370T79 433T67 525Q76 583 106 624T180 687T271 710Q321 710 350 690T395 643L368 591L384 705H484L434 354H334L350 466L363 423Q341 392 307 370T215 348ZM250 426Q289 426 320 453T359 529Q367
578 343 604T279 631Q241 631 210 605T170 529Q163 480 187 453T250 426Z" />
<glyph unicode="&#xab;" horiz-adv-x="508" d="M348 120L244 295L398 470H533L345 259L351 337L482 120H348ZM304 120L200 295L354 470H489L301 259L307 337L438 120H304Z" />
<glyph unicode="&#xac;" horiz-adv-x="590" d="M391 150L411 296H75L89 404H543L509 150H391Z" />
<glyph unicode="&#xae;" horiz-adv-x="501" d="M261 293Q199 293 155 320T90 397T78 508Q87 568 119 614T201 686T310 712Q373 712 417 684T482 608T495 496Q487 437 454 391T371 319T261 293ZM311 398L315 438Q318 461 312 468T290 476H257L247 398H186L216 611H317Q350
611 369 591T384 537Q379 505 354 490Q364 481 367 470T369 444L365 398H311ZM257 338Q307 338 347 359T414 420T447 508Q456 579 421 621T315 664Q265 664 225 643T160 584T126 496Q116 426 151 382T257 338ZM264 520H296Q308 520 315 525T324 541Q326 552 320
556T305 560H269L264 520Z" />
<glyph unicode="&#xaf;" horiz-adv-x="400" d="M60 578L73 673H447L434 578H60Z" />
<glyph unicode="&#xb0;" horiz-adv-x="362" d="M211 425Q171 425 140 443T94 495T84 574Q90 617 113 647T171 695T242 712Q281 712 312 694T358 641T368 560Q362 519 339 489T281 442T211 425ZM218 508Q242 508 260 524T282 568Q286 596 272 612T235 629Q210 629
192 613T170 568Q167 541 180 525T218 508Z" />
<glyph unicode="&#xb1;" horiz-adv-x="590" d="M81 343L96 451H550L535 343H81ZM42 67L58 175H512L496 67H42ZM234 211L287 584H397L344 211H234Z" />
<glyph unicode="&#xb2;" horiz-adv-x="359" d="M54 352L60 398Q66 447 90 477T161 529Q185 540 208 551T248 576T268 609Q271 623 263 631T240 639Q219 639 204 626T183 589L85 596Q95 648 137 680T248 712Q295 712 324 696T365 653T373 597Q368 557 340 532T253
483Q214 467 191 450T165 407L149 431H348L337 352H54Z" />
<glyph unicode="&#xb3;" horiz-adv-x="351" d="M194 348Q116 348 81 380T50 466L149 459Q149 435 160 427T189 419Q212 419 228 432T249 469Q251 488 239 497T202 506H160L168 556H201Q225 556 242 568T263 605Q265 622 256 631T227 640Q203 640 189 629T168 599L74
605Q83 650 123 681T236 712Q301 712 337 681T368 602Q364 574 346 557T295 530L289 528Q320 518 337 497T350 440Q344 400 302 374T194 348Z" />
<glyph unicode="&#xb4;" horiz-adv-x="400" d="M124 555L215 751H339L216 555H124Z" />
<glyph unicode="&#xb5;" horiz-adv-x="587" d="M-17 -220L84 496H214L176 226Q167 162 187 130T261 98Q316 98 357 136T407 243L443 496H572L503 0H386L392 81Q361 38 315 13T212 -12Q192 -12 176 -8T147 5L114 -220H-17Z" />
<glyph unicode="&#xb6;" horiz-adv-x="653" d="M242 -100L297 283H282Q199 283 150 312T83 390T72 497Q80 553 110 598T196 672T335 700H645L533 -100H423L522 600H451L352 -100H242Z" />
<glyph unicode="&#xb7;" horiz-adv-x="224" d="M113 251Q81 251 64 273T50 327Q55 360 78 382T134 404Q167 404 184 382T196 327Q192 296 169 274T113 251Z" />
<glyph unicode="&#xb8;" horiz-adv-x="400" d="M-3 -263L8 -189H120Q147 -189 164 -181T184 -152Q187 -132 172 -125T130 -118H61Q48 -118 50 -108Q50 -104 52 -100L118 7H208L148 -61Q155 -59 162 -59T177 -58Q222 -58 251 -82T274 -155Q270 -191 249 -215T196
-251T129 -263H-3Z" />
<glyph unicode="&#xb9;" horiz-adv-x="237" d="M108 352L143 596H73L82 665H122Q135 665 145 674T156 696L158 704H258L209 352H108Z" />
<glyph unicode="&#xba;" horiz-adv-x="440" d="M240 349Q181 349 140 373T79 440T67 538Q74 590 104 629T180 690T281 712Q340 712 381 688T442 623T453 525Q445 473 416 433T341 371T240 349ZM240 428Q279 428 312 456T354 538Q360 588 338 611T279 634Q240 634
208 607T168 525Q161 476 182 452T240 428Z" />
<glyph unicode="&#xbb;" horiz-adv-x="508" d="M353 120H219L411 337L395 259L265 470H401L505 295L353 120ZM141 120H7L199 337L183 259L53 470H189L293 295L141 120Z" />
<glyph unicode="&#xbc;" horiz-adv-x="727" d="M48 0L525 700H651L176 0H48ZM142 352L177 596H107L116 665H156Q169 665 179 674T190 696L192 704H292L243 352H142ZM509 0L518 66H330L337 121L523 353H658L626 125H671L662 66H618L608 0H509ZM436 126H532L554
279L436 126Z" />
<glyph unicode="&#xbd;" horiz-adv-x="769" d="M46 0L519 700H647L174 0H46ZM125 352L160 596H90L99 665H139Q152 665 162 674T174 696L175 704H276L226 352H125ZM429 0L435 46Q441 95 465 125T535 177Q560 188 583 199T623 224T643 257Q645 271 637 279T614 287Q593
287 579 274T558 237L459 244Q470 296 512 328T622 360Q670 360 698 344T739 301T748 245Q743 205 715 180T628 131Q589 115 566 98T540 55L523 79H723L712 0H429Z" />
<glyph unicode="&#xbe;" horiz-adv-x="827" d="M156 0L635 700H761L281 0H156ZM246 348Q168 348 133 380T102 466L201 459Q201 435 212 427T241 419Q264 419 280 432T301 469Q303 488 291 497T254 506H212L220 556H253Q277 556 294 568T315 605Q317 622 308 631T279
640Q255 640 241 629T220 599L126 605Q135 650 175 681T288 712Q353 712 389 681T420 602Q416 574 398 557T347 530L341 528Q372 518 389 497T402 440Q396 400 354 374T246 348ZM614 0L624 66H435L442 121L620 353H764L732 125H776L768 66H724L715 0H614ZM542 125H637L660
285L542 125Z" />
<glyph unicode="&#xbf;" horiz-adv-x="500" d="M383 344L375 300Q371 271 365 253T345 223T301 198L249 175Q232 167 207 152T161 111T135 47Q130 3 153 -22T220 -48Q273 -48 304 -22T343 50H467Q460 -10 427 -56T340 -128T215 -155Q146 -155 97 -129T25 -55T11
59Q20 125 61 175T164 252L236 285Q253 293 261 300T272 325L274 344H383ZM436 557L415 405H253L274 557H436Z" />
<glyph unicode="&#xc0;" horiz-adv-x="674" d="M-27 0L326 700H474L631 0H495L365 628H418L111 0H-27ZM110 161L158 263H510L530 161H110ZM343 759L220 955H344L435 759H343Z" />
<glyph unicode="&#xc1;" horiz-adv-x="674" d="M-27 0L326 700H474L631 0H495L365 628H418L111 0H-27ZM110 161L158 263H510L530 161H110ZM373 759L491 955H614L465 759H373Z" />
<glyph unicode="&#xc2;" horiz-adv-x="674" d="M-27 0L326 700H474L631 0H495L365 628H418L111 0H-27ZM110 161L158 263H510L530 161H110ZM259 746L273 842L431 922L566 842L552 746L418 829L259 746Z" />
<glyph unicode="&#xc3;" horiz-adv-x="674" d="M-27 0L326 700H474L631 0H495L365 628H418L111 0H-27ZM110 161L158 263H510L530 161H110ZM479 763Q447 763 427 774T391 797T355 809Q319 809 307 764H231Q253 836 284 864T362 892Q395 892 415 881T452 858T488
846Q505 846 517 857T536 892H612Q593 826 557 795T479 763Z" />
<glyph unicode="&#xc4;" horiz-adv-x="674" d="M-27 0L326 700H474L631 0H495L365 628H418L111 0H-27ZM110 161L158 263H510L530 161H110ZM261 782L279 908H399L381 782H261ZM440 782L457 908H577L560 782H440Z" />
<glyph unicode="&#xc5;" horiz-adv-x="674" d="M-27 0L326 700H474L631 0H495L365 628H418L111 0H-27ZM110 161L158 263H510L530 161H110ZM406 750Q360 750 331 780T308 863Q316 915 354 945T438 975Q485 975 514 945T536 863Q529 811 492 781T406 750ZM415 815Q435
815 450 828T468 863Q471 885 460 897T429 910Q410 910 395 898T376 863Q373 841 384 828T415 815Z" />
<glyph unicode="&#xc6;" horiz-adv-x="904" d="M-27 0L449 700H936L922 597H652L625 406H866L852 306H611L583 103H853L838 0H438L524 601L117 0H-27ZM135 138L203 237H534L521 138H135Z" />
<glyph unicode="&#xc7;" horiz-adv-x="705" d="M336 -12Q229 -12 159 35T59 164T44 355Q58 461 109 541T242 667T428 712Q557 712 629 648T706 470H565Q560 528 524 561T420 594Q355 594 303 564T218 477T173 343Q163 269 179 215T237 133T341 105Q412 105 460
136T528 225H674Q639 115 550 52T336 -12ZM189 -266L199 -192H312Q339 -192 355 -184T376 -155Q379 -135 364 -128T322 -121H252Q240 -121 241 -111Q241 -107 244 -103L310 4H400L340 -64Q347 -62 354 -62T369 -61Q414 -61 443 -85T466 -158Q461 -194 440 -218T388
-254T321 -266H189Z" />
<glyph unicode="&#xc8;" horiz-adv-x="539" d="M17 0L115 700H572L557 595H231L204 406H501L487 304H189L162 104H489L474 0H17ZM290 759L167 955H291L382 759H290Z" />
<glyph unicode="&#xc9;" horiz-adv-x="539" d="M17 0L115 700H572L557 595H231L204 406H501L487 304H189L162 104H489L474 0H17ZM320 759L438 955H561L412 759H320Z" />
<glyph unicode="&#xca;" horiz-adv-x="539" d="M17 0L115 700H572L557 595H231L204 406H501L487 304H189L162 104H489L474 0H17ZM206 746L220 842L378 922L513 842L499 746L365 829L206 746Z" />
<glyph unicode="&#xcb;" horiz-adv-x="539" d="M17 0L115 700H572L557 595H231L204 406H501L487 304H189L162 104H489L474 0H17ZM208 782L226 908H346L328 782H208ZM387 782L404 908H524L507 782H387Z" />
<glyph unicode="&#xcc;" horiz-adv-x="234" d="M18 0L117 700H246L147 0H18ZM127 759L4 955H128L219 759H127Z" />
<glyph unicode="&#xcd;" horiz-adv-x="234" d="M18 0L117 700H246L147 0H18ZM156 759L274 955H397L248 759H156Z" />
<glyph unicode="&#xce;" horiz-adv-x="234" d="M18 0L117 700H246L147 0H18ZM42 746L56 842L214 922L349 842L335 746L201 829L42 746Z" />
<glyph unicode="&#xcf;" horiz-adv-x="234" d="M18 0L117 700H246L147 0H18ZM44 1038L62 1164H182L164 1038H44ZM223 1038L240 1164H360L343 1038H223Z" />
<glyph unicode="&#xd0;" horiz-adv-x="709" d="M10 295L26 405H405L389 295H10ZM41 0L139 700H377Q500 700 573 656T675 532T688 344Q674 239 625 162T492 43T283 0H41ZM186 111H287Q375 111 430 140T516 224T557 356Q568 430 554 482T494 562T360 590H254L186 111Z" />
<glyph unicode="&#xd1;" horiz-adv-x="691" d="M17 0L116 700H244L502 210L572 700H703L604 0H475L216 489L146 0H17ZM489 763Q457 763 437 774T401 797T365 809Q329 809 317 764H241Q263 836 294 864T372 892Q405 892 425 881T462 858T498 846Q515 846 527 857T546
892H622Q603 826 567 795T489 763Z" />
<glyph unicode="&#xd2;" horiz-adv-x="760" d="M358 -12Q275 -12 212 17T107 97T50 216T44 363Q59 465 113 544T249 667T429 712Q513 712 576 684T681 604T738 484T744 336Q733 260 699 196T614 86T497 14T358 -12ZM364 105Q426 105 478 135T566 219T613 349Q623
422 604 477T539 563T424 595Q361 595 309 565T221 481T174 351Q164 279 182 224T247 137T364 105ZM389 759L266 955H390L481 759H389Z" />
<glyph unicode="&#xd3;" horiz-adv-x="760" d="M358 -12Q275 -12 212 17T107 97T50 216T44 363Q59 465 113 544T249 667T429 712Q513 712 576 684T681 604T738 484T744 336Q733 260 699 196T614 86T497 14T358 -12ZM364 105Q426 105 478 135T566 219T613 349Q623
422 604 477T539 563T424 595Q361 595 309 565T221 481T174 351Q164 279 182 224T247 137T364 105ZM418 759L536 955H659L510 759H418Z" />
<glyph unicode="&#xd4;" horiz-adv-x="760" d="M358 -12Q275 -12 212 17T107 97T50 216T44 363Q59 465 113 544T249 667T429 712Q513 712 576 684T681 604T738 484T744 336Q733 260 699 196T614 86T497 14T358 -12ZM364 105Q426 105 478 135T566 219T613 349Q623
422 604 477T539 563T424 595Q361 595 309 565T221 481T174 351Q164 279 182 224T247 137T364 105ZM304 746L318 842L476 922L611 842L597 746L463 829L304 746Z" />
<glyph unicode="&#xd5;" horiz-adv-x="760" d="M358 -12Q275 -12 212 17T107 97T50 216T44 363Q59 465 113 544T249 667T429 712Q513 712 576 684T681 604T738 484T744 336Q733 260 699 196T614 86T497 14T358 -12ZM364 105Q426 105 478 135T566 219T613 349Q623
422 604 477T539 563T424 595Q361 595 309 565T221 481T174 351Q164 279 182 224T247 137T364 105ZM524 763Q492 763 472 774T436 797T400 809Q364 809 352 764H276Q298 836 329 864T407 892Q440 892 460 881T497 858T533 846Q550 846 562 857T581 892H657Q638
826 602 795T524 763Z" />
<glyph unicode="&#xd6;" horiz-adv-x="760" d="M358 -12Q275 -12 212 17T107 97T50 216T44 363Q59 465 113 544T249 667T429 712Q513 712 576 684T681 604T738 484T744 336Q733 260 699 196T614 86T497 14T358 -12ZM364 105Q426 105 478 135T566 219T613 349Q623
422 604 477T539 563T424 595Q361 595 309 565T221 481T174 351Q164 279 182 224T247 137T364 105ZM306 782L324 908H444L426 782H306ZM485 782L502 908H622L605 782H485Z" />
<glyph unicode="&#xd7;" horiz-adv-x="590" d="M155 146L88 223L465 554L532 477L155 146ZM404 152L129 472L216 548L491 228L404 152Z" />
<glyph unicode="&#xd8;" horiz-adv-x="787" d="M-3 0L695 700H820L122 0H-3ZM375 -12Q292 -12 229 17T124 97T67 216T61 363Q76 465 130 544T266 667T446 712Q530 712 593 684T698 604T755 484T761 336Q750 260 716 196T631 86T514 14T375 -12ZM381 105Q443 105
495 135T583 219T630 349Q640 422 621 477T556 563T440 595Q378 595 326 565T238 481T191 351Q180 279 199 224T264 137T381 105Z" />
<glyph unicode="&#xd9;" horiz-adv-x="634" d="M284 -12Q206 -12 147 19T59 114T43 272L103 700H233L170 251Q163 206 175 174T216 125T293 107Q363 107 410 148T469 271L529 700H659L598 266Q585 171 539 109T427 18T284 -12ZM325 759L202 955H326L417 759H325Z" />
<glyph unicode="&#xda;" horiz-adv-x="634" d="M284 -12Q206 -12 147 19T59 114T43 272L103 700H233L170 251Q163 206 175 174T216 125T293 107Q363 107 410 148T469 271L529 700H659L598 266Q585 171 539 109T427 18T284 -12ZM354 759L472 955H595L446 759H354Z" />
<glyph unicode="&#xdb;" horiz-adv-x="634" d="M284 -12Q206 -12 147 19T59 114T43 272L103 700H233L170 251Q163 206 175 174T216 125T293 107Q363 107 410 148T469 271L529 700H659L598 266Q585 171 539 109T427 18T284 -12ZM240 746L254 842L412 922L547 842L533
746L399 829L240 746Z" />
<glyph unicode="&#xdc;" horiz-adv-x="634" d="M284 -12Q206 -12 147 19T59 114T43 272L103 700H233L170 251Q163 206 175 174T216 125T293 107Q363 107 410 148T469 271L529 700H659L598 266Q585 171 539 109T427 18T284 -12ZM242 782L260 908H380L362 782H242ZM421
782L438 908H558L541 782H421Z" />
<glyph unicode="&#xdd;" horiz-adv-x="642" d="M221 0L257 248L85 700H231L352 342H317L537 700H685L387 248L350 0H221ZM359 759L477 955H600L451 759H359Z" />
<glyph unicode="&#xde;" horiz-adv-x="589" d="M22 0L121 700H250L231 566H361Q445 566 497 537T569 457T581 343Q573 287 541 240T450 164T305 135H170L152 0H22ZM186 240H308Q374 240 409 271T451 355Q457 405 433 432T344 459H216L186 240Z" />
<glyph unicode="&#xdf;" horiz-adv-x="579" d="M10 0L80 503Q90 568 125 614T218 686T353 712Q421 712 465 690T532 631T554 553Q554 490 514 444T406 376L405 402Q479 388 518 347T558 241Q558 180 531 125T447 35T303 0H194L209 108H287Q339 108 369 126T412
173T425 232Q425 271 397 297T295 323H250L263 423H283Q346 423 384 451T423 530Q423 563 399 582T328 602Q277 602 247 572T209 491L140 0H10Z" />
<glyph unicode="&#xe0;" horiz-adv-x="555" d="M176 -12Q94 -12 49 27T4 124Q4 174 32 213T112 276T238 300Q284 300 315 294T366 280L370 308Q377 359 352 381T282 403Q246 403 217 389T176 341H46Q59 394 94 431T180 488T287 508Q400 508 456 453T499 302L478
154Q474 125 483 117T524 109H531L516 0H481Q429 0 396 14T351 67Q320 33 276 11T176 -12ZM137 139Q137 115 156 102T208 88Q259 88 294 119T347 200Q328 207 303 212T250 217Q214 217 189 206T150 178T137 139ZM239 555L116 751H240L331 555H239Z" />
<glyph unicode="&#xe1;" horiz-adv-x="555" d="M176 -12Q94 -12 49 27T4 124Q4 174 32 213T112 276T238 300Q284 300 315 294T366 280L370 308Q377 359 352 381T282 403Q246 403 217 389T176 341H46Q59 394 94 431T180 488T287 508Q400 508 456 453T499 302L478
154Q474 125 483 117T524 109H531L516 0H481Q429 0 396 14T351 67Q320 33 276 11T176 -12ZM137 139Q137 115 156 102T208 88Q259 88 294 119T347 200Q328 207 303 212T250 217Q214 217 189 206T150 178T137 139ZM259 555L350 751H474L351 555H259Z" />
<glyph unicode="&#xe2;" horiz-adv-x="555" d="M176 -12Q94 -12 49 27T4 124Q4 174 32 213T112 276T238 300Q284 300 315 294T366 280L370 308Q377 359 352 381T282 403Q246 403 217 389T176 341H46Q59 394 94 431T180 488T287 508Q400 508 456 453T499 302L478
154Q474 125 483 117T524 109H531L516 0H481Q429 0 396 14T351 67Q320 33 276 11T176 -12ZM137 139Q137 115 156 102T208 88Q259 88 294 119T347 200Q328 207 303 212T250 217Q214 217 189 206T150 178T137 139ZM155 542L168 638L327 718L461 638L448 542L314 625L155
542Z" />
<glyph unicode="&#xe3;" horiz-adv-x="555" d="M176 -12Q94 -12 49 27T4 124Q4 174 32 213T112 276T238 300Q284 300 315 294T366 280L370 308Q377 359 352 381T282 403Q246 403 217 389T176 341H46Q59 394 94 431T180 488T287 508Q400 508 456 453T499 302L478
154Q474 125 483 117T524 109H531L516 0H481Q429 0 396 14T351 67Q320 33 276 11T176 -12ZM137 139Q137 115 156 102T208 88Q259 88 294 119T347 200Q328 207 303 212T250 217Q214 217 189 206T150 178T137 139ZM375 559Q343 559 323 570T286 593T251 605Q215 605
203 560H127Q149 632 180 660T258 688Q291 688 311 677T348 654T384 642Q401 642 413 653T432 688H508Q489 622 453 591T375 559Z" />
<glyph unicode="&#xe4;" horiz-adv-x="555" d="M176 -12Q94 -12 49 27T4 124Q4 174 32 213T112 276T238 300Q284 300 315 294T366 280L370 308Q377 359 352 381T282 403Q246 403 217 389T176 341H46Q59 394 94 431T180 488T287 508Q400 508 456 453T499 302L478
154Q474 125 483 117T524 109H531L516 0H481Q429 0 396 14T351 67Q320 33 276 11T176 -12ZM137 139Q137 115 156 102T208 88Q259 88 294 119T347 200Q328 207 303 212T250 217Q214 217 189 206T150 178T137 139ZM157 578L174 704H294L277 578H157ZM335 578L353
704H473L455 578H335Z" />
<glyph unicode="&#xe5;" horiz-adv-x="555" d="M176 -12Q94 -12 49 27T4 124Q4 174 32 213T112 276T238 300Q284 300 315 294T366 280L370 308Q377 359 352 381T282 403Q246 403 217 389T176 341H46Q59 394 94 431T180 488T287 508Q400 508 456 453T499 302L478
154Q474 125 483 117T524 109H531L516 0H481Q429 0 396 14T351 67Q320 33 276 11T176 -12ZM137 139Q137 115 156 102T208 88Q259 88 294 119T347 200Q328 207 303 212T250 217Q214 217 189 206T150 178T137 139ZM302 546Q256 546 227 576T204 659Q212 711 250 741T334
771Q381 771 410 741T432 659Q425 607 387 577T302 546ZM311 611Q331 611 346 624T364 659Q367 681 356 693T325 706Q306 706 291 694T272 659Q269 637 280 624T311 611Z" />
<glyph unicode="&#xe6;" horiz-adv-x="900" d="M194 -12Q128 -12 86 9T25 67T13 146Q24 213 81 254T245 296H380L381 308Q386 359 364 381T303 403Q265 403 234 389T191 340H64Q76 393 111 430T198 488T307 508Q369 508 412 489T479 437Q517 472 564 490T662 508Q736
508 788 475T864 385T879 256Q878 249 876 238T871 212H501Q499 175 512 149T549 108T603 94Q646 94 677 112T725 161H855Q825 84 758 36T599 -12Q532 -12 482 16T406 90Q368 44 318 16T194 -12ZM216 89Q237 89 260 97T305 120T341 160T364 216H255Q207 216 182
196T151 147Q146 120 164 105T216 89ZM516 294L755 300Q757 349 730 376T658 403Q628 403 600 390T549 353T516 294Z" />
<glyph unicode="&#xe7;" horiz-adv-x="548" d="M250 -12Q179 -12 126 17T45 99T19 218Q20 278 42 331T104 423T196 485T311 508Q407 508 466 460T533 325H398Q394 359 368 377T304 396Q258 396 224 371T170 304T149 217Q148 181 161 155T199 114T255 99Q282 99
306 108T349 135T377 177H516Q497 121 458 78T365 12T250 -12ZM96 -266L107 -192H219Q246 -192 263 -184T283 -155Q286 -135 271 -128T229 -121H160Q147 -121 149 -111Q149 -107 151 -103L217 4H307L247 -64Q254 -62 261 -62T276 -61Q321 -61 350 -85T373 -158Q369
-194 348 -218T295 -254T228 -266H96Z" />
<glyph unicode="&#xe8;" horiz-adv-x="557" d="M250 -12Q173 -12 118 21T38 114T23 251Q34 327 74 384T175 475T313 508Q389 508 441 475T517 385T531 258Q530 250 529 239T525 217H112L124 297H407Q410 345 383 374T308 403Q272 403 239 386T182 337T152 257L148
228Q142 186 154 156T192 110T254 94Q293 94 323 112T371 159H508Q488 112 449 73T360 11T250 -12ZM258 555L135 751H259L350 555H258Z" />
<glyph unicode="&#xe9;" horiz-adv-x="557" d="M250 -12Q173 -12 118 21T38 114T23 251Q34 327 74 384T175 475T313 508Q389 508 441 475T517 385T531 258Q530 250 529 239T525 217H112L124 297H407Q410 345 383 374T308 403Q272 403 239 386T182 337T152 257L148
228Q142 186 154 156T192 110T254 94Q293 94 323 112T371 159H508Q488 112 449 73T360 11T250 -12ZM278 555L369 751H493L370 555H278Z" />
<glyph unicode="&#xea;" horiz-adv-x="557" d="M250 -12Q173 -12 118 21T38 114T23 251Q34 327 74 384T175 475T313 508Q389 508 441 475T517 385T531 258Q530 250 529 239T525 217H112L124 297H407Q410 345 383 374T308 403Q272 403 239 386T182 337T152 257L148
228Q142 186 154 156T192 110T254 94Q293 94 323 112T371 159H508Q488 112 449 73T360 11T250 -12ZM174 542L187 638L346 718L480 638L467 542L333 625L174 542Z" />
<glyph unicode="&#xeb;" horiz-adv-x="557" d="M250 -12Q173 -12 118 21T38 114T23 251Q34 327 74 384T175 475T313 508Q389 508 441 475T517 385T531 258Q530 250 529 239T525 217H112L124 297H407Q410 345 383 374T308 403Q272 403 239 386T182 337T152 257L148
228Q142 186 154 156T192 110T254 94Q293 94 323 112T371 159H508Q488 112 449 73T360 11T250 -12ZM176 578L193 704H313L296 578H176ZM354 578L372 704H492L474 578H354Z" />
<glyph unicode="&#xec;" horiz-adv-x="210" d="M7 0L77 496H206L136 0H7ZM83 566L-2 751H121L177 566H83Z" />
<glyph unicode="&#xed;" horiz-adv-x="210" d="M7 0L77 496H206L136 0H7ZM117 566L198 751H321L210 566H117Z" />
<glyph unicode="&#xee;" horiz-adv-x="210" d="M7 0L77 496H206L136 0H7ZM36 544L49 636L174 718L274 633L260 544L160 623L36 544Z" />
<glyph unicode="&#xef;" horiz-adv-x="210" d="M7 0L77 496H206L136 0H7ZM174 578L191 704H291L274 578H174ZM34 578L51 704H151L134 578H34Z" />
<glyph unicode="&#xf0;" horiz-adv-x="589" d="M266 -12Q186 -12 129 23T44 119T27 252Q37 325 79 381T183 470T318 503Q354 503 385 494T442 467T491 421L469 404Q462 485 424 563T322 702L440 698Q499 641 533 572T578 428T579 283Q566 193 521 127T409 24T266
-12ZM274 98Q313 98 349 117T410 171T442 252Q448 295 434 326T391 375T326 392Q287 392 251 374T190 321T158 240Q152 196 166 164T209 115T274 98ZM282 536L294 615L599 709L588 631L282 536Z" />
<glyph unicode="&#xf1;" horiz-adv-x="569" d="M368 0L407 270Q415 334 395 366T321 398Q270 398 229 362T176 261L139 0H10L80 496H209L199 424Q228 463 272 485T371 508Q465 508 508 448T536 276L497 0H368ZM423 559Q391 559 371 570T334 593T299 605Q263 605
251 560H175Q197 632 228 660T306 688Q339 688 359 677T396 654T432 642Q449 642 461 653T480 688H556Q537 622 501 591T423 559Z" />
<glyph unicode="&#xf2;" horiz-adv-x="576" d="M259 -12Q181 -12 125 24T42 122T26 259Q37 333 78 388T182 476T316 508Q395 508 451 472T534 374T550 238Q540 165 498 109T394 20T259 -12ZM265 101Q304 101 336 118T391 169T420 250Q426 295 415 327T376 377T311
396Q273 396 240 379T185 329T155 246Q149 202 161 170T201 119T265 101ZM266 555L143 751H267L358 555H266Z" />
<glyph unicode="&#xf3;" horiz-adv-x="576" d="M259 -12Q181 -12 125 24T42 122T26 259Q37 333 78 388T182 476T316 508Q395 508 451 472T534 374T550 238Q540 165 498 109T394 20T259 -12ZM265 101Q304 101 336 118T391 169T420 250Q426 295 415 327T376 377T311
396Q273 396 240 379T185 329T155 246Q149 202 161 170T201 119T265 101ZM286 555L377 751H501L378 555H286Z" />
<glyph unicode="&#xf4;" horiz-adv-x="576" d="M259 -12Q181 -12 125 24T42 122T26 259Q37 333 78 388T182 476T316 508Q395 508 451 472T534 374T550 238Q540 165 498 109T394 20T259 -12ZM265 101Q304 101 336 118T391 169T420 250Q426 295 415 327T376 377T311
396Q273 396 240 379T185 329T155 246Q149 202 161 170T201 119T265 101ZM182 542L195 638L354 718L488 638L475 542L341 625L182 542Z" />
<glyph unicode="&#xf5;" horiz-adv-x="576" d="M259 -12Q181 -12 125 24T42 122T26 259Q37 333 78 388T182 476T316 508Q395 508 451 472T534 374T550 238Q540 165 498 109T394 20T259 -12ZM265 101Q304 101 336 118T391 169T420 250Q426 295 415 327T376 377T311
396Q273 396 240 379T185 329T155 246Q149 202 161 170T201 119T265 101ZM402 559Q370 559 350 570T313 593T278 605Q242 605 230 560H154Q176 632 207 660T285 688Q318 688 338 677T375 654T411 642Q428 642 440 653T459 688H535Q516 622 480 591T402 559Z" />
<glyph unicode="&#xf6;" horiz-adv-x="576" d="M259 -12Q181 -12 125 24T42 122T26 259Q37 333 78 388T182 476T316 508Q395 508 451 472T534 374T550 238Q540 165 498 109T394 20T259 -12ZM265 101Q304 101 336 118T391 169T420 250Q426 295 415 327T376 377T311
396Q273 396 240 379T185 329T155 246Q149 202 161 170T201 119T265 101ZM184 578L201 704H321L304 578H184ZM362 578L380 704H500L482 578H362Z" />
<glyph unicode="&#xf7;" horiz-adv-x="590" d="M75 296L89 404H543L529 296H75ZM207 116L224 239H356L338 116H207ZM256 461L273 584H404L387 461H256Z" />
<glyph unicode="&#xf8;" horiz-adv-x="567" d="M251 -12Q179 -12 126 22T46 116T30 254Q41 330 82 387T184 476T315 508Q389 508 442 475T522 381T536 242Q525 167 484 110T383 20T251 -12ZM-17 0L481 496H584L87 0H-17ZM255 89Q292 89 325 107T383 163T415 254Q423
306 411 339T372 390T311 407Q275 407 242 389T184 333T152 242Q145 191 157 157T195 106T255 89Z" />
<glyph unicode="&#xf9;" horiz-adv-x="538" d="M190 -12Q95 -12 51 48T23 220L62 496H192L153 226Q145 162 164 130T237 98Q272 98 302 113T355 158T382 230L419 496H549L479 0H349L360 71Q331 33 288 11T190 -12ZM247 555L124 751H248L339 555H247Z" />
<glyph unicode="&#xfa;" horiz-adv-x="538" d="M190 -12Q95 -12 51 48T23 220L62 496H192L153 226Q145 162 164 130T237 98Q272 98 302 113T355 158T382 230L419 496H549L479 0H349L360 71Q331 33 288 11T190 -12ZM267 555L358 751H482L359 555H267Z" />
<glyph unicode="&#xfb;" horiz-adv-x="538" d="M190 -12Q95 -12 51 48T23 220L62 496H192L153 226Q145 162 164 130T237 98Q272 98 302 113T355 158T382 230L419 496H549L479 0H349L360 71Q331 33 288 11T190 -12ZM163 542L176 638L335 718L469 638L456 542L322
625L163 542Z" />
<glyph unicode="&#xfc;" horiz-adv-x="538" d="M190 -12Q95 -12 51 48T23 220L62 496H192L153 226Q145 162 164 130T237 98Q272 98 302 113T355 158T382 230L419 496H549L479 0H349L360 71Q331 33 288 11T190 -12ZM165 578L182 704H302L285 578H165ZM343 578L361
704H481L463 578H343Z" />
<glyph unicode="&#xfd;" horiz-adv-x="590" d="M-7 -220L8 -117H70Q85 -117 95 -113T117 -97T143 -61L179 0L43 496H183L270 149L464 496H604L255 -106Q235 -142 220 -164T191 -198T160 -215T117 -220H-7ZM291 555L382 751H506L383 555H291Z" />
<glyph unicode="&#xfe;" horiz-adv-x="605" d="M-19 -220L113 720H244L200 428Q229 461 271 484T374 508Q445 508 496 473T571 378T585 241Q575 168 536 111T438 21T310 -12Q252 -12 213 10T153 70L111 -220H-19ZM287 101Q330 101 365 121T424 175T454 253Q463
316 431 355T339 395Q297 395 261 375T202 321T173 242Q165 180 196 141T287 101Z" />
<glyph unicode="&#xff;" horiz-adv-x="590" d="M-7 -220L8 -117H70Q85 -117 95 -113T117 -97T143 -61L179 0L43 496H183L270 149L464 496H604L255 -106Q235 -142 220 -164T191 -198T160 -215T117 -220H-7ZM189 578L206 704H326L309 578H189ZM367 578L385 704H505L487
578H367Z" />
<glyph unicode="&#x2013;" horiz-adv-x="691" d="M70 235L86 344H625L610 235H70Z" />
<glyph unicode="&#x2014;" horiz-adv-x="855" d="M41 235L57 344H818L802 235H41Z" />
<glyph unicode="&#x2018;" horiz-adv-x="266" d="M62 453L197 700H287L199 453H62Z" />
<glyph unicode="&#x2019;" horiz-adv-x="266" d="M70 453L160 700H298L161 453H70Z" />
<glyph unicode="&#x201a;" horiz-adv-x="235" d="M-36 -112L53 135H192L56 -112H-36Z" />
<glyph unicode="&#x201c;" horiz-adv-x="438" d="M244 453L381 700H470L382 453H244ZM51 453L186 700H276L188 453H51Z" />
<glyph unicode="&#x201d;" horiz-adv-x="438" d="M255 454L343 701H482L345 454H255ZM61 454L149 701H288L151 454H61Z" />
<glyph unicode="&#x201e;" horiz-adv-x="437" d="M-32 -112L57 135H196L60 -112H-32ZM163 -112L252 135H390L254 -112H163Z" />
<glyph unicode="&#x2022;" horiz-adv-x="351" d="M173 197Q134 197 105 216T61 267T51 340Q57 377 78 406T132 452T200 470Q240 470 269 451T314 400T323 326Q318 290 297 261T243 215T173 197Z" />
<glyph unicode="&#x2039;" horiz-adv-x="280" d="M117 120L13 295L167 470H302L114 259L120 337L251 120H117Z" />
<glyph unicode="&#x203a;" horiz-adv-x="280" d="M127 120H-7L185 337L169 259L40 470H175L280 295L127 120Z" />
</font>
</defs>
</svg>
